<svg version="1.1" id="Layer_1" xmlns="http://www.w3.org/2000/svg" xmlns:xlink="http://www.w3.org/1999/xlink" x="0px" y="0px"
	 width="100%" viewBox="0 0 800 800" enable-background="new 0 0 800 800" xml:space="preserve">
<path fill="none" opacity="1.000000" stroke="#ffffff" stroke-linecap="round" stroke-linejoin="round" stroke-width="3.000000"
	d="
M711.500000,557.500000 
	C707.214661,567.376160 702.160828,576.862549 696.456726,585.972900 
	C691.159668,594.433289 685.941467,603.003540 679.898499,610.922546 
	C670.366638,623.413696 660.440613,635.622559 649.020874,646.521851 
	C640.581116,654.577026 632.758484,663.336182 623.872681,670.849426 
	C616.004272,677.502441 607.990540,684.049316 599.605347,690.144958 
	C589.730408,697.323608 579.395386,703.690369 568.983032,709.971863 
	C557.921204,716.645264 546.320312,722.298462 534.493225,727.484558 
	C534.213623,727.607117 533.833313,727.500000 533.500000,727.500000 
"/>
<path fill="none" opacity="1.000000" stroke="#ffffff" stroke-linecap="round" stroke-linejoin="round" stroke-width="2.000000"
	d="
M43.500000,329.500000 
	C41.411842,331.581726 41.742447,334.824371 41.394638,337.061371 
	C40.540733,342.553467 39.365013,348.046600 38.289436,353.458160 
	C36.735821,361.274841 37.302719,369.270233 35.202820,377.054718 
	C33.934235,381.757477 34.503403,387.000885 34.530212,391.999847 
	C34.615128,407.833618 33.916897,423.752197 35.383682,439.464172 
	C36.125546,447.410919 35.554054,455.637848 38.238415,463.588318 
	C39.626495,467.699554 39.426231,472.530151 40.405682,477.020569 
	C42.166027,485.091125 44.573975,493.037659 46.195744,501.061493 
	C48.115646,510.560364 52.087601,519.257629 54.541924,528.488831 
	C55.270119,531.227783 56.500000,533.833313 57.500000,536.500000 
"/>
<path fill="none" opacity="1.000000" stroke="#ffffff" stroke-linecap="round" stroke-linejoin="round" stroke-width="3.000000"
	d="
M664.000000,415.500000 
	C656.758606,429.993988 649.876831,444.740814 640.395752,457.925049 
	C632.988525,468.225403 625.963501,478.907257 616.971741,487.971954 
	C607.095581,497.928192 597.325500,508.030396 586.886597,517.373291 
	C579.813843,523.703491 571.802490,529.029602 563.966492,534.451599 
	C553.568176,541.646545 542.655090,548.036255 531.500000,554.000000 
"/>
<path fill="none" opacity="1.000000" stroke="#ffffff" stroke-linecap="round" stroke-linejoin="round" stroke-width="2.000000"
	d="
M117.500000,227.500000 
	C114.713501,237.394257 112.313805,247.348816 110.330635,257.466797 
	C106.364479,277.701965 106.194321,298.081116 106.609131,318.497772 
	C106.812569,328.510590 107.458923,338.622864 109.168518,348.470734 
	C111.635033,362.678772 115.184219,376.703949 119.500000,390.500000 
"/>
<path fill="none" opacity="1.000000" stroke="#ffffff" stroke-linecap="round" stroke-linejoin="round" stroke-width="3.000000"
	d="
M318.500000,537.500000 
	C312.069763,537.083618 305.784180,535.077637 300.116577,532.719788 
	C286.718048,527.145752 273.180664,521.820312 260.428070,514.627563 
	C239.113968,502.605927 220.469391,487.447449 204.036270,469.466858 
	C199.015701,463.973480 194.426697,458.085724 189.915512,452.707031 
	C185.813202,456.964355 181.804428,461.124634 177.314636,465.784119 
	C178.360092,468.357605 180.705734,471.569855 183.497086,474.502777 
	C192.274734,483.725494 200.758469,493.308411 210.582306,501.400085 
	C221.824402,510.659882 233.281647,519.620911 245.873459,527.209961 
	C256.711304,533.741882 267.460144,540.305603 279.006500,545.485474 
	C288.451782,549.722717 298.003998,553.694885 307.995667,556.515381 
	C311.190063,557.417175 314.333344,558.500000 317.500000,559.500000 
"/>
<path fill="none" opacity="1.000000" stroke="#ffffff" stroke-linecap="round" stroke-linejoin="round" stroke-width="3.000000"
	d="
M370.500000,158.500000 
	C378.123657,162.904648 383.246429,169.383286 386.577362,177.468124 
	C387.098480,178.733002 387.085327,179.892059 386.945862,180.993149 
	C385.489105,192.496140 391.021912,201.778259 396.543091,210.974121 
	C402.829132,221.443878 411.654388,229.737076 420.461029,238.041336 
	C424.351166,241.709564 429.522400,242.920181 434.090271,244.170059 
	C441.712677,246.255722 448.791016,249.838364 456.500000,251.500000 
"/>
<path fill="none" opacity="1.000000" stroke="#ffffff" stroke-linecap="round" stroke-linejoin="round" stroke-width="3.000000"
	d="
M284.500000,198.500000 
	C280.333344,198.833328 276.171112,199.366470 271.999084,199.459366 
	C262.649109,199.667542 255.518845,206.596512 255.530914,215.999954 
	C255.536057,220.000198 254.793701,223.913300 255.370102,228.018234 
	C256.531586,236.289978 260.418243,242.678268 267.031891,247.455872 
	C270.125000,249.690292 273.547485,249.944046 276.472107,246.972534 
	C278.126709,245.291382 279.717743,243.468491 280.956299,241.472885 
	C283.852570,236.806290 288.078125,235.171051 293.010590,236.970947 
	C294.533234,237.526596 295.362579,238.872192 295.398926,240.003250 
	C295.531952,244.143188 296.054291,248.340286 293.053436,252.043304 
	C289.597504,256.307892 289.475830,258.695587 294.100067,261.323944 
	C302.101837,265.872009 305.196533,273.478241 309.120972,280.936340 
	C312.810974,287.948914 318.842377,293.046509 326.051697,296.388489 
	C327.853119,297.223541 330.300903,296.689301 331.998871,294.998840 
	C334.446686,292.561829 337.097961,290.419525 339.916901,288.384888 
	C342.373352,286.611877 344.811249,286.458862 347.500000,286.500000 
"/>
<path fill="none" opacity="1.000000" stroke="#ffffff" stroke-linecap="round" stroke-linejoin="round" stroke-width="3.000000"
	d="
M220.500000,374.000000 
	C217.195786,376.077820 213.268082,376.752716 209.955139,378.931793 
	C206.560776,381.164398 205.843231,382.592133 208.539307,384.955170 
	C215.361679,390.934875 222.851807,396.007416 232.012177,397.421112 
	C241.440521,398.876190 250.132645,396.304932 257.983521,390.975739 
	C259.938995,389.648376 260.058899,386.666931 258.504059,384.996216 
	C248.361145,374.097351 236.008362,370.335419 221.500000,373.500000 
"/>
<path fill="none" opacity="1.000000" stroke="#ffffff" stroke-linecap="round" stroke-linejoin="round" stroke-width="2.000000"
	d="
M516.500000,537.500000 
	C518.649231,537.649231 519.588318,536.651428 519.510803,534.499634 
	C519.209290,526.135864 520.145447,517.757385 517.592590,509.471466 
	C514.494873,499.417206 500.828735,487.714874 489.989624,488.311798 
	C483.205658,488.685394 476.623444,488.921234 471.047455,493.063873 
	C466.816986,496.206879 462.064545,495.529938 458.072510,494.270203 
	C451.204559,492.102905 444.366730,492.824432 437.500000,492.500000 
"/>
<path fill="none" opacity="1.000000" stroke="#ffffff" stroke-linecap="round" stroke-linejoin="round" stroke-width="3.000000"
	d="
M452.500000,193.000000 
	C459.136932,193.108704 465.192444,190.420151 471.477753,188.907608 
	C475.316406,187.983856 473.602692,184.433151 472.851959,182.559311 
	C470.780029,177.387802 468.100555,172.446640 465.480896,167.510132 
	C458.009735,153.431503 450.482788,139.377548 440.991638,126.506172 
	C436.540649,120.470039 432.138916,114.388771 427.453278,108.537430 
	C424.092438,104.340454 420.704376,103.519135 416.018433,105.542686 
	C410.715302,107.832741 405.238159,109.149055 399.500000,109.500000 
"/>
<path fill="none" opacity="1.000000" stroke="#ffffff" stroke-linecap="round" stroke-linejoin="round" stroke-width="2.000000"
	d="
M659.500000,334.500000 
	C659.876770,341.277039 657.808960,347.575348 656.132385,354.034363 
	C654.243774,361.309662 651.843689,368.383179 649.534668,375.511230 
	C644.424927,391.285431 637.928223,406.436462 630.030212,421.016388 
	C625.410645,429.544250 619.542603,437.254852 614.620667,445.119507 
	C617.581848,448.084808 620.413269,450.920074 623.641602,454.152863 
	C643.203003,429.417847 655.065247,400.790131 663.500000,370.500000 
"/>
<path fill="none" opacity="1.000000" stroke="#ffffff" stroke-linecap="round" stroke-linejoin="round" stroke-width="3.000000"
	d="
M504.500000,334.500000 
	C504.500000,326.333344 504.430237,318.165741 504.536407,310.000488 
	C504.575562,306.991608 503.764709,304.805481 501.608093,302.402985 
	C492.166718,291.885071 482.217285,281.799500 470.372620,274.198486 
	C460.368317,267.778503 449.715393,262.137115 438.026611,258.903778 
	C435.526672,258.212250 433.194702,256.936523 430.500000,257.000000 
"/>
<path fill="none" opacity="1.000000" stroke="#ffffff" stroke-linecap="round" stroke-linejoin="round" stroke-width="3.000000"
	d="
M296.500000,420.500000 
	C301.706299,440.088226 309.079987,458.834229 319.052490,476.470306 
	C327.787079,491.917114 337.353668,506.821533 349.968384,519.531372 
	C353.265625,522.853455 355.078552,526.789185 352.500000,531.500000 
"/>
<path fill="none" opacity="1.000000" stroke="#ffffff" stroke-linecap="round" stroke-linejoin="round" stroke-width="3.000000"
	d="
M148.500000,333.500000 
	C148.428467,346.331451 151.508087,358.618896 154.338333,371.036835 
	C157.279678,383.942413 161.520676,396.316833 166.512177,408.495026 
	C170.511932,418.253510 174.418060,428.065216 180.949875,436.538635 
	C181.495560,437.246490 181.333405,438.500000 181.428696,439.071533 
	C176.916763,443.583435 172.583405,447.916748 167.682343,452.817749 
	C147.244171,424.408630 133.652191,392.893005 126.500000,358.500000 
"/>
<path fill="none" opacity="1.000000" stroke="#ffffff" stroke-linecap="round" stroke-linejoin="round" stroke-width="2.000000"
	d="
M747.500000,494.500000 
	C748.422058,499.170898 746.040344,503.293671 744.829895,507.450470 
	C741.576172,518.623962 738.097778,529.751892 733.551147,540.521606 
	C728.179077,553.246521 722.976135,566.024353 716.029907,578.017334 
	C711.874878,585.191101 708.172363,592.627380 703.500000,599.500000 
"/>
<path fill="none" opacity="1.000000" stroke="#ffffff" stroke-linecap="round" stroke-linejoin="round" stroke-width="2.000000"
	d="
M177.500000,199.500000 
	C177.500000,198.000000 177.500000,196.500000 177.500000,195.000000 
	C172.075928,194.429565 171.164795,195.166061 169.019485,202.505692 
	C167.498810,207.708252 164.991455,212.503403 163.084061,217.531891 
	C160.732330,223.731796 158.833069,230.119919 157.042755,236.511978 
	C154.862900,244.294922 152.336807,252.070084 151.178055,260.025940 
	C149.903397,268.777557 147.686600,277.511322 148.500000,286.500000 
"/>
<path fill="none" opacity="1.000000" stroke="#ffffff" stroke-linecap="round" stroke-linejoin="round" stroke-width="2.000000"
	d="
M389.500000,684.500000 
	C388.884613,692.378540 383.709442,698.120422 379.940063,704.464417 
	C374.802124,713.111877 367.028259,719.515686 359.941895,726.440552 
	C354.594543,731.665955 348.271606,732.954468 340.943634,730.147156 
	C337.780182,728.935303 334.005585,729.249268 330.498901,729.016296 
	C321.502167,728.418823 312.499329,729.996582 303.501343,728.988037 
	C302.824493,728.912231 302.166656,728.666626 301.500000,728.500000 
"/>
<path fill="none" opacity="1.000000" stroke="#ffffff" stroke-linecap="round" stroke-linejoin="round" stroke-width="3.000000"
	d="
M702.500000,238.500000 
	C701.693420,243.364975 705.288574,246.668304 707.145508,250.428146 
	C712.012146,260.282074 716.558838,270.260376 720.453125,280.517792 
	C724.438232,291.014374 728.343445,301.524658 731.207764,312.445496 
	C732.608032,317.784119 734.286804,323.085999 735.500000,328.500000 
"/>
<path fill="none" opacity="1.000000" stroke="#ffffff" stroke-linecap="round" stroke-linejoin="round" stroke-width="3.000000"
	d="
M436.500000,99.000000 
	C439.230713,98.964790 438.767303,101.719658 439.947662,103.046547 
	C448.759857,112.952446 455.610107,124.248665 462.486053,135.508514 
	C470.623199,148.833572 477.679291,162.723145 484.094452,176.957428 
	C484.934143,178.820618 485.514557,180.526337 485.500000,182.500000 
"/>
<path fill="none" opacity="1.000000" stroke="#ffffff" stroke-linecap="round" stroke-linejoin="round" stroke-width="3.000000"
	d="
M278.500000,398.500000 
	C271.498688,398.211578 265.522919,401.919556 259.016113,403.563812 
	C253.095398,405.059998 247.508133,407.639374 241.525345,409.103577 
	C235.245346,410.640503 228.885361,412.405182 223.072754,415.153870 
	C216.149338,418.427856 208.880035,421.097595 202.484726,425.477692 
	C199.397369,427.592194 196.148087,429.470276 192.597427,431.689606 
	C187.730621,422.141785 181.924973,413.087677 177.953186,403.018463 
	C174.000244,392.997009 170.771774,382.744537 167.531586,372.490021 
	C167.133408,371.229828 167.166656,369.833344 167.000000,368.500000 
"/>
<path fill="none" opacity="1.000000" stroke="#ffffff" stroke-linecap="round" stroke-linejoin="round" stroke-width="3.000000"
	d="
M407.500000,138.500000 
	C401.245209,142.841812 398.011841,149.249435 394.898895,155.953049 
	C391.606628,163.042770 392.277863,170.230240 393.040802,177.495712 
	C393.675659,183.541595 397.070862,188.615814 399.596344,193.954422 
	C400.347015,195.541260 402.666412,195.563934 403.955688,194.448776 
	C411.428986,187.984726 418.976471,181.498703 419.500000,170.500000 
"/>
<path fill="none" opacity="1.000000" stroke="#ffffff" stroke-linecap="round" stroke-linejoin="round" stroke-width="3.000000"
	d="
M562.000000,107.500000 
	C563.033020,109.942245 562.307068,112.501503 562.487183,115.000923 
	C562.666199,117.486153 562.808167,119.685341 564.269775,122.137253 
	C565.982910,125.011200 565.898926,129.057907 562.469055,131.455734 
	C558.166748,134.463501 555.729187,138.415619 554.419556,143.479202 
	C552.876526,149.445236 548.429688,153.658829 543.937561,157.425537 
	C535.491150,164.508072 526.021606,169.986420 515.500000,173.500000 
"/>
<path fill="none" opacity="1.000000" stroke="#ffffff" stroke-linecap="round" stroke-linejoin="round" stroke-width="2.000000"
	d="
M464.500000,530.500000 
	C458.093384,531.826721 453.265503,534.193542 450.737000,541.407837 
	C447.679932,550.130066 443.361206,558.619507 438.306000,566.373535 
	C433.179871,574.236389 420.825012,573.598450 415.924988,565.042969 
	C413.439728,560.703674 411.388824,556.271606 410.000000,551.500000 
"/>
<path fill="none" opacity="1.000000" stroke="#ffffff" stroke-linecap="round" stroke-linejoin="round" stroke-width="3.000000"
	d="
M168.500000,175.500000 
	C165.105927,175.621475 162.835388,173.495880 159.620163,170.749222 
	C143.519760,195.766739 132.589890,222.604874 126.500000,251.500000 
"/>
<path fill="none" opacity="1.000000" stroke="#ffffff" stroke-linecap="round" stroke-linejoin="round" stroke-width="3.000000"
	d="
M322.000000,318.500000 
	C323.648987,315.433441 323.273010,312.938934 321.129150,309.908630 
	C317.689362,305.046631 312.606262,302.479675 307.889191,299.687164 
	C302.915039,296.742371 299.550201,292.674225 297.127899,287.934631 
	C294.040863,281.894470 289.520782,278.664764 283.013885,277.426941 
	C279.463104,276.751465 276.264648,274.903320 273.508759,272.489990 
	C269.767670,269.213867 265.582458,267.062714 260.500000,267.000000 
"/>
<path fill="none" opacity="1.000000" stroke="#ffffff" stroke-linecap="round" stroke-linejoin="round" stroke-width="3.000000"
	d="
M241.000000,324.500000 
	C241.622742,340.918304 253.037994,358.014923 270.488098,364.531860 
	C278.328888,367.460083 286.066620,368.033142 294.024597,365.065948 
	C295.688721,364.445465 297.666656,364.666687 299.500000,364.500031 
"/>
<path fill="none" opacity="1.000000" stroke="#ffffff" stroke-linecap="round" stroke-linejoin="round" stroke-width="2.000000"
	d="
M429.500000,512.500000 
	C429.500000,507.666656 429.855103,502.802124 429.433258,498.005859 
	C428.177551,483.728516 420.757263,475.612762 407.956207,472.691986 
	C404.954681,472.007111 403.318512,471.115143 401.950836,468.525970 
	C397.543976,460.183197 391.136414,454.241882 381.500000,452.500000 
"/>
<path fill="none" opacity="1.000000" stroke="#ffffff" stroke-linecap="round" stroke-linejoin="round" stroke-width="2.000000"
	d="
M503.500000,641.500000 
	C504.386536,646.629883 502.390991,651.453613 500.776550,655.919189 
	C497.967896,663.688049 496.022644,671.674072 493.487640,679.495972 
	C491.212921,686.514954 488.942902,693.539124 486.462799,700.486694 
	C484.717621,705.375549 482.932465,710.212036 483.000000,715.500000 
"/>
<path fill="none" opacity="1.000000" stroke="#ffffff" stroke-linecap="round" stroke-linejoin="round" stroke-width="3.000000"
	d="
M228.500000,322.500000 
	C228.940765,340.412170 235.222443,355.814911 249.084137,367.399323 
	C256.279541,373.412628 264.476410,378.051849 274.500000,377.500000 
"/>
<path fill="none" opacity="1.000000" stroke="#ffffff" stroke-linecap="round" stroke-linejoin="round" stroke-width="3.000000"
	d="
M431.500000,756.500000 
	C407.166656,757.232788 382.833344,757.232788 358.500000,756.500000 
"/>
<path fill="none" opacity="1.000000" stroke="#ffffff" stroke-linecap="round" stroke-linejoin="round" stroke-width="3.000000"
	d="
M340.500000,442.500000 
	C340.500000,444.666656 340.514587,446.833466 340.497070,448.999969 
	C340.455383,454.151093 341.301514,458.589264 346.443848,461.596039 
	C353.214905,465.555237 356.473145,472.236450 359.086182,479.468872 
	C363.189178,490.825104 371.692535,498.159332 382.521149,502.952240 
	C383.697754,503.472992 385.166656,503.333313 386.500000,503.499969 
"/>
<path fill="none" opacity="1.000000" stroke="#ffffff" stroke-linecap="round" stroke-linejoin="round" stroke-width="2.000000"
	d="
M374.500000,253.500000 
	C361.391937,246.942154 351.779236,253.140411 346.946320,264.477112 
	C346.236572,266.141968 346.565613,267.500000 346.968140,268.890900 
	C350.809082,269.724548 354.690002,269.175446 358.493958,269.559784 
	C366.314941,270.350037 370.702942,265.668610 374.445343,259.964142 
	C375.463806,258.411743 376.332184,256.469604 375.000000,254.500000 
"/>
<path fill="none" opacity="1.000000" stroke="#ffffff" stroke-linecap="round" stroke-linejoin="round" stroke-width="2.000000"
	d="
M543.500000,68.500000 
	C527.466248,60.117603 511.455750,51.763840 494.054810,46.324623 
	C489.180695,44.801060 484.058960,43.650177 479.437439,41.114002 
	C477.830048,40.231903 475.500000,40.666664 473.500000,40.500000 
"/>
<path fill="none" opacity="1.000000" stroke="#ffffff" stroke-linecap="round" stroke-linejoin="round" stroke-width="2.000000"
	d="
M574.500000,89.500000 
	C584.535034,95.366875 593.169617,103.034866 601.452515,111.049072 
	C612.222839,121.469948 623.040710,131.878983 632.019226,143.985748 
	C634.310059,147.074783 636.824951,149.996948 638.500000,153.500000 
"/>
<path fill="none" opacity="1.000000" stroke="#ffffff" stroke-linecap="round" stroke-linejoin="round" stroke-width="2.000000"
	d="
M256.500000,330.500000 
	C251.785934,331.992706 254.933533,335.185669 255.653107,336.937103 
	C258.501251,343.869385 263.045593,349.351288 270.476685,352.063904 
	C274.609497,353.572479 278.781097,353.435181 282.999451,353.504517 
	C284.808838,340.127533 278.547791,330.836945 267.500000,330.500000 
"/>
<path fill="none" opacity="1.000000" stroke="#ffffff" stroke-linecap="round" stroke-linejoin="round" stroke-width="3.000000"
	d="
M200.000000,214.000000 
	C199.142807,211.431747 199.072189,208.915924 200.553024,206.172470 
	C203.699661,208.431564 204.184952,212.017090 205.426483,215.030289 
	C207.464996,219.977753 210.207413,224.526871 213.078766,228.948853 
	C217.011551,235.005447 220.148270,241.398300 223.048965,247.978409 
	C225.954498,254.569489 232.070190,257.754547 238.011765,260.978333 
	C240.104813,262.114014 242.333328,263.000000 244.500000,264.000000 
"/>
<path fill="none" opacity="1.000000" stroke="#ffffff" stroke-linecap="round" stroke-linejoin="round" stroke-width="2.000000"
	d="
M208.500000,717.500000 
	C223.934784,726.439392 239.656082,734.838867 256.020966,741.951721 
	C262.688568,744.849854 269.230896,748.191162 276.500000,749.500000 
"/>
<path fill="none" opacity="1.000000" stroke="#ffffff" stroke-linecap="round" stroke-linejoin="round" stroke-width="3.000000"
	d="
M502.500000,66.000000 
	C499.379791,63.895012 496.942993,64.115677 493.917053,66.910179 
	C482.102631,77.821060 468.222260,85.786560 453.902679,92.801361 
	C449.226166,95.092278 444.012329,96.700310 439.000000,98.500000 
"/>
<path fill="none" opacity="1.000000" stroke="#ffffff" stroke-linecap="round" stroke-linejoin="round" stroke-width="3.000000"
	d="
M503.500000,635.500000 
	C504.063629,629.810120 500.398865,625.961670 496.389832,623.694824 
	C488.129822,619.024414 479.309998,615.413086 470.029724,612.890625 
	C461.619110,610.604553 453.316925,608.204163 444.500000,608.500000 
"/>
<path fill="none" opacity="1.000000" stroke="#ffffff" stroke-linecap="round" stroke-linejoin="round" stroke-width="3.000000"
	d="
M464.500000,542.500000 
	C464.305420,546.763977 468.418121,548.811157 469.762970,552.401489 
	C470.257843,553.722656 473.767212,554.132507 475.989258,552.979309 
	C477.380371,552.257263 478.877228,551.543335 479.958618,550.458740 
	C482.689484,547.719971 485.373901,546.896973 489.066833,548.875244 
	C490.714539,549.757935 492.948517,550.344482 493.772308,546.559265 
	C494.382874,543.753784 497.489258,541.491455 499.524780,538.935852 
	C499.667389,536.833313 496.365479,534.673706 499.497742,532.496765 
	C500.909332,531.515686 499.677277,530.303101 499.405609,529.533325 
	C498.067627,525.742065 496.734009,521.965027 496.237366,517.500000 
	C493.690125,517.500000 491.341064,517.414062 489.001038,517.522583 
	C486.286133,517.648376 483.815613,517.515503 481.955078,515.033691 
	C480.931793,513.668701 479.475037,511.667633 477.581360,513.580505 
	C476.355286,514.818970 476.461945,517.017761 477.550964,518.461548 
	C479.806610,521.452026 482.063782,525.134949 486.483398,524.400085 
	C491.712860,523.530701 493.684235,526.804321 494.834991,530.550659 
	C495.451355,532.557312 496.390106,533.356079 498.000000,534.000000 
"/>
<path fill="none" opacity="1.000000" stroke="#ffffff" stroke-linecap="round" stroke-linejoin="round" stroke-width="2.000000"
	d="
M340.500000,212.500000 
	C340.684296,216.869766 340.084778,221.243530 341.934540,225.528259 
	C344.565399,231.622192 348.771240,235.693405 354.978912,238.055420 
	C360.413300,240.123230 365.764374,242.469955 370.971832,245.056732 
	C375.927856,247.518600 381.231903,248.647751 386.500000,250.000000 
"/>
<path fill="none" opacity="1.000000" stroke="#ffffff" stroke-linecap="round" stroke-linejoin="round" stroke-width="2.000000"
	d="
M516.000000,321.500000 
	C514.957092,324.620544 515.617126,327.834167 515.527222,331.000763 
	C515.281433,339.665192 515.681152,348.382446 514.860168,356.986664 
	C513.979797,366.212433 512.000000,375.333344 510.500031,384.500000 
"/>
<path fill="none" opacity="1.000000" stroke="#ffffff" stroke-linecap="round" stroke-linejoin="round" stroke-width="2.000000"
	d="
M208.500000,455.500000 
	C219.106918,467.433685 230.398636,478.746887 243.119064,488.342163 
	C251.682693,494.801849 260.867493,500.586884 270.500000,505.500000 
"/>
<path fill="none" opacity="1.000000" stroke="#ffffff" stroke-linecap="round" stroke-linejoin="round" stroke-width="3.000000"
	d="
M366.500000,181.500000 
	C366.240173,187.645157 369.677795,192.085938 374.102722,195.361237 
	C377.936523,198.199020 379.411316,202.117889 380.924957,206.029037 
	C385.873444,218.815842 392.474731,230.429810 403.008820,239.489761 
	C403.104614,239.572159 403.333344,239.500000 403.500000,239.500000 
"/>
<path fill="none" opacity="1.000000" stroke="#ffffff" stroke-linecap="round" stroke-linejoin="round" stroke-width="2.000000"
	d="
M515.500000,317.500000 
	C517.822632,323.183990 522.220276,327.547821 525.127441,332.931183 
	C533.066650,347.632751 538.973450,363.195099 545.500000,378.500000 
"/>
<path fill="none" opacity="1.000000" stroke="#ffffff" stroke-linecap="round" stroke-linejoin="round" stroke-width="3.000000"
	d="
M452.500000,555.000000 
	C451.000000,557.166687 449.852631,559.434753 448.818054,561.924377 
	C446.566620,567.342224 442.253265,571.484985 437.988007,575.487183 
	C435.919006,577.428589 433.951172,579.315918 435.434265,582.476562 
	C446.497040,586.420349 458.057800,579.476013 457.500000,569.500000 
"/>
<path fill="none" opacity="1.000000" stroke="#ffffff" stroke-linecap="round" stroke-linejoin="round" stroke-width="2.000000"
	d="
M480.000000,201.500000 
	C484.984894,211.365585 488.222778,221.814911 491.144409,232.460358 
	C493.420135,240.752380 496.079437,248.907608 497.000000,257.500000 
"/>
<path fill="none" opacity="1.000000" stroke="#ffffff" stroke-linecap="round" stroke-linejoin="round" stroke-width="2.000000"
	d="
M239.500000,322.500000 
	C239.333328,312.500000 239.690186,302.453949 238.815994,292.516174 
	C238.232864,285.887360 236.561264,279.123230 232.429871,273.552002 
	C230.562820,271.034302 227.963730,268.978424 224.500000,271.500000 
"/>
<path fill="none" opacity="1.000000" stroke="#ffffff" stroke-linecap="round" stroke-linejoin="round" stroke-width="3.000000"
	d="
M184.500000,258.500000 
	C184.666656,264.333344 184.205948,270.271698 185.160583,275.973114 
	C186.324707,282.925629 188.908707,289.691528 193.086884,295.436798 
	C198.127670,302.368225 204.587448,307.888214 212.500000,311.500000 
"/>
<path fill="none" opacity="1.000000" stroke="#ffffff" stroke-linecap="round" stroke-linejoin="round" stroke-width="3.000000"
	d="
M385.500000,113.000000 
	C382.166656,113.166672 378.823975,113.228767 375.502350,113.526276 
	C371.286804,113.903847 369.809235,116.956078 372.000000,120.500008 
	C374.432159,124.434486 374.055328,127.102661 369.445435,128.856613 
	C362.726440,131.413025 358.779175,135.962265 356.464752,142.487503 
	C354.977509,146.680725 350.927216,148.975113 348.500000,152.500000 
"/>
<path fill="none" opacity="1.000000" stroke="#ffffff" stroke-linecap="round" stroke-linejoin="round" stroke-width="2.000000"
	d="
M626.500000,191.500000 
	C620.846436,191.125046 619.104370,186.462784 617.065308,182.466675 
	C613.659607,175.792206 609.584412,170.367966 601.529663,168.843430 
	C598.841980,168.334778 596.328918,166.217880 594.053894,164.431412 
	C592.217773,162.989594 590.544312,162.673004 588.177002,163.691315 
	C591.684204,168.315765 596.236511,171.763519 600.500000,175.500000 
"/>
<path fill="none" opacity="1.000000" stroke="#ffffff" stroke-linecap="round" stroke-linejoin="round" stroke-width="2.000000"
	d="
M362.500000,81.500000 
	C359.286957,79.791084 356.574951,77.378624 354.562225,74.457138 
	C350.786011,68.975929 345.272736,66.054550 339.484436,63.535782 
	C331.978516,60.269592 325.875763,63.868572 325.037903,72.003906 
	C324.628387,75.980110 324.619080,79.997528 324.404663,84.500000 
	C322.844055,84.500000 321.172028,84.500000 319.500000,84.500000 
"/>
<path fill="none" opacity="1.000000" stroke="#ffffff" stroke-linecap="round" stroke-linejoin="round" stroke-width="2.000000"
	d="
M47.500000,381.500000 
	C47.500000,399.833344 47.500000,418.166656 47.500000,436.500000 
"/>
<path fill="none" opacity="1.000000" stroke="#ffffff" stroke-linecap="round" stroke-linejoin="round" stroke-width="3.000000"
	d="
M483.000000,728.500000 
	C483.425385,733.543823 490.210968,742.257996 494.502991,742.336487 
	C497.153503,742.385010 499.866241,740.925049 502.494049,739.983398 
	C511.676056,736.692871 520.833313,733.333313 530.000000,730.000000 
"/>
<path fill="none" opacity="1.000000" stroke="#ffffff" stroke-linecap="round" stroke-linejoin="round" stroke-width="3.000000"
	d="
M396.000000,496.500000 
	C398.321045,500.190063 396.590607,504.521454 398.222137,508.610870 
	C400.123352,513.376099 402.135040,517.681335 406.018433,520.978271 
	C408.438751,523.033020 408.994751,525.134155 408.708435,528.517639 
	C408.091644,535.805908 408.116119,543.214417 409.500000,550.500000 
"/>
<path fill="none" opacity="1.000000" stroke="#ffffff" stroke-linecap="round" stroke-linejoin="round" stroke-width="3.000000"
	d="
M431.500000,334.000000 
	C434.999084,336.176605 438.949066,335.268311 442.483887,334.860352 
	C459.927307,332.847107 472.812744,347.321625 468.500000,364.500000 
"/>
<path fill="none" opacity="1.000000" stroke="#ffffff" stroke-linecap="round" stroke-linejoin="round" stroke-width="2.000000"
	d="
M129.500000,632.500000 
	C141.672806,646.152039 154.612701,659.069397 168.119293,671.369019 
	C172.371399,675.241150 176.917404,678.934692 181.500000,682.500000 
"/>
<path fill="none" opacity="1.000000" stroke="#ffffff" stroke-linecap="round" stroke-linejoin="round" stroke-width="2.000000"
	d="
M501.500000,419.500000 
	C501.734131,425.625702 498.619507,430.895538 496.864807,436.457336 
	C493.922882,445.782440 489.814301,454.707825 485.476349,463.488312 
	C483.958038,466.561584 482.166687,469.500000 480.500000,472.500000 
"/>
<path fill="none" opacity="1.000000" stroke="#ffffff" stroke-linecap="round" stroke-linejoin="round" stroke-width="3.000000"
	d="
M574.500000,488.500000 
	C585.790405,479.228943 596.053528,468.979523 604.731873,456.749725 
	C608.836182,459.242462 611.299255,463.555206 615.634399,466.786743 
	C603.589905,481.203217 590.330566,494.126495 576.500000,506.500000 
"/>
<path fill="none" opacity="1.000000" stroke="#ffffff" stroke-linecap="round" stroke-linejoin="round" stroke-width="2.000000"
	d="
M121.500000,278.500000 
	C120.956215,295.500000 120.705780,312.500000 121.500000,329.500000 
"/>
<path fill="none" opacity="1.000000" stroke="#ffffff" stroke-linecap="round" stroke-linejoin="round" stroke-width="2.000000"
	d="
M452.500000,35.500000 
	C447.500000,34.500000 442.534424,33.253654 437.493103,32.549282 
	C425.561615,30.882198 413.566071,29.977465 401.500000,30.500000 
"/>
<path fill="none" opacity="1.000000" stroke="#ffffff" stroke-linecap="round" stroke-linejoin="round" stroke-width="3.000000"
	d="
M387.500000,237.000000 
	C378.430603,236.409042 370.297974,234.509262 365.921478,225.036285 
	C361.586426,215.653076 352.778503,213.465347 343.500000,212.500000 
"/>
<path fill="none" opacity="1.000000" stroke="#ffffff" stroke-linecap="round" stroke-linejoin="round" stroke-width="2.000000"
	d="
M656.500000,217.500000 
	C658.166687,223.000000 659.808960,228.507538 661.506104,233.998108 
	C663.693726,241.075470 665.818542,248.193634 666.901428,255.514587 
	C667.505127,259.595551 668.768005,263.478882 669.500000,267.500000 
"/>
<path fill="none" opacity="1.000000" stroke="#ffffff" stroke-linecap="round" stroke-linejoin="round" stroke-width="2.000000"
	d="
M348.000000,153.500000 
	C347.219940,154.721649 346.651703,156.123734 347.038147,157.489212 
	C349.940826,167.745346 343.601379,173.944641 336.355499,178.257202 
	C328.154510,183.138153 324.421448,189.223465 325.500000,198.500000 
"/>
<path fill="none" opacity="1.000000" stroke="#ffffff" stroke-linecap="round" stroke-linejoin="round" stroke-width="3.000000"
	d="
M530.500000,554.500000 
	C522.666687,557.833313 515.008423,561.700623 506.948761,564.343750 
	C499.495605,566.787964 492.644470,571.238159 484.500000,571.500000 
"/>
<path fill="none" opacity="1.000000" stroke="#ffffff" stroke-linecap="round" stroke-linejoin="round" stroke-width="2.000000"
	d="
M499.000000,376.500000 
	C499.140503,382.207367 496.780396,387.460083 496.220001,393.046967 
	C485.840118,389.314331 475.670074,385.657166 465.500000,382.000000 
"/>
<path fill="none" opacity="1.000000" stroke="#ffffff" stroke-linecap="round" stroke-linejoin="round" stroke-width="2.000000"
	d="
M729.000000,512.500000 
	C729.793030,516.536316 727.690369,520.227356 726.251526,523.386841 
	C721.267456,534.330933 718.358459,546.170105 712.000000,556.500000 
"/>
<path fill="none" opacity="1.000000" stroke="#ffffff" stroke-linecap="round" stroke-linejoin="round" stroke-width="3.000000"
	d="
M415.500000,595.500000 
	C408.669373,594.024658 405.421600,588.366089 401.504578,583.496338 
	C400.098572,581.748291 398.745270,579.957825 397.378937,578.200928 
	C394.008972,580.860474 393.511475,583.862122 396.045624,586.962708 
	C398.501862,589.968018 401.301453,592.697693 404.012878,595.487488 
	C405.460663,596.977112 407.096222,598.299316 407.500000,600.500000 
"/>
<path fill="none" opacity="1.000000" stroke="#ffffff" stroke-linecap="round" stroke-linejoin="round" stroke-width="2.000000"
	d="
M159.500000,289.500000 
	C159.500000,304.166656 159.500000,318.833344 159.500000,333.500000 
"/>
<path fill="none" opacity="1.000000" stroke="#ffffff" stroke-linecap="round" stroke-linejoin="round" stroke-width="2.000000"
	d="
M163.500000,472.500000 
	C166.063202,477.274323 169.220459,481.733307 173.073532,485.423218 
	C183.204941,495.125336 191.954346,506.283630 203.500000,514.500000 
"/>
<path fill="none" opacity="1.000000" stroke="#ffffff" stroke-linecap="round" stroke-linejoin="round" stroke-width="3.000000"
	d="
M449.500000,271.500000 
	C446.433105,265.967102 441.409790,264.446320 435.499878,264.479492 
	C423.346680,264.547699 416.111084,269.370392 412.519379,280.006561 
	C412.367828,280.455383 412.500000,281.000000 412.500000,281.500000 
"/>
<path fill="none" opacity="1.000000" stroke="#ffffff" stroke-linecap="round" stroke-linejoin="round" stroke-width="3.000000"
	d="
M457.500000,252.000000 
	C471.851593,259.296326 486.400330,266.302887 497.481140,278.517090 
	C498.669495,279.826965 501.745880,279.493195 501.000000,282.500000 
"/>
<path fill="none" opacity="1.000000" stroke="#ffffff" stroke-linecap="round" stroke-linejoin="round" stroke-width="3.000000"
	d="
M203.500000,345.500000 
	C210.460739,346.309387 214.890244,340.940704 220.402115,338.296021 
	C221.216309,337.905334 222.023911,334.654602 219.998306,333.002075 
	C214.293991,328.348419 208.506882,323.876373 200.500000,324.500000 
"/>
<path fill="none" opacity="1.000000" stroke="#ffffff" stroke-linecap="round" stroke-linejoin="round" stroke-width="3.000000"
	d="
M541.500000,146.500000 
	C541.862793,142.680481 539.760132,139.864731 536.944763,138.087524 
	C529.434814,133.346771 523.153564,127.260269 517.022888,120.977638 
	C514.276855,118.163506 510.883209,118.495255 507.500031,118.506653 
	C505.921570,118.511971 506.685577,119.759445 506.500000,120.500000 
"/>
<path fill="none" opacity="1.000000" stroke="#ffffff" stroke-linecap="round" stroke-linejoin="round" stroke-width="3.000000"
	d="
M179.000000,209.500000 
	C178.941971,211.768661 178.443375,213.819138 177.678177,216.060822 
	C173.899933,227.129333 169.090164,237.891449 167.000000,249.500000 
"/>
<path fill="none" opacity="1.000000" stroke="#ffffff" stroke-linecap="round" stroke-linejoin="round" stroke-width="3.000000"
	d="
M319.500000,213.500000 
	C317.031189,213.256592 315.691803,212.547287 314.812744,209.555023 
	C312.470398,201.581848 302.622528,195.026489 294.507080,195.600159 
	C291.463379,195.815323 288.500000,197.166672 285.500000,198.000000 
"/>
<path fill="none" opacity="1.000000" stroke="#ffffff" stroke-linecap="round" stroke-linejoin="round" stroke-width="2.000000"
	d="
M365.500000,360.500000 
	C368.509094,361.932159 371.889221,361.398163 375.088989,362.796356 
	C379.535339,364.739258 380.750885,367.804565 381.011047,371.999329 
	C381.389221,378.097290 381.466644,377.871826 387.481049,379.093323 
	C390.534546,379.713501 393.508728,379.176361 396.500000,379.500000 
"/>
<path fill="none" opacity="1.000000" stroke="#ffffff" stroke-linecap="round" stroke-linejoin="round" stroke-width="3.000000"
	d="
M217.500000,288.500000 
	C217.268051,278.328186 211.510742,271.306213 203.952133,265.563019 
	C199.399490,262.103821 194.441849,259.116852 188.500000,258.500000 
"/>
<path fill="none" opacity="1.000000" stroke="#ffffff" stroke-linecap="round" stroke-linejoin="round" stroke-width="2.000000"
	d="
M240.500000,541.500000 
	C249.738373,547.467957 259.467194,552.515137 269.495270,557.010559 
	C273.114410,558.632996 276.248962,561.428467 280.500000,561.500000 
"/>
<path fill="none" opacity="1.000000" stroke="#ffffff" stroke-linecap="round" stroke-linejoin="round" stroke-width="2.000000"
	d="
M425.500000,45.500000 
	C419.666656,45.500000 413.833344,45.500000 408.000000,45.500000 
	C406.597717,55.043175 407.697327,54.150009 414.011139,57.478859 
	C416.778259,58.937786 419.666656,60.166660 422.500000,61.499996 
"/>
<path fill="none" opacity="1.000000" stroke="#ffffff" stroke-linecap="round" stroke-linejoin="round" stroke-width="2.000000"
	d="
M209.500000,93.500000 
	C195.762650,104.369843 182.139542,115.360260 171.500000,129.500000 
"/>
<path fill="none" opacity="1.000000" stroke="#ffffff" stroke-linecap="round" stroke-linejoin="round" stroke-width="2.000000"
	d="
M253.000000,725.500000 
	C263.120575,730.752686 273.640167,735.032471 284.493774,738.519409 
	C287.202148,739.389526 289.833344,740.500000 292.500000,741.500000 
"/>
<path fill="none" opacity="1.000000" stroke="#ffffff" stroke-linecap="round" stroke-linejoin="round" stroke-width="2.000000"
	d="
M188.500000,208.500000 
	C188.125458,213.859619 189.811249,218.745071 192.008835,223.495911 
	C193.866043,227.510941 197.017426,228.359940 201.001160,226.998535 
	C202.385788,222.833328 200.796677,218.666672 201.000000,214.500000 
"/>
<path fill="none" opacity="1.000000" stroke="#ffffff" stroke-linecap="round" stroke-linejoin="round" stroke-width="3.000000"
	d="
M430.500000,333.500000 
	C425.884064,330.183563 423.320007,326.198486 423.314484,320.000153 
	C423.306915,311.479736 416.222565,305.162415 407.501282,304.483582 
	C406.991394,304.443878 406.500000,304.166687 406.000000,304.000000 
"/>
<path fill="none" opacity="1.000000" stroke="#ffffff" stroke-linecap="round" stroke-linejoin="round" stroke-width="2.000000"
	d="
M74.500000,543.500000 
	C80.190475,556.488098 86.051064,569.390808 93.481346,581.511414 
	C93.629883,581.753662 93.500000,582.166687 93.500000,582.500000 
"/>
<path fill="none" opacity="1.000000" stroke="#ffffff" stroke-linecap="round" stroke-linejoin="round" stroke-width="3.000000"
	d="
M292.500000,337.500000 
	C292.226532,342.308411 295.207489,345.854401 297.576965,349.449249 
	C303.255554,358.064514 311.025146,363.878937 321.500000,365.500000 
"/>
<path fill="none" opacity="1.000000" stroke="#ffffff" stroke-linecap="round" stroke-linejoin="round" stroke-width="3.000000"
	d="
M514.500000,79.500000 
	C514.826111,85.560951 517.708069,90.889069 519.669189,96.440224 
	C520.378235,98.447113 520.635437,100.550858 521.467346,102.513840 
	C523.595093,107.534409 527.970886,109.831932 532.500000,112.000000 
"/>
<path fill="none" opacity="1.000000" stroke="#ffffff" stroke-linecap="round" stroke-linejoin="round" stroke-width="2.000000"
	d="
M754.500000,353.500000 
	C756.546753,365.748474 757.943726,378.049622 757.500000,390.500000 
"/>
<path fill="none" opacity="1.000000" stroke="#ffffff" stroke-linecap="round" stroke-linejoin="round" stroke-width="3.000000"
	d="
M403.000000,552.500000 
	C405.456573,566.668152 413.397827,576.217651 427.000000,581.000000 
"/>
<path fill="none" opacity="1.000000" stroke="#ffffff" stroke-linecap="round" stroke-linejoin="round" stroke-width="2.000000"
	d="
M683.000000,256.500000 
	C683.873169,268.497223 686.442749,280.376648 685.500000,292.500000 
"/>
<path fill="none" opacity="1.000000" stroke="#ffffff" stroke-linecap="round" stroke-linejoin="round" stroke-width="2.000000"
	d="
M281.500000,325.500000 
	C282.568604,321.906403 283.655365,318.391327 283.572174,314.498444 
	C283.356934,304.428680 276.899261,296.660034 266.500000,294.500000 
"/>
<path fill="none" opacity="1.000000" stroke="#ffffff" stroke-linecap="round" stroke-linejoin="round" stroke-width="2.000000"
	d="
M336.500000,660.500000 
	C333.583679,670.833313 333.322266,681.138977 336.399841,691.529663 
	C336.865204,693.100769 336.979675,694.870728 337.500000,696.500000 
"/>
<path fill="none" opacity="1.000000" stroke="#ffffff" stroke-linecap="round" stroke-linejoin="round" stroke-width="2.000000"
	d="
M646.500000,219.500000 
	C650.148438,220.052307 649.179932,223.412216 649.916382,225.529099 
	C653.202332,234.975327 656.836487,244.358383 657.500000,254.500000 
"/>
<path fill="none" opacity="1.000000" stroke="#ffffff" stroke-linecap="round" stroke-linejoin="round" stroke-width="2.000000"
	d="
M553.500000,430.500000 
	C563.889526,435.042206 574.465027,439.174011 584.494629,444.510101 
	C585.763428,445.185150 587.072998,445.541229 588.500000,445.500000 
"/>
<path fill="none" opacity="1.000000" stroke="#ffffff" stroke-linecap="round" stroke-linejoin="round" stroke-width="2.000000"
	d="
M351.500000,368.500000 
	C347.025238,369.848419 343.216003,375.279205 344.654663,379.952393 
	C346.510742,385.981201 346.888153,391.649292 344.547791,397.519043 
	C344.203766,398.381897 344.500000,399.500000 344.500000,400.500000 
"/>
<path fill="none" opacity="1.000000" stroke="#ffffff" stroke-linecap="round" stroke-linejoin="round" stroke-width="2.000000"
	d="
M536.500000,534.500000 
	C527.000000,539.166687 517.518433,543.871704 507.979065,548.456482 
	C506.630402,549.104675 505.000000,549.166687 503.500000,549.500000 
"/>
<path fill="none" opacity="1.000000" stroke="#ffffff" stroke-linecap="round" stroke-linejoin="round" stroke-width="2.000000"
	d="
M552.500000,391.500000 
	C555.629456,399.381073 561.533508,405.482483 565.927368,412.545197 
	C568.599854,416.841125 573.051086,419.711670 575.000000,424.500000 
"/>
<path fill="none" opacity="1.000000" stroke="#ffffff" stroke-linecap="round" stroke-linejoin="round" stroke-width="3.000000"
	d="
M452.500000,695.500000 
	C452.666687,696.333313 452.605682,697.313904 453.034790,697.977478 
	C457.984070,705.631287 457.469086,714.017273 456.532227,722.503540 
	C456.314117,724.479492 456.500000,726.500000 456.500000,728.500000 
"/>
<path fill="none" opacity="1.000000" stroke="#ffffff" stroke-linecap="round" stroke-linejoin="round" stroke-width="2.000000"
	d="
M619.500000,405.500000 
	C616.178345,413.338318 613.726990,421.511261 609.661804,429.086853 
	C608.085449,432.024475 604.922791,433.934967 604.500000,437.500000 
"/>
<path fill="none" opacity="1.000000" stroke="#ffffff" stroke-linecap="round" stroke-linejoin="round" stroke-width="2.000000"
	d="
M445.000000,218.500000 
	C444.833344,222.833328 444.489624,227.168610 444.536987,231.499603 
	C444.634430,240.414352 449.533600,245.226532 458.500000,245.500000 
"/>
<path fill="none" opacity="1.000000" stroke="#ffffff" stroke-linecap="round" stroke-linejoin="round" stroke-width="2.000000"
	d="
M678.000000,372.000000 
	C675.953003,382.837677 672.177917,393.154053 668.513306,403.504700 
	C668.408386,403.800903 668.500000,404.166656 668.500000,404.500000 
"/>
<path fill="none" opacity="1.000000" stroke="#ffffff" stroke-linecap="round" stroke-linejoin="round" stroke-width="2.000000"
	d="
M593.500000,451.500000 
	C583.677185,462.343842 573.449280,472.782654 562.500000,482.500000 
"/>
<path fill="none" opacity="1.000000" stroke="#ffffff" stroke-linecap="round" stroke-linejoin="round" stroke-width="3.000000"
	d="
M518.500000,140.500000 
	C516.506104,139.839462 516.160522,141.341232 516.581848,142.469421 
	C517.341736,144.503967 516.810547,146.501617 516.989807,148.500916 
	C517.270752,151.633896 516.181702,154.292664 512.979065,154.887299 
	C510.322754,155.380478 507.137634,155.718277 505.524261,152.487885 
	C504.105377,149.646820 501.589722,147.136765 502.500000,143.500000 
"/>
<path fill="none" opacity="1.000000" stroke="#ffffff" stroke-linecap="round" stroke-linejoin="round" stroke-width="2.000000"
	d="
M531.500000,318.500000 
	C537.885925,328.640350 543.893494,338.969910 547.500000,350.500000 
"/>
<path fill="none" opacity="1.000000" stroke="#ffffff" stroke-linecap="round" stroke-linejoin="round" stroke-width="2.000000"
	d="
M452.500000,766.500000 
	C441.930359,768.534851 431.309326,770.021851 420.500000,769.500000 
"/>
<path fill="none" opacity="1.000000" stroke="#ffffff" stroke-linecap="round" stroke-linejoin="round" stroke-width="2.000000"
	d="
M143.500000,167.500000 
	C138.834625,176.080795 134.011292,184.572723 129.891174,193.449493 
	C129.100342,195.153351 128.817322,196.778534 128.500000,198.500000 
"/>
<path fill="none" opacity="1.000000" stroke="#ffffff" stroke-linecap="round" stroke-linejoin="round" stroke-width="3.000000"
	d="
M465.500000,245.500000 
	C465.500000,230.832306 460.044800,222.649521 447.500000,218.500000 
"/>
<path fill="none" opacity="1.000000" stroke="#ffffff" stroke-linecap="round" stroke-linejoin="round" stroke-width="2.000000"
	d="
M405.500000,658.500000 
	C415.583618,663.037109 426.032776,661.908569 436.500000,660.500000 
"/>
<path fill="none" opacity="1.000000" stroke="#ffffff" stroke-linecap="round" stroke-linejoin="round" stroke-width="2.000000"
	d="
M109.500000,628.500000 
	C115.896332,637.495850 123.085197,645.806458 130.984329,653.516052 
	C132.922958,655.408203 134.666672,657.500000 136.500015,659.500000 
"/>
<path fill="none" opacity="1.000000" stroke="#ffffff" stroke-linecap="round" stroke-linejoin="round" stroke-width="3.000000"
	d="
M184.500000,152.500000 
	C184.434433,147.358429 187.145615,143.248474 189.494156,138.996765 
	C191.208740,135.892776 194.458389,133.156265 191.755005,128.575165 
	C182.541504,137.760452 174.558411,147.746262 167.503036,158.482071 
	C170.382812,162.182968 175.548721,164.247223 175.520538,170.000107 
	C175.508606,172.438965 175.595901,174.809891 172.500000,175.500000 
"/>
<path fill="none" opacity="1.000000" stroke="#ffffff" stroke-linecap="round" stroke-linejoin="round" stroke-width="2.000000"
	d="
M519.500000,141.000000 
	C520.542053,143.721191 522.285217,146.043610 523.134460,148.960861 
	C524.765137,154.562271 535.046509,158.014084 539.980286,154.968109 
	C541.149353,154.246368 541.698120,152.965866 541.500000,151.500000 
"/>
<path fill="none" opacity="1.000000" stroke="#ffffff" stroke-linecap="round" stroke-linejoin="round" stroke-width="2.000000"
	d="
M715.500000,238.500000 
	C720.280029,248.447098 726.418884,257.760101 729.500000,268.500000 
"/>
<path fill="none" opacity="1.000000" stroke="#ffffff" stroke-linecap="round" stroke-linejoin="round" stroke-width="2.000000"
	d="
M737.000000,482.500000 
	C735.994568,490.146942 734.141968,497.634949 731.821838,504.943451 
	C731.076782,507.290497 731.196594,509.818054 730.000000,512.000000 
"/>
<path fill="none" opacity="1.000000" stroke="#ffffff" stroke-linecap="round" stroke-linejoin="round" stroke-width="2.000000"
	d="
M528.500000,182.500015 
	C520.166687,186.000015 511.859955,189.566208 503.475220,192.938416 
	C501.982941,193.538605 500.166656,193.333328 498.500000,193.500000 
"/>
<path fill="none" opacity="1.000000" stroke="#ffffff" stroke-linecap="round" stroke-linejoin="round" stroke-width="2.000000"
	d="
M296.500000,457.500000 
	C296.634888,463.388641 300.631653,467.832458 302.810425,472.865631 
	C304.954315,477.818298 307.490204,482.855988 310.500000,487.500000 
"/>
<path fill="none" opacity="1.000000" stroke="#ffffff" stroke-linecap="round" stroke-linejoin="round" stroke-width="2.000000"
	d="
M514.500000,174.000000 
	C506.664978,177.902832 498.594940,181.194626 489.986725,182.934296 
	C488.618134,183.210892 488.234528,185.324997 486.500000,184.500000 
"/>
<path fill="none" opacity="1.000000" stroke="#ffffff" stroke-linecap="round" stroke-linejoin="round" stroke-width="2.000000"
	d="
M453.500000,392.500000 
	C461.977356,394.909760 470.425018,397.393982 478.521423,400.951202 
	C479.700409,401.469208 481.166656,401.333313 482.500000,401.500000 
"/>
<path fill="none" opacity="1.000000" stroke="#ffffff" stroke-linecap="round" stroke-linejoin="round" stroke-width="2.000000"
	d="
M513.500000,414.500000 
	C521.666687,417.666687 529.873413,420.736450 537.964111,424.086731 
	C539.471680,424.710968 540.833496,425.499451 542.500000,425.500000 
"/>
<path fill="none" opacity="1.000000" stroke="#ffffff" stroke-linecap="round" stroke-linejoin="round" stroke-width="2.000000"
	d="
M296.500000,46.500000 
	C291.663849,46.698833 287.553497,49.345249 283.051758,50.675152 
	C277.665833,52.266258 272.666656,55.166668 267.500000,57.500004 
"/>
<path fill="none" opacity="1.000000" stroke="#ffffff" stroke-linecap="round" stroke-linejoin="round" stroke-width="2.000000"
	d="
M60.500000,503.500000 
	C62.909760,511.977356 65.393990,520.424988 68.951248,528.521423 
	C69.469215,529.700378 69.333336,531.166687 69.500000,532.500000 
"/>
<path fill="none" opacity="1.000000" stroke="#ffffff" stroke-linecap="round" stroke-linejoin="round" stroke-width="2.000000"
	d="
M471.500000,649.500000 
	C462.127075,654.020874 455.974304,661.717285 451.080780,670.544800 
	C450.334869,671.890381 450.666656,673.833313 450.499969,675.500000 
"/>
<path fill="none" opacity="1.000000" stroke="#ffffff" stroke-linecap="round" stroke-linejoin="round" stroke-width="2.000000"
	d="
M634.500000,173.500000 
	C638.207336,181.998840 644.036133,189.358139 647.615112,197.952057 
	C648.238403,199.448608 648.783630,201.022095 649.500000,202.500000 
"/>
<path fill="none" opacity="1.000000" stroke="#ffffff" stroke-linecap="round" stroke-linejoin="round" stroke-width="2.000000"
	d="
M69.500008,285.500000 
	C67.166672,293.000000 65.084015,300.593384 62.346230,307.942719 
	C61.531952,310.128571 61.902573,312.559753 60.500000,314.500000 
"/>
<path fill="none" opacity="1.000000" stroke="#ffffff" stroke-linecap="round" stroke-linejoin="round" stroke-width="2.000000"
	d="
M509.500000,386.500000 
	C509.237762,390.171722 508.975525,393.843475 508.692352,397.808044 
	C513.878540,401.564972 520.491760,402.851868 526.500000,405.500000 
"/>
<path fill="none" opacity="1.000000" stroke="#ffffff" stroke-linecap="round" stroke-linejoin="round" stroke-width="3.000000"
	d="
M405.500000,303.000000 
	C398.658844,303.162201 392.821228,301.213074 388.457153,295.532898 
	C386.022003,292.363312 383.067657,289.698029 378.500000,290.500000 
"/>
<path fill="none" opacity="1.000000" stroke="#ffffff" stroke-linecap="round" stroke-linejoin="round" stroke-width="2.000000"
	d="
M658.500000,256.500000 
	C660.718628,265.702759 661.970825,275.009064 661.500000,284.500000 
"/>
<path fill="none" opacity="1.000000" stroke="#ffffff" stroke-linecap="round" stroke-linejoin="round" stroke-width="2.000000"
	d="
M578.500000,407.500000 
	C586.907227,416.599518 594.330322,426.593628 603.500000,435.000000 
"/>
<path fill="none" opacity="1.000000" stroke="#ffffff" stroke-linecap="round" stroke-linejoin="round" stroke-width="2.000000"
	d="
M581.500000,429.500000 
	C576.573975,424.352051 569.475830,423.463806 563.387024,420.753784 
	C558.859131,418.738495 554.556213,415.880493 549.518494,414.904480 
	C548.880371,414.780884 548.183167,414.600677 547.500000,414.500000 
"/>
<path fill="none" opacity="1.000000" stroke="#ffffff" stroke-linecap="round" stroke-linejoin="round" stroke-width="2.000000"
	d="
M318.500000,689.500000 
	C309.500000,685.159241 300.500000,685.159241 291.500000,689.500000 
"/>
<path fill="none" opacity="1.000000" stroke="#ffffff" stroke-linecap="round" stroke-linejoin="round" stroke-width="3.000000"
	d="
M431.500000,608.500000 
	C423.824707,607.754883 417.090057,610.798950 410.552338,614.103577 
	C407.901855,615.443237 405.833344,616.556152 403.499817,613.999756 
	C404.467926,611.608459 407.055603,610.213684 407.500000,607.500000 
"/>
<path fill="none" opacity="1.000000" stroke="#ffffff" stroke-linecap="round" stroke-linejoin="round" stroke-width="3.000000"
	d="
M554.500000,126.500000 
	C556.790039,120.905098 555.340393,114.936371 552.658081,110.717400 
	C549.384888,105.569046 550.375122,100.086128 548.687622,94.938492 
	C546.476257,88.192673 541.844055,83.723984 534.500000,83.500000 
"/>
<path fill="none" opacity="1.000000" stroke="#ffffff" stroke-linecap="round" stroke-linejoin="round" stroke-width="2.000000"
	d="
M126.500000,407.500000 
	C127.623024,414.376862 131.895416,419.998474 134.202881,426.427185 
	C134.911407,428.401215 135.818054,430.800568 137.500000,432.500000 
"/>
<path fill="none" opacity="1.000000" stroke="#ffffff" stroke-linecap="round" stroke-linejoin="round" stroke-width="3.000000"
	d="
M323.500000,506.500000 
	C329.110992,514.917358 334.486176,523.525391 342.500000,530.000000 
"/>
<path fill="none" opacity="1.000000" stroke="#ffffff" stroke-linecap="round" stroke-linejoin="round" stroke-width="2.000000"
	d="
M280.500000,410.500000 
	C272.295837,412.133331 264.875885,416.455444 256.500000,417.500000 
"/>
<path fill="none" opacity="1.000000" stroke="#ffffff" stroke-linecap="round" stroke-linejoin="round" stroke-width="2.000000"
	d="
M142.500000,665.500000 
	C149.000000,671.666687 155.499603,677.833740 162.000427,683.999573 
	C163.050308,684.995361 163.901321,686.271484 165.500000,686.500000 
"/>
<path fill="none" opacity="1.000000" stroke="#ffffff" stroke-linecap="round" stroke-linejoin="round" stroke-width="2.000000"
	d="
M672.500000,293.500000 
	C672.500000,301.166656 672.500000,308.833344 672.500000,316.500000 
"/>
<path fill="none" opacity="1.000000" stroke="#ffffff" stroke-linecap="round" stroke-linejoin="round" stroke-width="2.000000"
	d="
M682.500000,628.500000 
	C678.439636,634.818359 673.685181,640.579590 668.506775,646.006470 
	C666.796814,647.798462 665.166626,649.666626 663.500000,651.500000 
"/>
<path fill="none" opacity="1.000000" stroke="#ffffff" stroke-linecap="round" stroke-linejoin="round" stroke-width="2.000000"
	d="
M89.500000,237.500000 
	C90.435532,243.230637 86.355087,247.250839 84.399170,251.958099 
	C83.206825,254.827698 81.429962,257.476837 80.500000,260.500000 
"/>
<path fill="none" opacity="1.000000" stroke="#ffffff" stroke-linecap="round" stroke-linejoin="round" stroke-width="3.000000"
	d="
M262.500000,309.500000 
	C262.105743,316.385254 270.096832,324.451660 277.500000,325.500000 
"/>
<path fill="none" opacity="1.000000" stroke="#ffffff" stroke-linecap="round" stroke-linejoin="round" stroke-width="2.000000"
	d="
M452.000000,194.000000 
	C444.734406,194.291046 437.824799,197.133286 430.500000,197.000000 
"/>
<path fill="none" opacity="1.000000" stroke="#ffffff" stroke-linecap="round" stroke-linejoin="round" stroke-width="2.000000"
	d="
M757.500000,423.500000 
	C757.472961,430.847260 757.769104,438.209198 756.500000,445.500000 
"/>
<path fill="none" opacity="1.000000" stroke="#ffffff" stroke-linecap="round" stroke-linejoin="round" stroke-width="2.000000"
	d="
M384.500000,30.500000 
	C377.155518,30.588121 369.783936,30.079670 362.500000,31.500000 
"/>
<path fill="none" opacity="1.000000" stroke="#ffffff" stroke-linecap="round" stroke-linejoin="round" stroke-width="2.000000"
	d="
M282.500000,412.500000 
	C282.175812,417.922974 284.508484,422.857208 285.745270,427.940338 
	C286.260651,430.058472 286.352478,432.481293 287.500000,434.500000 
"/>
<path fill="none" opacity="1.000000" stroke="#ffffff" stroke-linecap="round" stroke-linejoin="round" stroke-width="2.000000"
	d="
M621.500000,352.500000 
	C618.641968,344.695221 614.276306,341.818542 606.519714,343.117706 
	C605.158752,343.345642 603.820618,343.231781 602.500000,343.500000 
"/>
<path fill="none" opacity="1.000000" stroke="#ffffff" stroke-linecap="round" stroke-linejoin="round" stroke-width="2.000000"
	d="
M170.500000,335.500000 
	C175.719177,341.728302 182.330292,345.172760 190.500000,345.500000 
"/>
<path fill="none" opacity="1.000000" stroke="#ffffff" stroke-linecap="round" stroke-linejoin="round" stroke-width="2.000000"
	d="
M190.500000,324.500000 
	C182.593994,324.745911 176.103394,328.137177 170.500000,333.500000 
"/>
<path fill="none" opacity="1.000000" stroke="#ffffff" stroke-linecap="round" stroke-linejoin="round" stroke-width="2.000000"
	d="
M426.500000,198.500000 
	C425.166656,198.500000 423.833344,198.502121 422.500000,198.499512 
	C420.564362,198.495728 418.677399,198.382477 417.470978,200.483322 
	C415.858002,203.292130 416.287903,206.143692 417.099701,208.971375 
	C417.207336,209.346390 418.666656,209.333328 419.500000,209.500000 
"/>
<path fill="none" opacity="1.000000" stroke="#ffffff" stroke-linecap="round" stroke-linejoin="round" stroke-width="2.000000"
	d="
M411.500000,139.000000 
	C415.851532,144.808777 419.456573,150.923798 419.500000,158.500000 
"/>
<path fill="none" opacity="1.000000" stroke="#ffffff" stroke-linecap="round" stroke-linejoin="round" stroke-width="2.000000"
	d="
M630.500000,167.500000 
	C629.193481,165.812408 627.886902,164.124817 626.418518,162.228165 
	C623.207947,164.299896 623.036377,166.652100 624.392944,170.042831 
	C626.059875,174.209366 629.618713,177.619171 629.500000,182.500000 
"/>
<path fill="none" opacity="1.000000" stroke="#ffffff" stroke-linecap="round" stroke-linejoin="round" stroke-width="4.000000"
	d="
M303.000000,332.500000 
	C304.907623,339.488464 309.200562,344.728790 315.565765,347.866608 
	C318.386414,349.257080 320.621094,350.735657 322.000000,353.500000 
"/>
<path fill="none" opacity="1.000000" stroke="#ffffff" stroke-linecap="round" stroke-linejoin="round" stroke-width="2.000000"
	d="
M542.500000,192.500000 
	C538.828308,199.366913 540.553833,205.963974 543.500000,212.500000 
"/>
<path fill="none" opacity="1.000000" stroke="#ffffff" stroke-linecap="round" stroke-linejoin="round" stroke-width="2.000000"
	d="
M588.500000,181.500000 
	C593.066345,185.619522 598.061035,189.092911 603.444519,192.099350 
	C605.141418,193.047012 606.671631,193.538971 608.500000,193.500000 
"/>
<path fill="none" opacity="1.000000" stroke="#ffffff" stroke-linecap="round" stroke-linejoin="round" stroke-width="3.000000"
	d="
M449.500000,274.500000 
	C445.038300,281.399475 439.281311,286.061646 430.500000,285.500000 
"/>
<path fill="none" opacity="1.000000" stroke="#ffffff" stroke-linecap="round" stroke-linejoin="round" stroke-width="3.000000"
	d="
M533.500000,85.500000 
	C535.119446,88.196182 536.059387,91.288307 538.486633,93.514557 
	C543.005676,97.659409 546.303162,103.463020 554.018860,102.687668 
	C556.617554,102.426514 559.544006,104.146675 561.500000,106.500000 
"/>
<path fill="none" opacity="1.000000" stroke="#ffffff" stroke-linecap="round" stroke-linejoin="round" stroke-width="2.000000"
	d="
M320.500000,54.500008 
	C313.833344,56.166672 307.166656,57.833340 300.500000,59.500008 
"/>
<path fill="none" opacity="1.000000" stroke="#ffffff" stroke-linecap="round" stroke-linejoin="round" stroke-width="2.000000"
	d="
M685.500000,321.500000 
	C685.333313,328.166656 685.166626,334.833344 685.000000,341.500000 
"/>
<path fill="none" opacity="1.000000" stroke="#ffffff" stroke-linecap="round" stroke-linejoin="round" stroke-width="3.000000"
	d="
M373.500000,510.500000 
	C367.261230,514.011536 367.034851,520.912781 364.570007,526.530701 
	C364.216553,527.336365 364.437592,528.408386 363.500000,529.000000 
"/>
<path fill="none" opacity="1.000000" stroke="#ffffff" stroke-linecap="round" stroke-linejoin="round" stroke-width="2.000000"
	d="
M236.500000,424.500000 
	C230.166672,426.833344 223.833328,429.166656 217.500000,431.500000 
"/>
<path fill="none" opacity="1.000000" stroke="#ffffff" stroke-linecap="round" stroke-linejoin="round" stroke-width="2.000000"
	d="
M512.500000,271.500000 
	C513.697815,277.787842 513.486023,284.149872 513.500000,290.500000 
"/>
<path fill="none" opacity="1.000000" stroke="#ffffff" stroke-linecap="round" stroke-linejoin="round" stroke-width="2.000000"
	d="
M460.500000,74.499992 
	C454.166656,77.499992 447.833344,80.499992 441.500000,83.499992 
"/>
<path fill="none" opacity="1.000000" stroke="#ffffff" stroke-linecap="round" stroke-linejoin="round" stroke-width="2.000000"
	d="
M577.500000,225.500000 
	C571.504211,228.536774 566.150330,232.246384 562.932556,238.465118 
	C562.363647,239.564636 562.745056,240.513062 562.500000,241.500000 
"/>
<path fill="none" opacity="1.000000" stroke="#ffffff" stroke-linecap="round" stroke-linejoin="round" stroke-width="3.000000"
	d="
M533.500000,112.500000 
	C537.328918,114.836632 539.914124,118.262917 540.893372,122.524498 
	C541.539734,125.337105 543.338196,126.428940 545.500000,127.500000 
"/>
<path fill="none" opacity="1.000000" stroke="#ffffff" stroke-linecap="round" stroke-linejoin="round" stroke-width="2.000000"
	d="
M405.500000,251.500000 
	C399.476257,251.594055 393.472656,251.325562 387.500000,250.500000 
"/>
<path fill="none" opacity="1.000000" stroke="#ffffff" stroke-linecap="round" stroke-linejoin="round" stroke-width="2.000000"
	d="
M410.500000,393.500000 
	C404.557983,392.122711 398.514954,392.564270 392.500000,392.500000 
"/>
<path fill="none" opacity="1.000000" stroke="#ffffff" stroke-linecap="round" stroke-linejoin="round" stroke-width="3.000000"
	d="
M492.500000,554.000000 
	C489.138763,556.752502 484.579834,556.649780 480.947357,558.915588 
	C478.670837,560.335632 476.615875,561.534180 476.500000,564.500000 
"/>
<path fill="none" opacity="1.000000" stroke="#ffffff" stroke-linecap="round" stroke-linejoin="round" stroke-width="2.000000"
	d="
M670.500000,271.500000 
	C670.833313,277.500000 671.166687,283.500000 671.500000,289.500000 
"/>
<path fill="none" opacity="1.000000" stroke="#ffffff" stroke-linecap="round" stroke-linejoin="round" stroke-width="2.000000"
	d="
M647.500000,166.500000 
	C651.402649,172.183701 654.837708,178.127182 657.500000,184.500000 
"/>
<path fill="none" opacity="1.000000" stroke="#ffffff" stroke-linecap="round" stroke-linejoin="round" stroke-width="2.000000"
	d="
M351.500000,768.500000 
	C357.126740,769.511963 362.811249,769.541931 368.500000,769.500000 
"/>
<path fill="none" opacity="1.000000" stroke="#ffffff" stroke-linecap="round" stroke-linejoin="round" stroke-width="2.000000"
	d="
M343.500000,402.500000 
	C341.957184,408.070862 339.984924,413.565979 340.500000,419.500000 
"/>
<path fill="none" opacity="1.000000" stroke="#ffffff" stroke-linecap="round" stroke-linejoin="round" stroke-width="2.000000"
	d="
M454.500000,734.500000 
	C453.159515,738.900146 451.943909,743.309875 452.477142,748.002625 
	C452.618866,749.250061 452.320312,750.575134 453.469482,751.469421 
	C452.515930,753.873169 450.008667,752.438354 448.500000,753.500000 
"/>
<path fill="none" opacity="1.000000" stroke="#ffffff" stroke-linecap="round" stroke-linejoin="round" stroke-width="2.000000"
	d="
M319.500000,762.500000 
	C325.025574,764.299500 330.593597,765.858398 336.500000,765.500000 
"/>
<path fill="none" opacity="1.000000" stroke="#ffffff" stroke-linecap="round" stroke-linejoin="round" stroke-width="2.000000"
	d="
M552.500000,734.500000 
	C548.500000,736.333313 544.376343,737.947327 540.556763,740.100647 
	C538.868225,741.052551 537.221497,741.182678 535.500000,741.500000 
"/>
<path fill="none" opacity="1.000000" stroke="#ffffff" stroke-linecap="round" stroke-linejoin="round" stroke-width="2.000000"
	d="
M69.500000,253.500000 
	C67.648758,259.365173 63.271057,264.190033 62.500000,270.500000 
"/>
<path fill="none" opacity="1.000000" stroke="#ffffff" stroke-linecap="round" stroke-linejoin="round" stroke-width="2.000000"
	d="
M354.500000,641.500000 
	C358.849365,645.134277 362.679626,649.495300 368.476288,651.086365 
	C369.153717,651.272339 369.816833,651.399292 370.500000,651.500000 
"/>
<path fill="none" opacity="1.000000" stroke="#ffffff" stroke-linecap="round" stroke-linejoin="round" stroke-width="2.000000"
	d="
M371.500000,385.500000 
	C371.901184,387.934113 369.812073,389.005859 368.436493,389.902557 
	C364.068451,392.750031 362.723389,396.604370 363.500000,401.500000 
"/>
<path fill="none" opacity="1.000000" stroke="#ffffff" stroke-linecap="round" stroke-linejoin="round" stroke-width="2.000000"
	d="
M602.500000,177.500000 
	C607.559082,181.478912 613.750061,184.627747 613.500000,192.500000 
"/>
<path fill="none" opacity="1.000000" stroke="#ffffff" stroke-linecap="round" stroke-linejoin="round" stroke-width="2.000000"
	d="
M298.500000,92.500000 
	C296.429291,92.445267 296.221130,94.563553 294.954926,95.534691 
	C298.190186,101.896896 304.979492,102.715111 310.500000,105.500000 
"/>
<path fill="none" opacity="1.000000" stroke="#ffffff" stroke-linecap="round" stroke-linejoin="round" stroke-width="2.000000"
	d="
M744.999939,426.500000 
	C744.833313,431.833344 744.666626,437.166656 744.499939,442.500000 
"/>
<path fill="none" opacity="1.000000" stroke="#ffffff" stroke-linecap="round" stroke-linejoin="round" stroke-width="2.000000"
	d="
M401.500000,76.500000 
	C405.336334,82.559883 411.300232,86.758133 415.500000,92.500000 
"/>
<path fill="none" opacity="1.000000" stroke="#ffffff" stroke-linecap="round" stroke-linejoin="round" stroke-width="2.000000"
	d="
M514.500000,295.500000 
	C518.750977,300.645081 523.446716,305.456635 526.500000,311.500000 
"/>
<path fill="none" opacity="1.000000" stroke="#ffffff" stroke-linecap="round" stroke-linejoin="round" stroke-width="2.000000"
	d="
M335.500000,36.500000 
	C329.904724,36.102970 324.754089,38.077309 319.500000,39.500000 
"/>
<path fill="none" opacity="1.000000" stroke="#ffffff" stroke-linecap="round" stroke-linejoin="round" stroke-width="2.000000"
	d="
M681.500000,355.500000 
	C682.399902,361.104156 678.903137,366.021332 679.000000,371.500000 
"/>
<path fill="none" opacity="1.000000" stroke="#ffffff" stroke-linecap="round" stroke-linejoin="round" stroke-width="2.000000"
	d="
M354.500000,357.500000 
	C350.033051,356.899445 346.911682,358.713867 344.413452,362.442017 
	C343.141418,364.340210 341.890991,366.557648 339.500000,367.500000 
"/>
<path fill="none" opacity="1.000000" stroke="#ffffff" stroke-linecap="round" stroke-linejoin="round" stroke-width="2.000000"
	d="
M224.500000,279.500000 
	C224.166168,284.854919 226.369781,289.800568 227.000000,295.000000 
"/>
<path fill="none" opacity="1.000000" stroke="#ffffff" stroke-linecap="round" stroke-linejoin="round" stroke-width="2.000000"
	d="
M365.500000,289.000000 
	C360.335419,289.154236 355.810791,285.468506 350.500000,286.500000 
"/>
<path fill="none" opacity="1.000000" stroke="#ffffff" stroke-linecap="round" stroke-linejoin="round" stroke-width="3.000000"
	d="
M468.000000,365.500000 
	C465.158478,370.156677 461.925934,374.611115 460.424286,380.252655 
	C461.781433,380.668030 463.140717,381.084015 464.500000,381.500000 
"/>
<path fill="none" opacity="1.000000" stroke="#ffffff" stroke-linecap="round" stroke-linejoin="round" stroke-width="2.000000"
	d="
M436.500000,499.500000 
	C436.549530,504.500000 437.620789,509.500000 436.500000,514.500000 
"/>
<path fill="none" opacity="1.000000" stroke="#ffffff" stroke-linecap="round" stroke-linejoin="round" stroke-width="2.000000"
	d="
M661.500000,316.500000 
	C661.429565,321.517517 661.897095,326.570923 660.500000,331.500000 
"/>
<path fill="none" opacity="1.000000" stroke="#ffffff" stroke-linecap="round" stroke-linejoin="round" stroke-width="2.000000"
	d="
M503.000000,344.500000 
	C502.833344,349.500000 502.666687,354.500000 502.500000,359.500000 
"/>
<path fill="none" opacity="1.000000" stroke="#ffffff" stroke-linecap="round" stroke-linejoin="round" stroke-width="2.000000"
	d="
M353.500000,587.500000 
	C351.058258,592.449402 348.162018,597.186707 346.500000,602.500000 
"/>
<path fill="none" opacity="1.000000" stroke="#ffffff" stroke-linecap="round" stroke-linejoin="round" stroke-width="2.000000"
	d="
M489.500000,404.500000 
	C493.659882,405.645294 493.367188,408.683380 491.895721,411.444427 
	C490.651215,413.779541 490.523041,416.064453 490.500000,418.500000 
"/>
<path fill="none" opacity="1.000000" stroke="#ffffff" stroke-linecap="round" stroke-linejoin="round" stroke-width="2.000000"
	d="
M328.500000,386.500000 
	C332.717163,388.109222 331.328186,391.346313 331.086517,394.506622 
	C330.826233,397.910858 328.637970,397.456940 326.500000,397.500000 
"/>
<path fill="none" opacity="1.000000" stroke="#ffffff" stroke-linecap="round" stroke-linejoin="round" stroke-width="2.000000"
	d="
M554.500000,299.500000 
	C554.071777,304.785645 556.553467,309.489319 557.500000,314.500000 
"/>
<path fill="none" opacity="1.000000" stroke="#ffffff" stroke-linecap="round" stroke-linejoin="round" stroke-width="2.000000"
	d="
M416.500000,75.500000 
	C420.166656,79.500000 423.817657,83.514595 427.512756,87.488144 
	C428.286102,88.319771 429.337219,88.655022 430.500000,88.500000 
"/>
<path fill="none" opacity="1.000000" stroke="#ffffff" stroke-linecap="round" stroke-linejoin="round" stroke-width="2.000000"
	d="
M394.500000,98.500000 
	C391.620819,98.604698 390.666687,96.153313 388.917633,94.592278 
	C386.190948,92.158684 384.660065,88.222305 380.500000,87.500000 
"/>
<path fill="none" opacity="1.000000" stroke="#ffffff" stroke-linecap="round" stroke-linejoin="round" stroke-width="2.000000"
	d="
M308.500000,371.500000 
	C304.976349,376.128510 299.306519,376.134583 294.500000,378.000000 
"/>
<path fill="none" opacity="1.000000" stroke="#ffffff" stroke-linecap="round" stroke-linejoin="round" stroke-width="2.000000"
	d="
M321.500000,691.500000 
	C326.339203,694.925232 330.202545,698.908081 329.500000,705.500000 
"/>
<path fill="none" opacity="1.000000" stroke="#ffffff" stroke-linecap="round" stroke-linejoin="round" stroke-width="3.000000"
	d="
M506.500000,125.500000 
	C506.668610,128.998718 508.035675,131.524277 511.464996,133.077286 
	C514.315613,134.368210 514.179993,138.441925 517.000000,140.000000 
"/>
<path fill="none" opacity="1.000000" stroke="#ffffff" stroke-linecap="round" stroke-linejoin="round" stroke-width="2.000000"
	d="
M161.500000,141.500000 
	C157.935379,146.001465 154.165970,150.356644 151.500000,155.500000 
"/>
<path fill="none" opacity="1.000000" stroke="#ffffff" stroke-linecap="round" stroke-linejoin="round" stroke-width="2.000000"
	d="
M78.500000,581.500000 
	C80.493362,586.551392 83.510048,591.018066 86.500000,595.500000 
"/>
<path fill="none" opacity="1.000000" stroke="#ffffff" stroke-linecap="round" stroke-linejoin="round" stroke-width="2.000000"
	d="
M317.500000,40.500000 
	C312.508606,39.984589 308.231079,42.800659 303.500000,43.500000 
"/>
<path fill="none" opacity="1.000000" stroke="#ffffff" stroke-linecap="round" stroke-linejoin="round" stroke-width="2.000000"
	d="
M365.500000,660.500000 
	C360.602478,658.237305 357.067719,653.589844 351.500000,652.500000 
"/>
<path fill="none" opacity="1.000000" stroke="#ffffff" stroke-linecap="round" stroke-linejoin="round" stroke-width="2.000000"
	d="
M755.500000,449.500000 
	C755.554199,454.194336 755.444885,458.877014 754.500000,463.500000 
"/>
<path fill="none" opacity="1.000000" stroke="#ffffff" stroke-linecap="round" stroke-linejoin="round" stroke-width="2.000000"
	d="
M736.000000,329.500000 
	C736.606140,334.251068 739.051758,338.607941 739.000000,343.500000 
"/>
<path fill="none" opacity="1.000000" stroke="#ffffff" stroke-linecap="round" stroke-linejoin="round" stroke-width="2.000000"
	d="
M671.500000,324.500000 
	C670.555115,329.122986 670.445801,333.805664 670.500000,338.500000 
"/>
<path fill="none" opacity="1.000000" stroke="#ffffff" stroke-linecap="round" stroke-linejoin="round" stroke-width="2.000000"
	d="
M368.500000,415.500000 
	C369.036560,420.265961 372.329102,424.441376 371.500000,429.500000 
"/>
<path fill="none" opacity="1.000000" stroke="#ffffff" stroke-linecap="round" stroke-linejoin="round" stroke-width="2.000000"
	d="
M598.500000,214.500000 
	C593.032532,214.631485 589.263184,218.725220 584.500000,220.500000 
"/>
<path fill="none" opacity="1.000000" stroke="#ffffff" stroke-linecap="round" stroke-linejoin="round" stroke-width="2.000000"
	d="
M441.500000,209.000000 
	C436.833344,209.166656 432.166656,209.333328 427.500000,209.500000 
"/>
<path fill="none" opacity="1.000000" stroke="#ffffff" stroke-linecap="round" stroke-linejoin="round" stroke-width="2.000000"
	d="
M49.500000,363.500000 
	C49.488392,368.189636 49.703217,372.895477 48.500000,377.500000 
"/>
<path fill="none" opacity="1.000000" stroke="#ffffff" stroke-linecap="round" stroke-linejoin="round" stroke-width="2.000000"
	d="
M744.500000,309.500000 
	C745.199341,314.231079 748.015442,318.508606 747.500000,323.500000 
"/>
<path fill="none" opacity="1.000000" stroke="#ffffff" stroke-linecap="round" stroke-linejoin="round" stroke-width="2.000000"
	d="
M140.500000,437.500000 
	C142.451096,442.575562 145.555954,446.991821 148.500000,451.500000 
"/>
<path fill="none" opacity="1.000000" stroke="#ffffff" stroke-linecap="round" stroke-linejoin="round" stroke-width="2.000000"
	d="
M638.500000,222.500000 
	C635.598572,226.814484 632.964233,231.529648 626.500000,230.500000 
"/>
<path fill="none" opacity="1.000000" stroke="#ffffff" stroke-linecap="round" stroke-linejoin="round" stroke-width="2.000000"
	d="
M427.500000,585.500000 
	C426.870850,592.241699 425.552643,594.124878 420.500000,595.500000 
"/>
<path fill="none" opacity="1.000000" stroke="#ffffff" stroke-linecap="round" stroke-linejoin="round" stroke-width="2.000000"
	d="
M77.500000,265.500000 
	C76.981117,270.274780 73.975830,274.093262 72.500000,278.500000 
"/>
<path fill="none" opacity="1.000000" stroke="#ffffff" stroke-linecap="round" stroke-linejoin="round" stroke-width="2.000000"
	d="
M62.500000,547.500000 
	C62.311054,552.547058 66.702568,555.832336 67.500000,560.500000 
"/>
<path fill="none" opacity="1.000000" stroke="#ffffff" stroke-linecap="round" stroke-linejoin="round" stroke-width="2.000000"
	d="
M481.500000,441.500000 
	C479.833313,445.833344 478.166656,450.166656 476.500000,454.500000 
"/>
<path fill="none" opacity="1.000000" stroke="#ffffff" stroke-linecap="round" stroke-linejoin="round" stroke-width="3.000000"
	d="
M354.500000,529.000000 
	C355.000000,529.000000 355.500000,528.998840 356.000000,529.000122 
	C362.500000,529.016602 362.500000,529.016724 362.500000,535.500000 
"/>
<path fill="none" opacity="1.000000" stroke="#ffffff" stroke-linecap="round" stroke-linejoin="round" stroke-width="2.000000"
	d="
M396.500000,527.500000 
	C398.632660,531.571960 399.851349,535.854797 399.500000,540.500000 
"/>
<path fill="none" opacity="1.000000" stroke="#ffffff" stroke-linecap="round" stroke-linejoin="round" stroke-width="2.000000"
	d="
M296.500000,517.500000 
	C292.093262,516.024170 288.274780,513.018860 283.500000,512.500000 
"/>
<path fill="none" opacity="1.000000" stroke="#ffffff" stroke-linecap="round" stroke-linejoin="round" stroke-width="2.000000"
	d="
M641.500000,673.500000 
	C636.746887,676.670593 633.876587,682.066223 628.500000,684.500000 
"/>
<path fill="none" opacity="1.000000" stroke="#ffffff" stroke-linecap="round" stroke-linejoin="round" stroke-width="2.000000"
	d="
M587.500000,344.500000 
	C591.833313,345.890717 596.166687,345.890717 600.500000,344.500000 
"/>
<path fill="none" opacity="1.000000" stroke="#ffffff" stroke-linecap="round" stroke-linejoin="round" stroke-width="2.000000"
	d="
M660.500000,189.500000 
	C661.515320,194.083862 665.585083,197.492920 665.500000,202.500000 
"/>
<path fill="none" opacity="1.000000" stroke="#ffffff" stroke-linecap="round" stroke-linejoin="round" stroke-width="3.000000"
	d="
M513.000000,73.500000 
	C511.674500,68.667946 507.667450,67.475121 503.500000,66.500000 
"/>
<path fill="none" opacity="1.000000" stroke="#ffffff" stroke-linecap="round" stroke-linejoin="round" stroke-width="2.000000"
	d="
M306.500000,745.500000 
	C302.345337,745.118652 298.807922,742.268372 294.500000,742.500000 
"/>
<path fill="none" opacity="1.000000" stroke="#ffffff" stroke-linecap="round" stroke-linejoin="round" stroke-width="2.000000"
	d="
M565.500000,515.499939 
	C561.500000,518.166626 557.500000,520.833313 553.500000,523.499939 
"/>
<path fill="none" opacity="1.000000" stroke="#ffffff" stroke-linecap="round" stroke-linejoin="round" stroke-width="2.000000"
	d="
M554.500000,504.500000 
	C550.500000,507.166656 546.500000,509.833344 542.500000,512.500000 
"/>
<path fill="none" opacity="1.000000" stroke="#ffffff" stroke-linecap="round" stroke-linejoin="round" stroke-width="3.000000"
	d="
M321.500000,319.500000 
	C319.359619,322.951355 316.204559,325.941467 316.500000,330.500000 
"/>
<path fill="none" opacity="1.000000" stroke="#ffffff" stroke-linecap="round" stroke-linejoin="round" stroke-width="2.000000"
	d="
M432.500000,428.500000 
	C431.064301,433.446564 425.803223,435.263245 423.500000,439.500000 
"/>
<path fill="none" opacity="1.000000" stroke="#ffffff" stroke-linecap="round" stroke-linejoin="round" stroke-width="2.000000"
	d="
M417.500000,445.500000 
	C413.467957,447.664246 411.658386,452.884460 406.500000,453.500000 
"/>
<path fill="none" opacity="1.000000" stroke="#ffffff" stroke-linecap="round" stroke-linejoin="round" stroke-width="2.000000"
	d="
M449.500000,655.500000 
	C445.966095,657.198486 442.692780,659.613464 438.500000,659.500000 
"/>
<path fill="none" opacity="1.000000" stroke="#ffffff" stroke-linecap="round" stroke-linejoin="round" stroke-width="2.000000"
	d="
M256.500000,265.500000 
	C252.787537,265.670441 249.136688,265.163025 245.500000,264.500000 
"/>
<path fill="none" opacity="1.000000" stroke="#ffffff" stroke-linecap="round" stroke-linejoin="round" stroke-width="2.000000"
	d="
M491.500000,196.000000 
	C493.708221,199.166718 494.897247,202.721680 495.500000,206.500000 
"/>
<path fill="none" opacity="1.000000" stroke="#ffffff" stroke-linecap="round" stroke-linejoin="round" stroke-width="2.000000"
	d="
M680.500000,245.500000 
	C681.000000,249.000000 681.500000,252.500000 682.000000,256.000000 
"/>
<path fill="none" opacity="1.000000" stroke="#ffffff" stroke-linecap="round" stroke-linejoin="round" stroke-width="2.000000"
	d="
M299.500000,71.500008 
	C296.500000,73.166672 293.500000,74.833336 290.500000,76.500008 
"/>
<path fill="none" opacity="1.000000" stroke="#ffffff" stroke-linecap="round" stroke-linejoin="round" stroke-width="2.000000"
	d="
M296.500000,316.500000 
	C291.864410,317.515533 292.567291,321.200317 292.500000,324.500000 
"/>
<path fill="none" opacity="1.000000" stroke="#ffffff" stroke-linecap="round" stroke-linejoin="round" stroke-width="2.000000"
	d="
M611.500000,218.500000 
	C613.516113,222.483856 617.221252,224.778732 620.500000,227.500000 
"/>
<path fill="none" opacity="1.000000" stroke="#ffffff" stroke-linecap="round" stroke-linejoin="round" stroke-width="3.000000"
	d="
M500.500000,532.000000 
	C503.596039,534.264771 506.003326,537.781799 510.500000,537.500000 
"/>
<path fill="none" opacity="1.000000" stroke="#ffffff" stroke-linecap="round" stroke-linejoin="round" stroke-width="2.000000"
	d="
M395.500000,495.500000 
	C391.166199,496.499695 392.602997,501.106049 390.500000,503.500000 
"/>
<path fill="none" opacity="1.000000" stroke="#ffffff" stroke-linecap="round" stroke-linejoin="round" stroke-width="2.000000"
	d="
M549.500000,180.500000 
	C549.500000,180.333328 549.572937,180.092743 549.489624,180.010498 
	C542.792358,173.400848 544.795471,173.950104 536.034485,178.565491 
	C535.184753,179.013138 534.527466,179.652069 533.500000,179.500000 
"/>
<path fill="none" opacity="1.000000" stroke="#ffffff" stroke-linecap="round" stroke-linejoin="round" stroke-width="3.000000"
	d="
M308.500000,369.500000 
	C308.138977,365.072083 304.669281,364.996307 301.500000,364.500000 
"/>
<path fill="none" opacity="1.000000" stroke="#ffffff" stroke-linecap="round" stroke-linejoin="round" stroke-width="3.000000"
	d="
M668.000000,405.500000 
	C666.636902,408.423615 664.778809,411.154724 664.500000,414.500000 
"/>
<path fill="none" opacity="1.000000" stroke="#ffffff" stroke-linecap="round" stroke-linejoin="round" stroke-width="2.000000"
	d="
M207.499985,437.499969 
	C206.999985,437.833313 206.479965,438.140381 206.003006,438.503937 
	C199.406586,443.531128 199.427048,443.517944 204.975510,450.519409 
	C205.655151,451.377045 206.000000,452.500000 206.500000,453.500000 
"/>
<path fill="none" opacity="1.000000" stroke="#ffffff" stroke-linecap="round" stroke-linejoin="round" stroke-width="3.000000"
	d="
M502.500000,550.000000 
	C499.680817,551.631592 496.810608,553.132019 493.500000,553.500000 
"/>
<path fill="none" opacity="1.000000" stroke="#ffffff" stroke-linecap="round" stroke-linejoin="round" stroke-width="2.000000"
	d="
M316.500000,338.500000 
	C316.111176,341.580231 318.409424,344.361908 317.500000,347.500000 
"/>
<path fill="none" opacity="1.000000" stroke="#ffffff" stroke-linecap="round" stroke-linejoin="round" stroke-width="2.000000"
	d="
M480.000000,199.500000 
	C477.643890,202.194885 474.452118,201.338181 471.500000,201.500000 
"/>
<path fill="none" opacity="1.000000" stroke="#ffffff" stroke-linecap="round" stroke-linejoin="round" stroke-width="3.000000"
	d="
M481.000000,59.000000 
	C478.304993,61.656769 475.768921,64.493683 472.500000,66.500000 
"/>
<path fill="none" opacity="1.000000" stroke="#ffffff" stroke-linecap="round" stroke-linejoin="round" stroke-width="2.000000"
	d="
M293.500000,77.000000 
	C295.684021,79.377792 298.875732,78.531029 301.500000,79.500000 
"/>
<path fill="none" opacity="1.000000" stroke="#ffffff" stroke-linecap="round" stroke-linejoin="round" stroke-width="2.000000"
	d="
M209.500000,702.500000 
	C212.000000,703.666687 214.500000,704.833313 217.000000,706.000000 
"/>
<path fill="none" opacity="1.000000" stroke="#ffffff" stroke-linecap="round" stroke-linejoin="round" stroke-width="2.000000"
	d="
M500.500000,271.500000 
	C500.299194,273.997711 500.986786,276.554688 500.000000,279.000000 
"/>
<path fill="none" opacity="1.000000" stroke="#ffffff" stroke-linecap="round" stroke-linejoin="round" stroke-width="3.000000"
	d="
M254.500000,722.500000 
	C252.803162,722.899414 251.798767,725.606995 249.500000,724.000000 
"/>
<path fill="none" opacity="1.000000" stroke="#ffffff" stroke-linecap="round" stroke-linejoin="round" stroke-width="2.000000"
	d="
M466.500000,528.500000 
	C463.993103,530.706604 465.139374,533.826538 464.500000,536.500000 
"/>
<path fill="none" opacity="1.000000" stroke="#ffffff" stroke-linecap="round" stroke-linejoin="round" stroke-width="2.000000"
	d="
M679.000000,240.500000 
	C678.890869,241.943954 679.219910,243.278351 680.000000,244.500000 
"/>
<path fill="none" opacity="1.000000" stroke="#ffffff" stroke-linecap="round" stroke-linejoin="round" stroke-width="3.000000"
	d="
M477.500000,56.500000 
	C479.595062,56.619709 481.258118,58.467575 483.500000,58.000000 
"/>
<path fill="none" opacity="1.000000" stroke="#ffffff" stroke-linecap="round" stroke-linejoin="round" stroke-width="2.000000"
	d="
M513.500000,137.000000 
	C512.166687,136.833328 510.833344,136.666656 509.500000,136.500000 
"/>
</svg>