<?xml version="1.0" standalone="no"?>
<!DOCTYPE svg PUBLIC "-//W3C//DTD SVG 20010904//EN"
 "http://www.w3.org/TR/2001/REC-SVG-20010904/DTD/svg10.dtd">
<svg version="1.0" xmlns="http://www.w3.org/2000/svg"
 width="800.000000pt" height="800.000000pt" viewBox="0 0 800.000000 800.000000"
 preserveAspectRatio="xMidYMid meet">
<metadata>
Created by potrace 1.14, written by Peter Selinger 2001-2017
</metadata>
<g transform="translate(0.000000,800.000000) scale(0.100000,-0.100000)"
fill="#000000" stroke="none">
<path d="M3654 7687 c-8 -4 -14 -5 -14 -1 0 3 -6 2 -12 -3 -7 -5 -34 -9 -60
-8 -27 0 -48 -3 -48 -7 0 -4 -8 -7 -17 -8 -70 -3 -100 -7 -113 -15 -8 -5 -34
-10 -57 -10 -23 0 -45 -4 -49 -8 -4 -4 -17 -7 -29 -7 -11 0 -26 -5 -32 -11 -6
-6 -30 -12 -52 -13 -22 -1 -43 -5 -47 -9 -4 -4 -17 -7 -28 -7 -12 0 -30 -7
-40 -15 -10 -8 -23 -12 -27 -9 -5 2 -16 1 -26 -4 -21 -11 -80 -31 -105 -37 -9
-2 -27 -9 -40 -16 -13 -7 -32 -14 -42 -16 -11 -2 -25 -8 -32 -14 -7 -6 -18 -8
-24 -4 -5 3 -10 2 -10 -3 0 -10 -140 -82 -159 -82 -6 0 -11 -4 -11 -10 0 -5
-7 -10 -15 -10 -7 0 -19 -8 -24 -17 -6 -10 -11 -12 -11 -6 0 9 -10 7 -32 -7
-17 -10 -36 -16 -41 -13 -6 3 -7 1 -3 -5 4 -7 -4 -17 -21 -24 -15 -7 -31 -17
-35 -23 -4 -5 -10 -6 -14 -3 -4 4 -15 -4 -26 -17 -11 -14 -26 -25 -35 -25 -8
0 -24 -10 -35 -22 -11 -13 -17 -16 -13 -8 4 8 -1 6 -9 -4 -9 -11 -16 -17 -16
-13 0 4 -9 -2 -20 -13 -11 -11 -24 -20 -30 -20 -5 0 -22 -12 -37 -27 -16 -16
-34 -29 -40 -30 -7 -2 -22 -12 -33 -23 -11 -11 -25 -20 -30 -20 -5 0 -10 -7
-10 -15 0 -8 -5 -15 -11 -15 -5 0 -7 -4 -4 -10 4 -6 -1 -7 -11 -3 -12 4 -15 3
-10 -5 4 -7 1 -12 -8 -12 -9 0 -38 -22 -65 -50 -27 -27 -55 -50 -62 -50 -7 0
-10 -3 -6 -6 8 -8 -16 -33 -25 -27 -5 2 -8 -1 -8 -6 0 -13 -107 -121 -113
-115 -2 3 -10 -10 -17 -27 -8 -17 -32 -49 -54 -70 -22 -22 -36 -39 -31 -39 6
0 2 -5 -7 -11 -10 -5 -18 -14 -18 -20 0 -5 -10 -20 -23 -32 -13 -12 -26 -30
-30 -40 -4 -11 -12 -15 -18 -11 -7 4 -9 3 -6 -3 4 -6 -9 -36 -29 -66 -20 -31
-35 -59 -34 -63 1 -4 -5 -11 -14 -16 -9 -5 -14 -13 -11 -19 4 -5 -1 -12 -9
-15 -9 -3 -13 -10 -10 -15 3 -5 0 -9 -5 -9 -6 0 -11 -5 -11 -10 0 -6 -11 -28
-25 -50 -14 -22 -22 -40 -19 -40 4 0 1 -7 -6 -15 -7 -8 -9 -15 -4 -15 5 0 2
-5 -6 -10 -8 -5 -15 -13 -15 -17 -1 -4 -11 -27 -23 -50 -12 -24 -20 -43 -17
-43 3 0 -1 -13 -9 -29 -9 -16 -12 -31 -9 -35 4 -3 2 -6 -4 -6 -15 0 -36 -50
-20 -50 7 0 4 -7 -7 -15 -10 -7 -15 -19 -11 -24 3 -6 0 -13 -7 -16 -8 -3 -14
-18 -13 -33 0 -15 -5 -38 -12 -52 -7 -14 -13 -33 -13 -42 0 -9 -5 -20 -11 -24
-6 -3 -9 -17 -6 -30 2 -13 -1 -25 -9 -28 -7 -3 -11 -13 -10 -23 2 -10 -3 -33
-11 -52 -8 -18 -12 -36 -9 -38 3 -3 1 -14 -4 -23 -5 -10 -12 -40 -15 -66 -2
-26 -8 -50 -12 -53 -5 -3 -8 -39 -8 -80 0 -40 -5 -75 -10 -77 -13 -5 -12 -514
0 -534 5 -8 10 -46 11 -84 1 -37 5 -71 10 -75 5 -3 9 -22 9 -41 0 -19 4 -44 9
-54 7 -17 16 -70 19 -113 0 -7 4 -13 9 -13 4 0 8 -9 8 -19 0 -11 4 -22 9 -25
5 -4 8 -14 6 -24 -1 -9 4 -27 11 -39 8 -13 10 -23 4 -23 -6 0 -5 -9 2 -25 6
-14 15 -25 20 -25 5 0 6 -5 3 -10 -4 -6 0 -22 9 -35 10 -16 12 -26 5 -30 -7
-5 -6 -12 3 -23 24 -31 39 -63 33 -72 -4 -6 -1 -10 5 -10 6 0 8 -5 5 -10 -3
-6 1 -13 10 -16 12 -5 13 -9 4 -20 -6 -8 -7 -14 -2 -14 9 0 35 -46 35 -60 0
-3 3 -9 7 -15 5 -5 11 -22 15 -37 3 -15 16 -37 28 -48 12 -11 18 -20 13 -20
-5 0 2 -11 15 -25 15 -16 19 -25 10 -25 -9 0 -8 -4 5 -14 11 -8 16 -19 12 -30
-4 -9 -3 -15 2 -12 8 5 22 -16 25 -35 1 -3 9 -13 19 -23 9 -10 17 -24 17 -32
0 -8 8 -14 17 -14 9 0 13 -3 10 -7 -4 -3 -2 -12 4 -20 6 -7 8 -13 5 -13 -4 0
5 -11 19 -25 14 -14 25 -30 25 -35 0 -5 10 -19 23 -32 12 -13 28 -35 36 -50 8
-16 18 -28 23 -28 5 0 6 -4 3 -10 -3 -5 1 -10 10 -10 9 0 13 -4 10 -10 -3 -5
3 -17 14 -27 11 -9 18 -20 15 -25 -3 -4 -1 -8 4 -8 14 0 62 -47 55 -54 -4 -3
2 -6 11 -6 12 0 16 -5 12 -15 -3 -8 -1 -15 4 -15 6 0 10 6 11 13 0 6 4 2 9
-10 5 -13 14 -23 19 -23 5 0 12 -9 16 -20 3 -11 9 -19 13 -17 9 2 62 -51 62
-63 0 -6 7 -10 16 -10 10 0 14 -6 10 -15 -3 -8 -1 -15 4 -15 6 0 10 6 11 13 0
6 4 2 9 -10 5 -13 14 -23 19 -23 5 0 13 -9 16 -20 4 -11 10 -18 14 -15 5 2 17
-6 27 -20 10 -13 22 -21 27 -18 5 3 26 -14 47 -37 21 -23 42 -40 48 -36 6 3
13 -3 17 -14 4 -11 11 -18 16 -15 5 4 12 -1 15 -9 3 -8 14 -18 24 -21 27 -9
61 -41 52 -51 -4 -4 1 -2 11 5 15 12 17 11 17 -4 0 -10 3 -15 7 -12 3 4 17 -3
30 -15 13 -12 23 -18 23 -13 0 4 12 -4 26 -18 15 -15 30 -24 35 -21 5 3 12 -2
15 -10 3 -9 12 -16 19 -16 7 0 18 -7 25 -15 7 -9 19 -14 26 -11 8 3 20 -5 29
-17 8 -12 15 -16 15 -9 0 7 5 10 10 7 6 -4 8 -11 5 -16 -4 -5 2 -9 13 -9 25 0
82 -29 82 -41 0 -6 4 -8 10 -4 9 6 50 -13 61 -29 4 -5 11 -6 17 -2 6 3 12 2
14 -4 1 -5 14 -11 28 -12 14 -2 31 -9 38 -16 8 -7 17 -10 22 -7 5 3 10 1 12
-5 1 -5 14 -11 28 -12 14 -2 31 -9 39 -16 8 -8 22 -11 32 -9 11 3 19 2 19 -2
0 -8 116 -47 162 -55 15 -2 31 -7 36 -10 5 -3 31 -8 58 -12 27 -3 54 -9 59
-13 15 -11 82 -6 98 7 7 7 18 8 22 4 5 -4 5 -2 1 5 -3 6 -2 14 4 18 6 4 8 11
4 16 -3 5 -10 7 -15 4 -8 -6 -13 9 -10 28 1 5 -3 6 -8 3 -5 -4 -11 -1 -13 6
-2 6 -23 12 -45 13 -23 1 -47 6 -55 11 -7 6 -22 11 -33 12 -21 2 -60 9 -60 12
0 2 -14 5 -54 14 -12 3 -29 10 -35 16 -7 5 -15 8 -18 5 -3 -3 -22 2 -44 12
-21 9 -41 17 -44 18 -3 1 -21 5 -40 9 -19 5 -39 11 -45 14 -5 4 -17 7 -25 9
-8 1 -16 7 -18 13 -2 5 -9 7 -14 4 -6 -4 -17 1 -25 11 -7 11 -13 16 -13 12 0
-4 -9 -3 -21 3 -11 6 -30 13 -42 16 -12 2 -23 8 -25 14 -2 6 -7 8 -12 5 -5 -3
-15 2 -24 11 -9 8 -20 12 -26 9 -6 -3 -13 1 -16 9 -3 9 -10 14 -14 11 -5 -3
-16 3 -26 12 -10 10 -20 18 -23 18 -3 0 -5 4 -3 8 1 5 -2 6 -8 2 -5 -3 -13 1
-16 9 -5 12 -10 13 -26 5 -12 -6 -18 -7 -14 -1 3 5 -1 15 -9 22 -12 10 -15 10
-15 -1 -1 -8 -6 -4 -13 9 -9 16 -16 19 -24 11 -8 -8 -17 -3 -34 20 -12 16 -26
28 -31 25 -4 -3 -11 2 -14 10 -3 9 -10 13 -15 10 -5 -3 -9 1 -9 9 0 8 -8 14
-17 13 -10 0 -17 5 -15 12 1 8 -2 11 -8 7 -5 -3 -10 -1 -10 5 0 6 -4 9 -9 5
-5 -3 -16 1 -24 9 -8 8 -17 12 -21 9 -3 -4 -6 1 -6 10 0 8 -9 19 -20 22 -11 3
-20 11 -20 17 0 5 -7 7 -16 4 -8 -3 -12 -2 -9 4 3 5 -6 17 -20 26 -13 9 -22
21 -18 27 3 5 1 7 -5 3 -6 -3 -18 1 -26 10 -9 8 -16 12 -16 8 0 -4 -9 5 -21
20 -11 14 -28 26 -37 26 -15 0 -15 2 -2 10 13 8 12 10 -2 10 -10 0 -18 5 -18
10 0 6 -6 10 -14 10 -8 0 -18 4 -21 10 -4 6 1 7 12 4 11 -4 8 1 -8 12 -35 26
-68 61 -63 67 3 3 -8 11 -25 18 -20 9 -26 16 -18 21 8 5 6 8 -5 8 -10 0 -18 5
-18 10 0 6 -6 10 -14 10 -8 0 -18 4 -21 10 -4 6 1 7 12 4 10 -4 1 6 -20 20
-21 15 -35 31 -32 37 4 5 0 12 -9 15 -8 3 -12 12 -9 20 3 9 0 14 -7 12 -17 -4
-22 33 -7 51 9 12 9 13 0 7 -7 -4 -13 -3 -13 2 0 6 11 13 25 16 17 4 22 11 18
22 -3 9 0 14 8 12 8 -2 13 3 11 11 -2 9 3 11 14 7 12 -5 15 -2 10 9 -3 9 -2
13 4 10 6 -3 10 -1 10 4 0 6 7 11 16 11 9 0 12 5 8 12 -5 7 -3 8 7 2 8 -4 20
-9 28 -10 14 -3 57 -44 45 -44 -3 0 -1 -6 5 -13 6 -8 9 -16 6 -19 -3 -2 6 -11
20 -18 14 -7 25 -17 25 -22 0 -5 5 -6 10 -3 5 3 10 -1 10 -9 0 -9 5 -16 11
-16 5 0 7 -5 3 -12 -4 -6 -3 -8 3 -5 6 4 19 -1 29 -9 10 -9 14 -13 7 -10 -6 4
-15 1 -19 -5 -4 -7 -3 -9 4 -5 6 3 13 2 17 -4 4 -6 10 -8 15 -5 4 3 11 -7 14
-20 4 -14 11 -23 16 -20 6 3 10 1 10 -5 0 -6 5 -8 10 -5 6 3 10 -1 10 -9 0 -8
11 -23 25 -34 13 -11 21 -23 17 -27 -4 -5 -2 -5 4 -2 6 4 20 -1 30 -9 10 -9
14 -13 7 -10 -6 4 -15 1 -19 -5 -4 -7 -3 -9 4 -5 6 3 13 2 17 -4 4 -6 10 -8
15 -5 4 3 11 -7 14 -20 4 -14 11 -23 16 -20 6 3 10 1 10 -6 0 -7 3 -9 7 -6 3
4 12 -2 20 -13 15 -21 39 -29 27 -8 -4 7 -3 8 5 4 6 -4 9 -12 6 -17 -4 -5 2
-12 11 -16 27 -10 54 -35 48 -45 -3 -4 2 -5 10 -2 9 3 16 1 16 -6 0 -6 4 -9 9
-5 6 3 13 -1 18 -9 4 -8 15 -16 23 -18 8 -2 21 -11 29 -22 10 -13 16 -15 21
-6 6 9 10 6 15 -9 5 -18 9 -20 21 -10 8 6 15 9 15 5 1 -3 2 -12 3 -18 1 -7 7
-12 14 -11 7 2 12 -4 12 -12 0 -8 6 -12 14 -9 7 3 21 -2 30 -11 11 -12 16 -13
16 -3 0 7 7 2 16 -10 8 -12 19 -20 24 -17 5 3 15 -2 24 -11 9 -8 20 -12 26 -9
5 3 10 0 10 -8 0 -8 6 -15 13 -14 39 1 58 -4 51 -15 -4 -7 -3 -8 5 -4 6 4 19
0 28 -9 13 -13 18 -14 24 -3 5 7 9 9 9 3 0 -13 50 -36 61 -29 5 3 9 -1 9 -8 0
-8 8 -15 18 -15 55 -6 68 -9 73 -16 3 -5 15 -10 25 -12 10 -2 19 -4 19 -5 0
-1 9 -3 20 -5 11 -2 27 -5 35 -8 8 -2 33 -7 55 -12 22 -4 44 -10 50 -13 12 -8
36 -11 110 -16 67 -5 85 3 103 49 16 38 24 138 11 130 -5 -4 -12 1 -15 9 -3 9
-12 16 -20 16 -8 0 -14 7 -14 15 0 8 -7 15 -15 15 -9 0 -12 6 -8 15 3 10 1 15
-7 13 -6 -2 -17 6 -23 17 -7 11 -18 24 -25 28 -7 5 -10 12 -7 18 4 5 -2 9 -11
9 -10 0 -14 3 -11 7 4 3 -1 12 -11 20 -10 9 -11 11 -2 7 8 -4 0 7 -18 25 -17
18 -30 36 -27 41 3 4 -2 11 -11 14 -8 3 -12 10 -9 16 3 5 1 10 -5 10 -7 0 -10
7 -6 15 3 8 0 14 -6 12 -6 -1 -16 13 -22 32 -7 18 -19 39 -29 46 -9 6 -14 15
-11 18 3 3 -3 12 -15 19 -22 14 -30 34 -8 23 6 -4 5 -1 -4 7 -9 7 -15 21 -13
31 1 9 -4 17 -12 17 -9 0 -12 5 -8 11 3 6 2 14 -4 18 -6 3 -12 13 -14 21 -2 8
-9 21 -16 28 -7 8 -10 17 -7 22 3 4 -2 13 -10 20 -8 7 -15 21 -15 31 0 10 -5
21 -10 24 -6 4 -7 11 -4 17 4 6 1 14 -7 18 -12 8 -16 19 -23 67 -1 12 -7 28
-13 35 -8 11 -17 37 -38 108 -1 3 -7 17 -12 31 -6 14 -14 39 -17 55 -3 16 -8
43 -12 59 -10 49 -11 69 -2 88 5 10 13 15 18 12 5 -3 11 -1 15 4 3 5 14 8 25
6 11 -2 20 -1 20 3 0 4 8 8 18 9 18 1 57 10 57 13 0 1 9 3 20 5 11 2 30 6 43
9 21 6 51 13 82 21 8 2 16 4 18 5 1 2 5 3 10 4 16 2 51 46 41 51 -5 4 -7 11
-4 16 4 5 -1 9 -9 9 -9 0 -16 5 -16 11 0 10 -29 8 -90 -7 -14 -3 -32 -7 -40
-8 -8 -1 -23 -6 -33 -10 -10 -5 -31 -9 -47 -10 -16 0 -31 -5 -34 -11 -2 -5
-19 -10 -37 -10 -19 0 -41 -6 -49 -14 -10 -9 -15 -10 -18 -2 -2 6 -7 9 -12 6
-5 -3 -14 1 -22 8 -27 27 -56 38 -65 25 -7 -12 -9 -18 -16 -53 -5 -22 -12 -26
-48 -27 -18 -1 -42 -9 -53 -19 -14 -14 -23 -16 -37 -8 -13 6 -19 6 -19 -1 0
-5 -7 -10 -16 -10 -9 0 -12 -5 -8 -12 6 -10 4 -10 -8 0 -12 9 -17 10 -20 1 -2
-6 -16 -12 -31 -12 -15 -1 -27 -5 -27 -9 0 -5 -3 -7 -7 -7 -22 4 -33 -2 -27
-13 6 -10 5 -10 -8 0 -12 10 -18 10 -27 -1 -7 -9 -22 -12 -38 -9 -19 4 -24 2
-18 -8 5 -9 4 -11 -4 -6 -6 4 -23 1 -36 -8 -14 -9 -26 -12 -30 -6 -4 6 -13 5
-25 -2 -10 -7 -17 -15 -15 -18 2 -4 -6 -6 -18 -6 -14 1 -21 -4 -19 -13 3 -12
0 -12 -12 -1 -13 10 -16 10 -16 0 0 -8 -8 -10 -21 -7 -13 3 -22 0 -26 -10 -5
-12 -7 -12 -14 -1 -7 10 -9 9 -9 -4 0 -11 -8 -18 -19 -18 -11 0 -21 -5 -23
-11 -3 -9 -21 -15 -51 -18 -4 -1 -17 -12 -29 -26 -11 -13 -25 -22 -30 -19 -5
3 -17 -3 -27 -15 -14 -16 -20 -18 -30 -8 -10 9 -12 9 -9 -3 5 -24 -40 -21 -48
4 -4 11 -14 27 -23 34 -9 8 -10 11 -3 7 18 -9 15 10 -5 26 -14 12 -16 12 -8 0
5 -9 4 -12 -3 -8 -5 4 -8 17 -4 29 4 16 2 20 -10 15 -12 -4 -15 0 -11 16 4 18
3 20 -7 7 -10 -12 -11 -11 -7 8 3 12 1 20 -4 16 -5 -3 -9 2 -9 10 0 9 -6 16
-12 16 -9 0 -8 4 2 10 12 8 12 10 1 10 -8 0 -11 7 -8 19 3 11 -5 30 -19 46
-27 31 -30 39 -12 30 7 -4 6 0 -4 7 -12 11 -14 18 -6 32 8 14 7 17 -1 12 -6
-4 -11 -2 -11 3 0 20 -2 26 -10 36 -5 6 -11 24 -14 40 -3 15 -11 32 -18 37
-10 6 -10 8 2 8 13 0 13 1 0 10 -8 5 -11 10 -6 10 5 0 3 7 -4 15 -7 8 -10 22
-6 30 3 9 2 13 -4 10 -6 -3 -10 3 -10 14 0 10 -6 22 -12 24 -10 4 -10 6 0 6
10 1 9 7 -2 30 -9 16 -12 31 -9 35 4 3 0 6 -8 6 -11 0 -11 2 1 10 8 5 10 10 4
10 -6 0 -12 15 -12 33 -3 44 -6 60 -16 76 -7 10 -5 12 3 6 10 -6 11 -3 1 14
-6 12 -9 27 -7 34 2 7 -3 21 -12 31 -13 16 -13 18 -1 11 13 -8 13 -7 1 8 -7 9
-11 17 -8 17 3 0 1 16 -3 34 -4 19 -5 38 -2 41 3 3 5 24 4 48 -6 183 -2 432 8
435 8 3 8 8 0 17 -7 9 -6 16 5 25 12 10 13 16 4 26 -8 10 -8 14 -1 14 8 0 8 8
3 22 -6 16 -3 31 8 48 13 20 14 23 1 15 -13 -8 -13 -7 -1 8 7 9 11 26 8 37 -3
11 -1 20 5 20 6 0 8 9 5 20 -3 14 0 20 10 20 12 0 13 3 5 13 -8 9 -7 20 3 40
8 15 10 29 4 32 -5 4 -2 17 7 30 9 13 12 30 8 36 -5 8 -2 10 8 7 11 -5 14 0
10 18 -2 13 0 24 6 24 5 0 9 8 8 18 0 10 5 16 13 14 12 -3 12 -1 0 14 -9 12
-9 15 -1 10 7 -4 12 -2 13 6 2 44 11 83 19 86 5 2 6 10 3 18 -3 8 0 14 6 14 6
0 11 5 11 11 0 5 -6 7 -12 3 -9 -5 -9 -3 1 9 7 9 17 15 21 12 10 -6 7 15 -5
35 -5 8 -10 46 -11 85 -1 38 -2 71 -3 73 0 2 -13 -9 -27 -23 -15 -15 -23 -32
-20 -41 4 -9 2 -12 -5 -8 -7 4 -10 1 -7 -7 3 -8 -2 -20 -9 -28 -11 -10 -11
-16 -3 -21 9 -6 9 -9 1 -14 -6 -4 -9 -12 -5 -17 3 -5 0 -8 -7 -7 -7 2 -13 -4
-14 -12 0 -8 -5 -24 -12 -35 -11 -20 -13 -26 -13 -46 0 -5 -4 -8 -9 -4 -6 3
-8 -4 -6 -15 2 -11 0 -20 -5 -20 -4 0 -7 -8 -5 -17 1 -10 -2 -24 -8 -30 -5 -7
-7 -13 -3 -13 4 0 -1 -14 -9 -31 -9 -17 -14 -33 -11 -37 3 -3 1 -11 -5 -18 -6
-8 -9 -21 -5 -29 3 -8 0 -15 -6 -15 -6 0 -8 -3 -5 -6 3 -4 1 -16 -5 -28 -7
-11 -11 -29 -9 -38 1 -10 -2 -18 -7 -18 -5 0 -9 -12 -10 -27 0 -16 -1 -30 -2
-33 -3 -10 -11 -46 -15 -68 -2 -13 -6 -26 -9 -29 -3 -3 -1 -15 5 -26 8 -14 8
-18 0 -13 -6 4 -12 4 -12 -1 -8 -38 -4 -714 4 -733 5 -14 10 -45 12 -70 2 -25
8 -57 14 -72 6 -16 8 -28 6 -28 -2 0 0 -11 5 -26 6 -14 12 -39 15 -57 4 -17
11 -35 18 -39 9 -6 8 -8 -2 -8 -11 0 -11 -3 -1 -15 7 -8 10 -15 6 -15 -3 0 0
-15 8 -34 8 -19 12 -37 8 -40 -3 -3 0 -6 7 -6 7 0 10 -4 6 -10 -6 -10 13 -50
30 -62 6 -5 4 -8 -4 -8 -11 0 -10 -5 4 -20 10 -11 15 -20 11 -20 -3 0 0 -13 9
-30 9 -16 13 -30 10 -30 -4 0 1 -7 9 -16 9 -8 14 -19 11 -24 -3 -5 -1 -11 5
-15 6 -4 8 -11 5 -16 -4 -5 -2 -9 4 -9 6 0 8 -6 5 -14 -3 -7 2 -16 11 -20 9
-3 13 -10 10 -16 -3 -5 -1 -10 4 -10 6 0 10 -3 9 -7 -4 -19 15 -62 25 -56 6 4
8 0 5 -9 -4 -8 2 -21 12 -28 11 -8 17 -17 14 -22 -3 -4 0 -8 6 -8 6 0 8 -4 5
-10 -3 -5 -1 -10 4 -10 6 0 11 -9 11 -19 0 -11 6 -22 13 -24 9 -4 9 -6 -1 -6
-7 -1 -10 -6 -7 -12 8 -12 -24 -51 -36 -43 -5 3 -6 -3 -2 -12 4 -12 3 -15 -5
-10 -7 4 -12 2 -12 -4 0 -6 -5 -8 -10 -5 -6 4 -9 1 -8 -7 2 -7 -3 -12 -10 -10
-8 1 -11 -2 -8 -7 4 -5 -3 -16 -14 -24 -11 -7 -17 -18 -12 -23 4 -4 -2 -2 -12
6 -11 8 -22 14 -25 14 -14 -3 -31 9 -36 27 -4 11 -11 16 -17 13 -7 -4 -8 -2
-4 5 5 7 -1 20 -13 30 -11 10 -18 21 -14 25 3 3 1 6 -5 6 -10 0 -28 38 -24 53
1 4 -2 7 -7 7 -5 0 -11 9 -14 21 -3 12 -10 18 -16 15 -5 -4 -12 -2 -15 3 -4 5
-1 13 4 16 7 5 5 12 -7 21 -10 7 -14 14 -10 14 5 0 1 7 -8 16 -9 9 -14 22 -11
29 3 8 -2 16 -10 19 -9 3 -13 10 -10 15 4 5 1 11 -6 13 -11 4 -15 15 -22 66
-1 13 -8 27 -14 31 -6 3 -12 13 -14 21 -2 8 -9 21 -16 28 -7 8 -10 17 -7 22 3
5 1 11 -5 15 -6 4 -8 11 -5 16 4 5 2 9 -4 9 -5 0 -10 8 -10 18 -1 38 -5 52
-13 52 -5 0 -6 5 -3 10 3 6 1 10 -6 10 -7 0 -10 3 -6 6 3 4 0 21 -8 39 -7 19
-11 36 -7 39 3 3 0 6 -7 6 -7 0 -9 5 -6 10 4 6 2 16 -3 23 -5 7 -8 20 -7 30 2
9 0 17 -4 17 -5 0 -8 13 -9 29 0 17 -6 39 -12 51 -6 11 -8 25 -5 30 3 6 2 10
-3 10 -5 0 -8 11 -6 25 1 14 -4 32 -13 40 -9 9 -10 15 -3 15 6 0 8 5 5 10 -3
6 -8 34 -11 63 -7 80 -8 87 -14 87 -6 0 -3 608 3 635 3 11 6 20 7 20 1 0 4 18
5 40 2 22 6 51 10 65 4 14 8 39 10 55 2 17 4 31 5 33 1 1 4 7 5 12 1 6 3 11 5
13 1 1 3 11 5 22 2 11 6 31 10 45 4 14 8 33 8 43 1 9 4 17 7 17 3 0 6 12 7 26
0 15 5 29 11 33 5 3 8 14 6 24 -1 9 3 17 9 17 5 0 7 3 4 7 -4 3 -2 12 4 20 6
7 9 13 5 13 -4 0 0 13 8 29 9 16 12 32 8 35 -3 4 0 11 8 16 13 8 20 27 23 62
1 9 6 14 11 11 5 -4 7 1 3 10 -3 8 0 18 8 21 8 3 12 14 10 25 -2 12 1 20 8 18
7 -1 11 6 11 16 -1 9 2 17 7 17 5 0 9 5 9 11 0 6 10 25 22 42 12 17 16 27 7
22 -8 -5 -5 1 5 13 11 12 16 22 12 22 -4 0 -1 6 6 14 7 8 18 11 23 8 6 -3 4 2
-4 11 -7 9 -9 17 -5 17 5 0 15 14 22 30 8 17 18 28 23 24 9 -5 13 9 9 35 -1
12 1 13 14 2 8 -7 20 -10 26 -6 6 3 24 -5 40 -19 31 -26 50 -26 81 1 17 14 15
58 -2 47 -8 -5 -13 9 -10 29 0 4 -2 6 -6 6 -5 -1 -15 -1 -23 0 -13 1 -13 2 0
11 13 8 12 10 -4 10 -11 0 -16 5 -13 14 3 7 1 18 -4 23 -6 6 0 23 16 47 13 20
24 40 24 44 -3 19 2 23 16 12 13 -11 14 -10 9 4 -4 10 0 18 10 22 9 3 13 11 9
17 -4 6 0 8 10 4 11 -4 14 -2 10 9 -3 9 1 14 12 14 9 0 13 4 10 10 -7 12 51
71 61 62 4 -4 5 0 2 9 -4 9 2 21 14 28 16 10 18 10 13 0 -5 -8 -4 -10 3 -5 7
4 12 15 12 24 0 15 1 15 16 1 17 -18 26 -69 12 -69 -5 0 -7 -4 -4 -9 7 -11
-23 -71 -35 -71 -6 0 -7 -4 -4 -10 3 -5 1 -10 -5 -10 -6 0 -9 -4 -5 -9 3 -5 0
-13 -6 -16 -5 -4 -8 -13 -5 -20 2 -7 2 -16 -2 -20 -14 -13 -10 -130 6 -165 8
-19 16 -39 17 -45 6 -27 18 -55 24 -55 10 0 5 -136 -6 -152 -4 -7 -9 -33 -11
-58 -1 -25 -4 -61 -5 -80 -1 -19 5 -46 13 -60 10 -16 11 -22 3 -17 -7 5 -13 4
-13 -2 0 -6 4 -11 9 -11 5 0 12 -7 15 -16 3 -8 2 -13 -3 -10 -5 4 -4 -5 2 -19
7 -14 15 -25 20 -25 4 0 7 -7 7 -15 0 -8 7 -15 15 -15 8 0 15 -5 15 -10 0 -7
7 -7 20 0 11 6 18 15 15 20 -3 5 -1 11 4 15 7 4 7 15 1 31 -6 14 -8 29 -5 34
3 5 1 11 -4 14 -10 7 -13 93 -3 100 4 2 18 -2 32 -11 18 -10 19 -13 5 -9 -17
5 -16 3 5 -14 19 -15 20 -18 6 -13 -13 4 -17 3 -12 -5 4 -7 15 -12 24 -12 15
0 15 -2 2 -10 -11 -7 -11 -10 -2 -10 7 0 10 -4 7 -10 -3 -5 -1 -10 6 -10 8 0
8 -4 -1 -15 -11 -13 -10 -14 4 -9 12 5 15 2 9 -12 -5 -13 -3 -16 9 -11 12 4
14 1 11 -14 -4 -14 0 -19 13 -19 16 0 17 -2 4 -10 -13 -9 -7 -14 13 -11 4 0 6
-2 6 -6 -4 -22 3 -33 19 -34 16 0 15 -1 -1 -8 -17 -6 -16 -8 6 -20 15 -8 23
-19 20 -27 -3 -8 3 -17 12 -20 13 -5 14 -9 3 -15 -10 -7 -9 -9 5 -9 9 0 16 -3
16 -7 -4 -24 2 -53 10 -49 5 3 12 -1 15 -10 4 -10 2 -13 -7 -9 -6 4 -4 0 6 -8
9 -8 17 -20 17 -26 0 -7 5 -9 10 -6 6 3 10 -3 10 -14 0 -11 10 -25 21 -32 17
-9 20 -8 14 3 -3 7 0 5 8 -4 8 -10 19 -18 25 -18 15 0 72 -34 72 -42 0 -5 5
-8 11 -8 5 0 7 6 4 13 -4 6 3 1 15 -13 12 -14 19 -19 15 -12 -3 6 -1 12 4 12
6 0 11 -5 11 -12 0 -6 3 -8 6 -5 4 3 15 2 25 -3 12 -7 20 -7 24 0 4 6 12 7 18
3 7 -4 21 -8 32 -8 32 -1 125 -28 125 -37 0 -4 7 -8 15 -8 8 0 15 -8 15 -17 0
-15 2 -16 10 -3 8 12 10 11 10 -6 0 -12 7 -25 16 -28 15 -6 15 -4 3 11 -7 10
0 7 15 -7 16 -14 25 -18 21 -10 -8 13 -6 13 7 2 9 -7 29 -15 45 -18 43 -7 55
-13 48 -24 -4 -6 1 -7 11 -3 12 4 15 3 10 -5 -4 -7 -2 -12 4 -12 6 0 8 -5 4
-12 -5 -8 0 -7 11 2 10 8 16 10 12 3 -4 -6 0 -19 9 -27 11 -12 12 -16 2 -16
-10 0 -10 -2 1 -9 8 -5 10 -14 6 -21 -5 -8 -4 -11 2 -7 14 9 53 -26 53 -47 0
-10 4 -15 9 -12 5 3 12 -1 15 -10 4 -9 13 -14 22 -10 8 3 12 2 9 -4 -3 -6 1
-10 10 -10 10 0 13 -5 9 -12 -5 -8 -2 -9 9 -5 12 4 17 1 17 -9 0 -11 6 -15 19
-11 14 3 18 1 14 -9 -3 -9 2 -14 14 -14 28 0 41 -30 38 -90 -4 -74 -6 -80 -22
-80 -8 0 -11 -4 -8 -10 3 -6 1 -10 -5 -10 -6 0 -8 -4 -5 -10 3 -5 1 -10 -4
-10 -6 0 -11 -5 -11 -11 0 -5 5 -7 11 -3 6 3 5 -4 -3 -17 -15 -25 -17 -76 -4
-97 4 -7 4 -16 1 -22 -3 -5 5 -20 19 -33 30 -28 41 -73 20 -81 -9 -3 -25 4
-37 17 -13 14 -16 15 -7 3 15 -19 15 -19 -11 0 -15 10 -26 21 -24 24 5 9 -22
29 -29 22 -4 -3 -4 1 -1 10 4 11 -1 17 -19 22 -16 4 -23 11 -20 20 3 8 0 17
-7 22 -8 4 -10 3 -5 -4 4 -7 5 -12 2 -12 -12 0 -37 62 -42 103 -3 23 -7 48 -9
55 -3 6 -1 12 4 12 14 0 4 52 -13 69 -12 11 -16 12 -16 2 0 -8 -6 -11 -15 -7
-9 3 -15 0 -15 -8 0 -8 -5 -16 -11 -18 -17 -6 -14 -175 3 -196 8 -10 9 -13 1
-9 -6 4 -15 2 -19 -4 -4 -7 -3 -9 3 -6 6 4 19 -3 29 -15 11 -12 13 -18 7 -14
-20 11 -15 -2 7 -24 12 -12 18 -26 14 -33 -4 -7 -4 -9 0 -5 10 8 36 -14 29
-24 -2 -5 5 -8 16 -8 19 0 25 -10 22 -32 0 -3 13 -11 30 -17 20 -7 28 -15 23
-22 -5 -9 -1 -10 14 -7 12 4 25 2 28 -4 3 -5 12 -7 19 -4 7 2 16 -1 18 -8 3
-7 16 -12 29 -11 12 1 34 -3 48 -10 60 -29 160 -3 160 42 0 14 2 15 9 5 6 -10
10 -7 15 13 5 19 10 24 19 17 8 -7 17 -6 29 2 15 11 31 12 93 3 11 -2 26 -6
33 -11 6 -4 12 -5 12 -1 0 3 9 1 20 -5 15 -8 20 -8 20 1 0 8 6 7 18 -3 9 -9
25 -14 34 -13 10 2 20 -1 23 -5 3 -5 13 -6 22 -3 11 4 14 3 9 -5 -4 -7 -1 -12
8 -12 21 0 25 -10 32 -71 3 -29 12 -59 20 -67 9 -9 43 -15 97 -18 83 -4 100
-6 127 -17 8 -3 29 -6 45 -6 26 1 57 -4 75 -11 3 -2 14 -3 25 -4 11 -1 36 -5
55 -10 19 -4 42 -8 50 -9 8 -2 20 -5 25 -9 6 -3 29 -9 52 -13 24 -4 45 -10 47
-14 3 -4 19 -8 37 -9 18 -1 39 -8 46 -14 7 -6 13 -7 13 -3 0 4 7 2 15 -5 8 -7
15 -9 15 -5 0 4 12 0 26 -10 15 -9 24 -12 20 -7 -3 6 7 4 24 -4 16 -8 39 -16
50 -17 11 -1 20 -5 20 -10 0 -5 6 -7 14 -4 8 3 26 -3 40 -14 16 -13 27 -16 31
-9 5 8 13 6 26 -6 10 -9 19 -15 19 -12 0 4 21 -1 47 -11 54 -19 67 -52 48
-121 -4 -14 -8 -38 -10 -53 -2 -15 -7 -33 -12 -40 -5 -7 -15 -32 -22 -57 -7
-25 -22 -65 -34 -90 -12 -25 -22 -49 -23 -55 -3 -24 -17 -55 -25 -55 -5 0 -6
-6 -3 -14 3 -8 0 -17 -5 -21 -6 -3 -9 -11 -6 -16 4 -5 1 -9 -4 -9 -6 0 -11 -6
-11 -14 0 -22 -26 -66 -35 -58 -5 4 -6 3 -3 -3 7 -12 -27 -77 -36 -68 -3 3 -6
-3 -6 -15 0 -12 -4 -22 -9 -22 -4 0 -6 -12 -3 -26 3 -16 9 -23 18 -20 7 3 16
1 19 -5 6 -9 65 42 65 57 0 4 8 13 18 21 11 10 12 12 2 8 -8 -4 -5 2 8 13 12
11 22 24 22 29 0 5 14 35 30 67 17 32 28 61 25 64 -2 3 1 12 7 20 7 8 13 21
15 30 1 9 7 18 12 20 6 2 11 12 11 23 0 10 4 19 9 19 5 0 8 13 7 29 -1 17 1
28 5 25 10 -6 22 33 14 46 -3 5 -2 10 4 10 6 0 13 16 17 35 3 19 10 38 15 41
5 3 7 9 4 14 -3 4 2 26 9 48 8 22 12 43 9 46 -4 3 2 6 13 7 45 3 78 -4 93 -18
10 -10 16 -12 19 -4 2 7 9 6 19 -4 8 -8 19 -13 24 -10 5 4 9 2 9 -3 0 -4 26
-16 58 -26 31 -10 68 -25 81 -33 18 -12 22 -12 16 -2 -3 8 2 4 13 -8 15 -17
22 -19 32 -10 10 9 11 9 6 0 -4 -8 5 -14 29 -19 19 -3 35 -11 35 -16 0 -6 9
-8 20 -5 11 3 18 1 14 -4 -3 -5 3 -9 14 -9 10 0 22 -3 26 -8 4 -4 11 -8 14 -8
29 -6 52 -18 52 -27 0 -6 3 -7 7 -4 3 4 13 1 21 -5 14 -12 28 -16 65 -20 9 -1
17 -6 17 -11 0 -4 4 -6 9 -3 5 3 12 -1 15 -10 3 -9 13 -14 20 -11 8 3 17 -1
20 -9 3 -9 10 -12 16 -9 5 3 10 1 10 -4 0 -6 3 -10 8 -9 4 1 18 -3 32 -9 31
-14 53 -21 61 -19 4 0 16 -7 26 -17 11 -9 22 -15 24 -13 2 2 4 -9 4 -25 0 -27
-7 -34 -28 -30 -5 1 -5 -4 -2 -10 8 -12 -50 -71 -59 -61 -3 3 -6 0 -6 -6 0
-19 -80 -93 -93 -85 -7 4 -6 -1 2 -10 12 -16 12 -17 -5 -11 -10 4 -16 4 -12
-1 8 -9 -15 -35 -32 -35 -6 0 -8 -4 -5 -10 3 -5 1 -10 -5 -10 -6 0 -8 -5 -4
-12 5 -8 2 -8 -10 1 -9 8 -16 10 -14 5 4 -14 -25 -54 -40 -54 -7 0 -23 -11
-35 -23 -12 -13 -41 -37 -64 -54 -23 -17 -39 -34 -35 -39 4 -5 -1 -2 -11 6
-10 7 -17 9 -16 4 3 -20 -2 -32 -17 -38 -10 -4 -13 -2 -9 7 4 6 -2 1 -13 -12
-12 -15 -24 -21 -32 -16 -9 5 -11 4 -6 -3 4 -7 3 -12 -3 -12 -17 0 -80 -68
-77 -83 3 -19 28 -42 46 -42 9 0 27 10 40 23 13 12 29 22 36 22 7 0 24 13 37
30 14 16 32 30 40 30 8 0 17 7 21 15 3 8 12 15 21 15 8 0 15 7 15 15 0 8 7 15
15 15 8 0 23 9 32 19 9 11 20 18 25 15 4 -3 8 1 8 8 0 18 38 40 53 32 7 -4 9
-4 5 0 -8 10 23 47 34 40 4 -3 8 2 8 10 0 8 12 22 28 30 15 8 23 15 19 16 -4
0 -2 6 5 14 7 8 16 12 21 9 4 -2 7 0 7 6 0 14 116 131 130 131 6 0 9 4 6 9 -3
4 3 16 14 26 11 10 17 21 14 26 -7 12 40 22 65 14 12 -3 21 -13 21 -20 0 -8 5
-17 12 -21 7 -5 8 -3 3 7 -5 8 1 5 13 -5 24 -21 29 -32 10 -20 -7 4 -8 3 -4
-4 4 -7 15 -12 24 -12 12 0 13 -3 5 -8 -7 -5 -9 -13 -3 -22 6 -9 3 -18 -8 -28
-12 -10 -13 -12 -2 -7 8 4 6 -1 -5 -10 -11 -9 -19 -20 -18 -25 2 -5 -11 -17
-27 -27 -17 -9 -30 -23 -30 -30 0 -7 -17 -24 -37 -38 -21 -14 -34 -25 -31 -25
4 0 -8 -16 -28 -35 -19 -19 -40 -35 -46 -35 -6 0 -9 -2 -6 -5 7 -7 -127 -145
-140 -145 -6 0 -24 -14 -41 -31 -18 -17 -36 -27 -42 -23 -8 4 -9 3 -5 -4 4 -7
3 -12 -2 -12 -5 0 -22 -12 -37 -27 -16 -16 -25 -22 -21 -15 11 19 -1 14 -26
-10 -13 -13 -35 -29 -50 -37 -16 -8 -26 -17 -23 -20 6 -5 -38 -31 -87 -52 -16
-6 -28 -14 -28 -18 0 -7 -43 -32 -60 -36 -5 -1 -24 -11 -88 -47 -18 -10 -50
-21 -72 -24 -22 -4 -37 -10 -34 -15 3 -5 -4 -9 -15 -9 -11 0 -24 -7 -29 -16
-6 -12 -11 -13 -16 -5 -5 8 -14 4 -27 -11 -12 -13 -18 -17 -14 -10 10 19 -13
14 -35 -8 -12 -12 -20 -15 -20 -7 0 7 -3 8 -8 2 -9 -13 -56 -39 -48 -27 3 5
-1 9 -9 9 -8 0 -13 -5 -12 -11 1 -6 -5 -11 -13 -11 -8 0 -21 -7 -28 -15 -8 -8
-11 -10 -8 -4 3 7 -3 9 -19 6 -14 -2 -22 -9 -18 -15 4 -6 -2 -8 -15 -5 -14 4
-19 2 -16 -7 3 -7 0 -16 -7 -21 -7 -4 -10 -3 -5 4 3 6 2 14 -4 17 -6 4 -10 3
-9 -2 3 -19 -2 -34 -10 -29 -5 4 -7 -2 -4 -13 3 -10 0 -22 -5 -25 -6 -3 -8
-15 -5 -27 5 -17 12 -20 35 -17 16 3 31 1 34 -4 3 -5 17 -2 31 7 14 10 22 12
19 6 -4 -6 -3 -11 2 -11 6 0 13 7 16 15 4 13 10 14 26 5 16 -9 20 -8 20 5 0 8
3 14 8 13 16 -5 82 24 76 34 -4 5 4 5 16 -2 15 -8 20 -8 16 -1 -7 11 6 15 33
12 8 -2 10 2 5 10 -5 8 -3 10 5 5 7 -5 19 0 27 10 9 11 13 14 10 8 -3 -6 1
-11 9 -11 8 0 13 5 12 11 -1 6 6 10 16 10 9 -1 17 3 17 8 0 6 9 8 20 5 11 -3
18 -2 15 3 -5 9 18 20 42 20 8 0 24 10 35 23 11 12 17 16 13 10 -9 -19 2 -16
25 7 12 12 25 18 30 15 6 -4 10 -1 10 4 0 6 6 10 13 8 6 -1 11 3 10 10 -2 7 6
10 17 8 12 -2 18 0 15 4 -2 5 3 15 12 22 9 8 14 9 10 3 -3 -6 0 -11 8 -11 8 0
12 4 9 9 -3 4 0 8 6 8 6 0 8 5 4 13 -5 7 -2 7 10 -2 15 -12 17 -12 14 0 -2 8
4 13 15 13 16 -2 22 8 18 30 -1 5 6 3 15 -5 12 -9 15 -9 10 -1 -4 7 -2 12 4
12 6 0 9 4 6 9 -3 5 2 8 12 7 10 0 16 5 14 13 -3 12 0 12 12 2 11 -9 16 -9 22
0 5 8 3 9 -6 4 -9 -6 -11 -4 -6 4 5 7 15 10 23 7 8 -4 11 -1 8 5 -4 6 3 13 15
16 12 3 19 11 16 19 -3 8 -2 13 2 12 11 -2 59 20 63 29 2 4 22 21 44 38 22 16
33 21 25 10 -14 -17 -14 -17 7 -5 12 8 20 17 17 21 -2 4 6 15 18 23 12 9 19
16 14 16 -5 0 -3 7 4 15 9 11 16 12 26 4 10 -8 12 -6 9 10 -2 13 3 22 16 26
11 4 17 11 14 16 -3 5 1 6 9 3 11 -4 19 2 26 20 5 14 16 26 25 26 8 0 15 5 15
11 0 5 -5 7 -12 3 -7 -4 -8 -3 -4 4 4 6 14 8 23 5 10 -4 14 -2 10 4 -7 11 18
36 47 47 11 4 16 12 12 22 -3 8 -2 12 4 9 6 -3 10 -1 10 5 0 6 4 8 10 5 5 -3
7 0 4 8 -3 8 0 18 7 23 7 4 10 3 6 -3 -3 -5 0 -10 8 -10 8 0 12 4 9 9 -3 4 1
8 8 8 10 0 10 2 0 8 -9 6 -6 12 12 22 14 7 22 18 19 24 -4 6 1 5 10 -2 14 -12
16 -11 12 7 -2 12 0 21 6 21 5 0 8 6 6 13 -1 6 6 11 16 11 15 -2 16 1 5 14
-10 12 -10 14 0 8 7 -4 12 -1 12 8 0 9 6 15 13 13 6 -1 11 4 10 11 -2 6 4 12
13 12 8 0 12 5 9 10 -3 6 -2 10 4 10 6 0 8 7 5 15 -5 11 -2 13 12 8 13 -5 16
-3 11 10 -3 9 -2 17 3 17 5 0 6 7 3 17 -4 11 -3 14 5 9 7 -4 12 -2 12 3 0 6 3
10 8 10 19 -3 25 2 12 11 -13 8 -13 10 1 10 19 0 33 26 22 42 -3 7 -1 8 5 4 7
-4 12 -2 12 4 0 6 4 8 10 5 6 -3 7 1 4 9 -4 10 1 18 10 22 14 5 14 9 4 22 -10
12 -10 14 0 8 8 -5 15 2 22 18 5 14 12 26 15 26 4 0 3 -5 -1 -12 -5 -7 -3 -8
5 -4 7 5 10 14 7 22 -3 8 -1 14 5 14 6 0 7 5 4 10 -3 6 -1 10 5 10 6 0 9 4 5
9 -3 6 3 14 12 20 11 6 13 11 5 11 -10 0 -10 3 0 14 7 8 16 12 20 10 4 -3 5 5
3 16 -2 11 3 24 13 30 13 7 14 9 3 10 -12 0 -12 2 1 13 9 6 18 21 20 32 2 11
9 19 14 18 6 -1 10 8 10 20 -1 15 4 21 14 19 11 -3 12 0 4 8 -9 8 -9 18 0 36
6 13 14 24 18 24 4 0 5 7 2 15 -4 8 -1 15 5 15 6 0 11 9 11 19 0 11 6 26 14
33 10 11 11 19 4 33 -8 13 -7 16 1 11 6 -4 11 -1 11 8 0 9 5 16 10 16 7 0 7 6
1 19 -8 13 -6 23 7 37 10 10 16 27 14 37 -2 9 1 17 7 17 7 0 9 10 5 25 -3 14
-2 25 3 25 5 0 10 6 11 13 8 76 21 119 33 112 4 -3 6 3 4 15 -2 11 1 22 6 26
6 4 6 11 -2 20 -7 9 -8 14 -1 14 5 0 8 9 5 20 -3 11 -1 20 4 20 6 0 8 11 6 24
-3 13 0 27 6 30 7 5 7 15 1 31 -5 14 -6 25 -1 25 5 0 12 7 15 16 4 10 2 13 -7
8 -9 -6 -9 -5 0 8 7 8 10 18 6 21 -3 4 -2 7 3 7 10 0 12 75 2 85 -3 4 -3 19 1
33 5 15 6 36 4 47 -5 27 -5 41 -1 103 2 30 1 55 -3 58 -4 2 -4 17 0 32 5 15 6
36 4 47 -2 11 -3 31 -3 45 0 14 0 34 0 45 -1 24 -1 40 2 85 2 19 -3 41 -10 49
-11 12 -11 15 0 22 8 6 9 9 2 9 -7 0 -11 16 -10 40 0 22 -3 40 -7 40 -5 0 -5
5 -2 10 3 6 0 10 -7 10 -9 0 -9 3 2 10 11 7 11 10 2 10 -7 0 -12 8 -10 18 1 9
-1 22 -5 29 -4 6 -3 14 3 18 7 4 7 13 -1 26 -6 11 -12 30 -14 41 -3 11 -12 30
-22 40 -10 11 -17 22 -15 24 6 11 1 44 -7 40 -5 -4 -7 3 -4 14 3 11 -2 31 -11
45 -9 14 -14 25 -12 25 3 0 -2 19 -10 43 -9 23 -17 49 -19 57 -10 37 -33 93
-41 99 -9 6 -14 27 -17 68 -1 11 -5 19 -8 17 -7 -4 -23 26 -21 39 1 4 -3 7
-10 7 -6 0 -8 3 -5 6 4 4 -3 20 -14 36 -18 25 -26 44 -28 71 -1 5 -6 5 -11 2
-6 -4 -9 -3 -8 2 4 14 -13 53 -23 53 -6 0 -8 4 -4 9 3 5 -2 16 -10 24 -8 9
-19 27 -25 42 -6 16 -14 23 -22 19 -7 -4 -8 -3 -4 4 4 7 2 12 -4 12 -7 0 -10
6 -7 13 3 8 -6 22 -19 32 -13 9 -22 21 -19 25 2 4 -4 16 -15 27 -10 12 -16 24
-13 27 4 3 -1 6 -11 6 -9 0 -14 4 -11 10 3 5 -3 17 -14 27 -11 9 -18 19 -17
22 2 3 -2 12 -10 19 -8 7 -14 10 -14 7 0 -3 -6 0 -14 7 -7 7 -11 18 -9 25 3 6
-5 17 -17 23 -13 7 -19 17 -16 27 5 11 2 13 -10 9 -11 -4 -18 1 -21 14 -3 11
-8 18 -12 16 -3 -2 -16 7 -29 20 -12 13 -19 24 -15 25 4 0 -2 4 -14 9 -15 6
-21 15 -17 25 4 11 2 14 -9 9 -10 -3 -18 2 -22 16 -4 12 -9 19 -12 16 -10 -10
-45 32 -37 45 5 9 2 11 -9 6 -16 -6 -41 15 -30 26 3 4 0 7 -7 7 -14 0 -80 66
-80 81 0 6 -4 7 -10 4 -5 -3 -21 5 -35 19 -14 14 -25 22 -25 19 0 -3 -14 8
-30 26 -17 17 -34 31 -39 31 -4 0 -21 11 -36 24 -16 14 -33 22 -39 19 -5 -4
-7 1 -3 11 5 13 3 17 -6 13 -7 -3 -23 6 -36 19 -13 13 -27 22 -31 19 -4 -2
-16 6 -26 20 -10 13 -21 22 -25 20 -4 -3 -17 4 -30 14 -13 10 -40 26 -59 36
-19 10 -42 26 -51 36 -9 10 -19 16 -22 12 -4 -3 -14 0 -23 8 -9 7 -23 14 -31
15 -8 2 -23 10 -33 19 -10 9 -23 14 -29 11 -5 -4 -16 2 -23 11 -7 10 -19 19
-25 21 -7 1 -19 3 -25 5 -7 1 -16 7 -20 12 -4 6 -11 10 -15 11 -15 1 -88 39
-95 49 -5 6 -8 6 -8 -1 0 -7 -20 -1 -47 12 -27 13 -56 24 -65 24 -9 0 -20 5
-24 11 -3 6 -15 9 -25 6 -11 -3 -19 -2 -19 1 0 4 -11 12 -25 19 -19 8 -23 8
-18 0 5 -8 2 -8 -8 0 -9 7 -24 14 -35 16 -10 2 -26 7 -35 11 -9 4 -27 8 -40
10 -13 2 -32 7 -41 10 -9 4 -22 8 -30 10 -7 1 -19 5 -25 9 -8 5 -13 3 -13 -4
0 -8 -4 -8 -15 1 -9 7 -35 14 -58 16 -23 1 -56 7 -74 12 -17 6 -34 8 -37 4 -3
-3 -6 -1 -6 4 0 10 -22 13 -110 19 -25 2 -45 4 -45 5 0 14 -596 21 -621 7z
m63 -130 c6 -4 9 -20 8 -37 -1 -17 3 -37 11 -44 7 -8 10 -17 6 -21 -4 -5 -2
-5 5 -2 6 4 20 -3 30 -15 10 -13 23 -23 28 -24 24 -3 55 -17 55 -26 0 -5 6 -8
12 -6 7 3 21 -4 32 -13 10 -10 23 -16 28 -13 4 3 8 -2 8 -11 0 -9 4 -14 8 -11
5 3 17 -5 28 -17 18 -21 20 -25 23 -48 0 -5 5 -8 10 -5 8 5 24 -29 22 -46 0
-4 6 -5 14 -2 10 4 15 0 15 -12 0 -16 2 -17 10 -4 8 13 10 12 10 -3 0 -10 7
-20 15 -23 8 -4 15 -13 15 -21 0 -8 5 -11 10 -8 9 6 14 -7 11 -27 0 -4 6 -5
15 -1 8 3 14 2 13 -3 -1 -5 0 -11 1 -14 1 -3 3 -13 5 -22 3 -18 1 -19 -32 -22
-10 -1 -25 -5 -33 -11 -8 -5 -28 -9 -45 -10 -16 -1 -39 -4 -50 -8 -36 -12 -95
-16 -95 -6 0 5 -3 8 -7 8 -22 -4 -33 3 -33 18 0 9 -3 14 -6 11 -7 -8 -44 28
-44 43 0 5 -4 8 -9 4 -6 -3 -14 1 -18 10 -12 21 -131 63 -171 60 -24 -2 -33 2
-38 17 -3 11 -8 17 -11 14 -6 -6 -53 43 -53 55 0 5 -6 8 -12 7 -7 -2 -12 3
-11 10 2 6 -1 12 -7 12 -5 0 -20 11 -34 25 -14 14 -32 25 -41 25 -8 0 -15 5
-15 12 0 6 -3 9 -6 6 -3 -4 -17 0 -31 7 -13 7 -30 12 -37 11 -24 -3 -61 -41
-65 -66 -1 -14 -6 -27 -10 -30 -3 -3 -6 -27 -5 -55 1 -27 -3 -55 -7 -61 -12
-15 -82 -10 -149 11 -30 9 -65 17 -77 19 -12 1 -25 5 -29 9 -4 4 -18 7 -31 7
-12 0 -23 5 -23 10 0 6 -3 9 -7 9 -20 -3 -24 2 -13 16 9 10 9 15 1 15 -6 0
-11 5 -11 10 0 6 3 9 8 8 10 -3 73 31 90 49 12 11 12 20 4 39 -7 13 -15 24
-20 24 -5 0 -9 7 -9 15 0 13 45 31 132 51 17 3 40 13 53 20 14 9 22 10 22 4 0
-7 5 -8 13 -3 6 4 14 8 17 9 3 0 16 4 30 7 27 7 76 17 100 21 9 1 20 4 25 7 6
3 25 5 43 4 17 0 32 2 32 6 0 4 8 6 18 4 9 -1 22 1 27 6 6 4 20 6 30 5 11 -2
25 1 32 6 7 5 17 7 23 3 5 -3 10 -3 10 2 0 10 121 10 137 0z m591 0 c6 -5 17
-5 22 -2 6 3 10 2 10 -2 0 -5 21 -10 48 -10 26 -1 61 -4 77 -8 17 -4 39 -8 50
-10 11 -1 28 -5 38 -10 10 -4 31 -8 47 -9 17 0 30 -4 30 -9 0 -4 5 -5 10 -2 6
3 16 3 23 -2 6 -4 23 -9 37 -11 14 -1 32 -5 40 -9 8 -3 18 -7 23 -8 4 -2 10
-4 15 -5 4 -1 10 -2 14 -1 4 0 10 -10 14 -23 7 -28 -20 -76 -42 -76 -8 0 -17
-7 -20 -15 -4 -8 -12 -15 -19 -15 -7 0 -15 -4 -17 -9 -1 -5 -9 -11 -17 -13 -8
-2 -26 -14 -39 -28 -13 -14 -21 -18 -17 -10 4 8 -1 6 -9 -4 -9 -11 -16 -16
-16 -11 0 4 -8 1 -18 -8 -10 -10 -22 -14 -25 -11 -4 4 -9 -1 -13 -10 -3 -9
-10 -14 -14 -11 -5 3 -11 1 -15 -5 -4 -6 -11 -8 -16 -5 -5 4 -9 1 -9 -4 0 -6
-3 -10 -7 -9 -5 1 -19 -4 -33 -12 -14 -8 -34 -15 -44 -17 -11 -2 -26 -8 -33
-15 -7 -6 -16 -8 -20 -5 -3 4 -11 1 -17 -7 -15 -18 -63 -29 -71 -16 -4 6 -16
8 -27 4 -14 -4 -18 -2 -14 5 4 6 2 11 -4 11 -7 0 -10 7 -6 15 3 8 2 14 -2 14
-20 -3 -31 3 -37 21 -4 11 -10 18 -15 15 -10 -6 -32 20 -23 29 4 3 -2 12 -11
19 -16 12 -17 16 -5 35 10 16 17 18 31 11 13 -7 18 -6 18 2 0 8 5 8 16 -2 24
-20 52 -18 74 6 19 20 19 23 5 29 -9 3 -14 10 -11 15 5 8 -29 25 -46 22 -5 -1
-8 4 -8 10 0 5 -4 8 -9 4 -6 -3 -26 4 -46 15 -19 11 -42 20 -50 20 -8 0 -14 5
-12 12 1 6 -7 14 -18 17 -16 5 -20 15 -20 51 0 25 3 50 7 55 8 12 227 14 246
2z m715 -203 c4 -8 13 -14 18 -14 6 0 7 4 4 10 -3 6 1 7 9 4 9 -3 16 -10 16
-15 0 -5 6 -8 13 -6 6 1 11 -4 9 -12 -3 -12 -1 -12 14 0 12 9 15 9 10 2 -4 -7
-3 -13 2 -13 6 0 13 -7 16 -16 4 -10 2 -13 -7 -8 -8 6 -8 3 1 -9 8 -9 12 -31
11 -50 -2 -19 2 -41 9 -49 6 -8 10 -17 7 -20 -3 -3 1 -11 10 -18 8 -7 15 -18
15 -24 0 -6 -5 -4 -10 4 -7 10 -10 11 -10 2 0 -7 9 -20 20 -29 14 -13 17 -20
8 -30 -8 -10 -7 -13 2 -13 8 0 10 -3 7 -7 -4 -3 1 -15 10 -26 11 -12 12 -17 4
-12 -11 6 -12 5 -5 -6 5 -8 9 -18 9 -24 0 -5 10 -14 22 -21 13 -6 21 -13 18
-16 -3 -3 8 -11 25 -18 16 -7 30 -16 30 -21 0 -5 9 -9 20 -9 11 0 20 -7 20
-15 0 -9 6 -12 17 -8 11 4 14 3 9 -5 -4 -7 -3 -12 2 -12 9 0 25 -37 23 -52 -1
-5 5 -8 11 -8 9 0 8 -4 -2 -10 -13 -8 -12 -10 3 -10 9 0 17 -4 17 -9 0 -5 18
-13 41 -19 22 -6 38 -8 35 -5 -3 3 2 13 12 22 10 9 19 26 19 38 2 32 -32 124
-43 115 -4 -4 -2 1 6 11 7 10 9 17 4 16 -19 -3 -34 1 -34 12 0 5 5 7 12 3 7
-4 8 -3 4 5 -4 6 -11 9 -15 6 -5 -2 -17 6 -27 20 -10 13 -22 21 -26 19 -5 -3
-7 0 -6 8 2 7 -2 12 -9 11 -7 -2 -10 4 -7 12 4 8 1 16 -5 16 -6 1 -15 2 -20 3
-6 0 -16 7 -23 15 -10 10 -10 12 0 7 6 -4 12 -2 12 4 0 6 -7 13 -16 17 -8 3
-13 12 -10 19 3 8 2 14 -2 14 -4 0 -9 11 -10 25 -2 22 2 25 34 25 23 0 33 -4
28 -11 -4 -7 2 -6 17 2 22 11 23 11 10 -5 -8 -9 -10 -16 -5 -15 36 6 53 -3 64
-36 6 -19 9 -39 5 -45 -3 -5 -1 -10 4 -10 6 0 11 -6 11 -13 0 -8 12 -20 26
-27 23 -13 24 -15 7 -22 -13 -6 -11 -7 9 -5 16 3 26 0 25 -7 -1 -6 4 -10 12
-8 23 5 52 -40 51 -78 -1 -19 -1 -37 0 -40 6 -18 12 -48 14 -67 0 -13 5 -18
11 -13 6 5 11 -3 12 -21 1 -15 -2 -31 -8 -34 -5 -4 -6 -12 -2 -18 4 -7 -2 -5
-12 3 -17 14 -18 14 -6 -7 10 -19 9 -22 -4 -17 -8 4 -15 1 -15 -6 0 -6 -4 -9
-9 -6 -5 3 -11 -4 -14 -15 -4 -14 -10 -18 -18 -13 -9 5 -10 2 -6 -10 4 -11 1
-19 -10 -23 -14 -6 -14 -8 3 -21 16 -12 16 -14 2 -9 -13 5 -19 -2 -24 -28 -3
-19 -10 -35 -15 -35 -5 0 -9 -6 -9 -14 0 -7 -8 -20 -17 -27 -11 -10 -14 -10
-9 -1 4 6 4 12 1 12 -3 0 -11 -14 -17 -31 -8 -23 -13 -27 -19 -17 -7 10 -9 9
-9 -5 0 -10 -4 -16 -9 -13 -13 9 -34 -21 -25 -36 5 -9 2 -8 -12 2 -10 8 -16
11 -12 6 12 -14 -15 -35 -30 -23 -10 8 -12 7 -10 -2 2 -8 -6 -15 -17 -17 -11
-1 -26 -12 -34 -23 -7 -12 -22 -21 -33 -21 -10 0 -21 -7 -24 -15 -5 -11 -10
-13 -19 -5 -9 8 -14 6 -19 -5 -3 -8 -10 -15 -16 -15 -6 0 -8 6 -5 13 4 6 -2 1
-13 -12 -12 -15 -26 -22 -35 -18 -9 3 -18 -1 -21 -10 -4 -9 -13 -13 -22 -9
-10 4 -13 2 -8 -6 5 -8 2 -9 -9 -5 -9 3 -19 2 -23 -4 -3 -6 -12 -8 -20 -5 -8
3 -14 0 -14 -5 0 -7 -11 -9 -24 -7 -15 3 -23 1 -20 -6 3 -7 -3 -12 -13 -13
-32 -3 -58 -9 -77 -18 -24 -10 -49 20 -43 52 2 12 1 20 -3 18 -4 -3 -14 3 -21
12 -10 12 -10 14 -1 9 20 -12 14 12 -8 27 -11 8 -17 17 -12 21 4 4 -2 14 -12
22 -13 9 -15 14 -6 14 8 0 5 7 -8 19 -24 20 -29 36 -9 26 6 -4 1 3 -12 14 -14
13 -18 21 -10 21 9 1 8 4 -3 11 -10 5 -18 16 -18 24 0 8 -8 19 -17 25 -17 11
-17 11 0 6 16 -5 16 -4 1 19 -9 14 -21 25 -26 25 -5 0 -7 4 -4 9 8 12 -4 42
-14 36 -4 -3 -13 2 -20 10 -11 13 -10 15 6 9 16 -5 15 -3 -4 14 -12 12 -21 27
-20 34 2 7 -3 12 -10 10 -6 -1 -11 3 -10 10 2 7 -3 12 -9 13 -7 0 -13 5 -12
10 1 6 5 9 10 7 5 -1 9 2 9 8 0 6 -4 10 -10 10 -5 0 -19 9 -30 20 -21 21 -27
35 -10 25 6 -3 10 -1 10 4 0 10 -14 15 -33 12 -5 -1 -6 3 -3 8 3 5 -4 22 -16
37 -15 19 -17 24 -5 15 15 -12 17 -12 11 3 -3 9 -16 16 -28 16 -17 0 -18 2 -6
10 13 8 12 10 -2 10 -10 0 -18 7 -18 15 0 8 -5 15 -11 15 -6 0 -9 9 -6 20 3
11 1 18 -4 14 -5 -3 -9 -1 -9 5 0 6 -7 8 -15 4 -9 -3 -15 -2 -14 3 4 21 -2 35
-11 29 -5 -3 -10 -1 -10 5 0 6 -6 8 -12 4 -10 -5 -10 -4 -1 6 9 10 9 17 2 26
-8 9 -4 16 12 24 12 7 19 7 15 2 -4 -6 2 -8 14 -5 11 3 20 10 20 15 0 5 5 6
10 3 6 -3 10 -1 10 6 0 8 5 7 17 -2 15 -12 16 -12 10 4 -4 10 -3 16 2 13 4 -3
17 1 27 9 10 8 24 14 29 15 6 0 3 -5 -5 -10 -8 -5 -10 -10 -5 -10 18 0 38 18
31 28 -3 6 2 8 12 5 11 -2 26 2 34 11 9 8 18 12 22 9 3 -4 6 -1 6 5 0 6 9 9
20 7 11 -2 19 1 17 8 -1 7 8 12 20 11 19 0 21 2 10 15 -9 12 -9 13 1 7 7 -4
12 -2 12 4 0 6 5 8 10 5 6 -3 10 -1 10 5 0 7 7 10 15 6 8 -3 14 0 12 7 -1 7 5
12 13 12 8 0 20 9 27 20 7 11 12 16 13 11 0 -6 7 -1 16 10 8 10 13 12 9 4 -4
-9 0 -7 9 4 8 10 20 15 27 10 7 -4 10 -3 6 3 -4 6 3 13 14 16 16 4 20 11 15
24 -4 9 -4 14 0 10 4 -4 14 2 21 13 8 11 19 18 24 15 5 -4 9 -1 9 5 0 15 63 2
73 -16z m-893 -56 c0 -13 -23 -5 -28 10 -2 7 2 10 12 6 9 -3 16 -11 16 -16z
m-1099 -201 c3 -5 19 -9 35 -11 16 -1 36 -6 44 -11 8 -5 28 -10 45 -11 68 -4
68 -3 62 -24 -3 -11 -1 -20 3 -20 10 0 7 -86 -3 -96 -10 -10 -67 -12 -73 -3
-3 5 -9 7 -14 4 -5 -3 -11 -1 -15 5 -4 6 -11 8 -16 5 -5 -4 -9 -2 -9 4 0 6 -7
8 -15 5 -8 -4 -15 -1 -15 6 0 6 -4 8 -10 5 -5 -3 -10 -1 -10 4 0 6 -3 10 -7 9
-13 -2 -47 15 -61 31 -11 13 -12 13 -7 1 4 -8 -2 -5 -13 8 -11 12 -19 30 -17
40 2 9 4 25 4 35 1 10 5 16 9 13 4 -2 13 -1 20 3 16 10 55 8 63 -2z m1217
-136 c2 -6 9 -8 14 -5 6 4 8 2 5 -3 -4 -6 6 -25 22 -42 17 -18 24 -32 17 -35
-6 -2 -1 -5 12 -5 13 -1 20 -5 17 -11 -3 -5 -1 -10 4 -10 6 0 11 -7 11 -15 0
-8 5 -15 11 -15 7 0 9 -9 6 -21 -4 -16 -3 -18 8 -9 9 8 15 6 20 -7 5 -10 9
-22 9 -28 1 -5 7 -11 14 -11 23 -3 24 -4 13 -18 -9 -11 -9 -16 0 -22 8 -5 9
-3 4 6 -5 9 -4 11 3 6 7 -4 12 -14 12 -22 0 -8 6 -17 14 -20 9 -3 12 -12 9
-21 -5 -12 -3 -14 7 -8 10 6 12 4 7 -9 -4 -10 -3 -15 3 -11 6 3 10 1 10 -5 0
-6 5 -8 13 -4 9 6 9 4 -1 -8 -10 -13 -10 -17 4 -22 9 -4 14 -13 10 -21 -3 -8
-1 -15 5 -15 6 0 7 -6 3 -12 -5 -8 0 -7 11 2 10 8 16 10 12 3 -4 -6 0 -19 9
-27 12 -12 12 -16 2 -17 -10 0 -10 -2 0 -6 6 -2 12 -11 12 -19 0 -9 4 -13 9
-10 4 3 7 -5 7 -17 -2 -25 12 -49 24 -42 4 3 11 -2 14 -11 3 -8 2 -12 -4 -9
-6 3 -10 2 -10 -4 0 -5 6 -14 13 -18 17 -11 37 -49 37 -72 0 -11 5 -23 12 -27
7 -5 8 -3 3 6 -5 9 -4 11 4 6 6 -4 9 -11 6 -16 -3 -5 2 -16 11 -24 11 -12 12
-16 2 -16 -9 -1 -9 -4 3 -13 19 -15 34 -67 19 -67 -6 0 -8 -5 -5 -10 7 -11 -6
-18 -40 -23 -11 -1 -26 -6 -32 -10 -7 -5 -18 -5 -23 -2 -6 4 -16 2 -23 -3 -22
-17 -65 -23 -70 -9 -4 8 -6 7 -6 -4 -1 -14 -25 -19 -108 -23 -13 -1 -23 -5
-23 -9 0 -5 -10 -7 -22 -6 -13 2 -30 -1 -38 -6 -8 -5 -30 -10 -47 -10 -18 -1
-36 -4 -39 -8 -4 -4 -13 -2 -21 4 -9 8 -13 8 -13 1 0 -6 -9 -9 -21 -7 -16 3
-19 0 -15 -12 5 -12 3 -13 -6 -5 -10 8 -13 3 -15 -19 -1 -17 2 -27 7 -24 5 3
7 0 4 -8 -3 -8 2 -17 11 -21 11 -4 14 -2 9 7 -4 6 1 4 12 -5 14 -12 24 -14 37
-7 9 6 17 6 17 2 0 -4 11 -8 25 -8 14 0 25 4 25 8 0 4 9 3 19 -3 14 -7 22 -7
26 1 4 6 13 8 21 5 8 -3 14 -1 14 4 0 5 13 8 30 8 16 -1 37 5 47 13 11 9 14
10 9 2 -5 -9 -2 -11 8 -7 9 3 16 10 16 15 0 5 11 4 25 -1 13 -5 27 -5 30 -1 4
8 38 17 90 25 11 1 27 5 35 9 54 22 93 26 116 10 24 -16 34 -30 12 -17 -10 6
-10 5 -1 -8 7 -8 10 -18 6 -21 -3 -4 -1 -7 6 -7 7 0 11 -6 8 -14 -3 -8 0 -20
8 -26 7 -6 16 -26 19 -45 4 -19 12 -35 19 -35 7 0 6 -4 -3 -10 -11 -7 -11 -10
-2 -10 7 0 11 -4 7 -9 -3 -5 0 -13 6 -16 5 -4 8 -13 5 -21 -3 -8 1 -17 9 -20
11 -5 12 -10 4 -26 -7 -13 -7 -18 -1 -14 12 7 26 -29 17 -44 -3 -5 -2 -10 4
-10 6 0 7 -7 4 -17 -4 -9 -2 -14 3 -10 5 3 9 -9 9 -26 0 -18 4 -38 9 -45 6 -8
11 -21 12 -30 5 -37 10 -51 24 -68 14 -18 14 -18 -5 -4 -19 15 -19 14 -3 -11
9 -15 13 -31 8 -38 -4 -7 -1 -26 7 -43 8 -16 13 -38 10 -49 -3 -10 -1 -22 4
-25 5 -3 6 -11 2 -17 -4 -7 -6 -21 -5 -33 2 -11 -4 -26 -12 -33 -11 -10 -17
-8 -28 8 -8 12 -18 18 -23 13 -4 -4 -5 1 -2 10 4 11 2 17 -5 15 -6 -1 -14 7
-17 18 -3 11 -12 20 -18 21 -30 2 -34 5 -28 14 3 6 -1 10 -10 10 -9 0 -13 5
-10 10 3 6 -3 10 -14 10 -12 0 -21 5 -21 10 0 6 -6 10 -13 10 -7 0 -20 8 -29
18 -27 28 -48 43 -48 35 0 -4 -5 -1 -10 7 -8 13 -10 13 -10 1 0 -11 -4 -9 -14
5 -8 10 -18 16 -21 12 -4 -4 -16 3 -26 15 -13 16 -18 18 -19 7 0 -10 -3 -11
-8 -4 -10 16 -88 54 -96 47 -3 -4 -6 -1 -6 5 0 7 -13 12 -30 12 -16 0 -30 4
-30 9 0 5 -7 12 -16 15 -10 4 -13 2 -8 -6 5 -7 3 -8 -7 -2 -14 9 -19 10 -40
13 -5 0 -8 5 -5 10 4 5 -3 7 -14 4 -11 -3 -20 0 -20 6 0 5 -7 8 -15 5 -8 -4
-15 -1 -15 6 0 9 -4 9 -17 -1 -9 -8 -14 -9 -10 -3 8 14 -38 28 -55 18 -7 -5
-8 -3 -4 5 5 8 0 14 -13 18 -12 3 -21 10 -21 15 0 5 -5 6 -12 2 -8 -5 -9 -2
-5 9 4 11 1 17 -8 17 -8 0 -15 5 -15 11 0 5 -6 7 -12 3 -8 -5 -7 0 2 11 10 12
10 16 2 11 -16 -9 -44 12 -35 27 4 6 0 8 -10 4 -12 -4 -14 -2 -10 10 4 11 2
14 -5 9 -7 -4 -12 -2 -12 4 0 6 -4 8 -10 5 -5 -3 -10 3 -10 15 0 12 -4 18 -10
15 -5 -3 -10 -1 -10 5 0 6 -4 8 -10 5 -5 -3 -10 1 -10 9 0 9 -5 16 -12 16 -6
0 -9 3 -5 6 8 8 -25 44 -43 45 -8 1 -4 5 10 9 18 6 20 8 7 9 -10 1 -15 6 -12
11 4 6 1 9 -7 8 -7 -2 -14 7 -16 20 -2 12 -8 22 -13 22 -5 0 -9 8 -7 18 2 9
-3 16 -9 15 -8 -2 -13 7 -13 22 0 13 -8 29 -17 34 -14 8 -15 10 -3 11 13 0 13
1 0 10 -8 5 -11 10 -7 10 4 0 3 9 -3 20 -6 11 -7 20 -2 20 10 0 9 30 -1 47 -4
6 -3 15 3 18 8 5 6 15 -5 32 -10 14 -12 22 -6 19 6 -4 11 -2 11 3 0 6 -9 16
-19 23 -16 10 -18 15 -8 28 6 8 7 12 3 8 -5 -4 -17 2 -27 14 -24 27 -24 35 -1
17 15 -13 16 -12 3 4 -7 9 -21 17 -30 17 -9 0 -25 13 -36 29 -10 16 -24 27
-29 24 -5 -4 -7 1 -3 9 5 14 -8 17 -33 8 -3 -1 -8 -2 -11 -2 -3 1 -4 -9 -2
-22 3 -13 0 -27 -6 -30 -8 -5 -8 -13 -1 -27 6 -10 7 -19 2 -19 -10 0 -9 -30 2
-48 4 -7 2 -12 -4 -12 -6 0 -8 -5 -4 -11 4 -7 8 -27 9 -46 1 -19 8 -39 15 -43
7 -4 10 -13 6 -19 -5 -7 -1 -9 9 -5 10 4 15 2 13 -7 -2 -8 2 -13 9 -12 7 2 10
-4 7 -12 -5 -11 -2 -13 12 -8 16 6 17 5 6 -9 -11 -14 -10 -16 10 -12 13 2 17
1 9 -2 -11 -5 -8 -10 10 -20 13 -7 18 -13 11 -14 -10 0 -9 -4 2 -16 9 -8 14
-20 11 -25 -4 -5 -1 -9 5 -9 6 0 8 -4 5 -10 -3 -5 0 -10 7 -11 10 0 10 -2 0
-6 -8 -3 -5 -11 10 -25 13 -11 17 -17 11 -13 -7 3 -13 1 -13 -5 0 -6 7 -13 15
-16 8 -4 15 -13 15 -21 0 -9 8 -22 18 -30 9 -8 11 -12 5 -8 -7 3 -13 1 -13 -4
0 -6 5 -11 11 -11 5 0 15 -13 20 -29 8 -22 15 -28 27 -24 15 6 16 5 2 -12 -13
-17 -13 -18 0 -13 10 4 20 -3 27 -18 8 -16 8 -24 0 -27 -6 -2 -3 -6 7 -10 10
-4 15 -3 11 3 -3 6 -1 10 6 10 7 0 9 -8 6 -21 -5 -17 -3 -18 9 -8 12 10 15 10
12 -2 -2 -8 3 -13 10 -11 8 1 11 -2 7 -8 -3 -5 -2 -10 4 -10 6 0 8 -6 5 -14
-3 -9 -20 -13 -49 -12 -24 0 -41 4 -39 8 3 5 -16 8 -41 8 -25 0 -44 4 -41 9 4
5 -4 7 -16 3 -11 -3 -19 -1 -16 4 4 5 -6 10 -20 10 -62 3 -115 21 -106 35 3 5
-1 9 -8 9 -7 0 -22 12 -32 27 -11 14 -14 23 -8 19 7 -4 12 -2 12 4 0 6 -7 13
-15 16 -9 4 -21 16 -27 28 -11 20 -10 20 8 6 18 -14 18 -14 5 3 -7 9 -20 17
-28 17 -8 0 -12 4 -8 9 3 5 0 13 -6 17 -8 4 -9 3 -5 -4 4 -7 2 -12 -4 -12 -6
0 -13 7 -17 16 -3 8 -12 13 -19 10 -7 -3 -16 0 -20 6 -5 7 -2 8 7 3 8 -5 11
-4 6 1 -4 4 -20 10 -35 11 -15 2 -33 4 -39 5 -7 1 -13 5 -13 10 0 5 -6 6 -12
1 -7 -4 -20 -8 -27 -8 -9 0 -15 -10 -15 -25 1 -36 26 -110 35 -104 4 2 6 -5 4
-16 -2 -11 0 -18 5 -15 5 3 10 -5 12 -17 2 -15 9 -22 20 -20 9 1 23 -7 31 -18
7 -11 17 -17 21 -12 4 4 13 0 19 -8 7 -8 17 -15 22 -16 34 -3 74 -18 79 -30 3
-8 10 -14 16 -14 6 0 8 4 5 10 -3 6 1 7 9 4 9 -3 14 -9 12 -13 -3 -4 -1 -13 5
-21 7 -12 9 -12 9 3 0 17 1 17 20 -1 11 -10 46 -25 78 -32 31 -7 63 -17 71
-24 12 -9 13 -8 6 4 -8 13 -6 13 8 2 9 -8 21 -11 26 -8 5 4 12 2 16 -4 4 -6
11 -7 17 -3 15 8 76 8 85 0 3 -4 12 -2 19 4 8 7 14 7 19 -1 3 -6 10 -8 14 -6
4 3 30 -1 57 -7 27 -7 59 -12 72 -11 12 1 22 -3 22 -8 0 -5 4 -7 10 -3 5 3 25
-1 45 -9 20 -9 33 -11 30 -7 -3 5 4 7 15 4 11 -3 23 -9 26 -14 3 -5 16 -9 30
-9 13 0 24 -4 24 -10 0 -5 11 -10 25 -10 14 0 28 -6 31 -14 3 -8 13 -12 25 -9
13 4 19 1 17 -8 -2 -9 4 -13 15 -11 9 2 20 -4 23 -11 3 -9 13 -13 25 -10 13 4
19 1 17 -8 -2 -9 4 -13 15 -11 9 2 17 -1 17 -5 0 -12 58 -35 70 -28 6 4 9 1 8
-7 -2 -7 5 -12 15 -12 15 2 16 -1 5 -14 -11 -13 -10 -15 4 -9 18 6 43 -15 31
-27 -4 -4 0 -4 10 0 10 3 17 1 17 -5 0 -6 11 -16 25 -23 13 -6 22 -15 19 -19
-3 -5 5 -9 16 -9 16 0 20 -4 16 -16 -3 -8 -2 -13 2 -11 10 7 32 -19 24 -28 -4
-4 2 -5 13 -3 14 2 20 -2 19 -14 -1 -10 1 -17 5 -16 22 2 31 -5 31 -24 0 -12
3 -19 6 -15 4 3 13 -1 21 -9 8 -8 19 -11 25 -8 6 4 6 -2 -1 -14 -12 -22 2 -41
15 -21 5 8 3 9 -7 4 -8 -5 -11 -4 -6 1 10 11 22 8 23 -6 1 -5 3 -11 4 -12 6
-6 11 -97 8 -154 -1 -22 2 -45 5 -51 4 -7 3 -14 -3 -18 -7 -4 -7 -12 0 -24 5
-10 7 -21 3 -24 -8 -9 -8 -81 0 -94 4 -7 3 -14 -3 -18 -6 -4 -8 -10 -5 -15 3
-5 1 -19 -5 -30 -9 -17 -8 -19 7 -14 17 5 17 5 0 -6 -14 -9 -18 -23 -17 -53 1
-23 1 -44 0 -47 -7 -21 -7 -40 1 -40 5 0 5 -9 -1 -22 -15 -39 -24 -82 -22
-110 1 -16 -3 -28 -9 -28 -5 0 -7 -5 -3 -11 3 -6 0 -15 -7 -20 -9 -5 -10 -9
-2 -9 6 0 9 -9 6 -20 -3 -11 -10 -17 -17 -13 -6 4 -5 -1 3 -10 11 -14 11 -18
-2 -23 -9 -3 -13 -13 -10 -25 4 -15 1 -19 -21 -17 -14 1 -26 6 -26 10 0 4 -5
8 -11 8 -5 0 -7 -6 -3 -12 4 -7 -2 -5 -13 5 -11 9 -23 14 -26 10 -4 -3 -7 0
-7 8 0 11 -2 11 -10 -1 -7 -11 -10 -11 -10 -2 0 7 -4 10 -10 7 -5 -3 -10 -1
-10 5 0 6 -4 8 -10 5 -5 -3 -10 -1 -10 6 0 8 -5 7 -17 -2 -12 -10 -14 -10 -9
-1 4 7 0 14 -11 18 -10 3 -25 8 -33 12 -8 3 -18 4 -22 4 -5 -1 -8 2 -8 7 0 4
-12 8 -27 7 -16 0 -27 5 -26 11 1 7 -6 9 -19 5 -14 -3 -19 -1 -14 6 4 7 3 12
-3 12 -7 0 -7 8 0 26 5 15 7 29 5 32 -3 2 3 16 14 30 11 13 17 28 14 33 -3 5
2 9 11 9 9 0 13 5 10 10 -3 6 -1 10 5 10 6 0 8 5 5 10 -3 6 -1 10 4 10 6 0 11
5 11 11 0 5 -5 7 -12 3 -6 -4 -4 3 5 16 15 22 15 26 1 48 -9 14 -11 22 -6 18
6 -3 14 -1 18 5 4 7 3 9 -3 6 -5 -3 -17 3 -26 14 -11 13 -13 19 -4 19 6 0 1
10 -13 21 -14 11 -18 18 -10 14 10 -4 9 -2 -2 8 -10 8 -15 17 -11 20 3 4 -4 7
-16 7 -17 0 -21 4 -17 16 3 8 2 12 -4 9 -6 -3 -10 -1 -10 4 0 6 -7 11 -15 11
-8 0 -15 5 -15 11 0 6 -7 8 -16 5 -8 -3 -13 -2 -9 3 3 5 -27 11 -66 13 -39 2
-73 0 -75 -3 -6 -11 -69 4 -95 22 -14 10 -29 16 -33 14 -3 -3 -4 -2 -1 2 3 3
-3 12 -13 20 -10 9 -11 11 -2 7 13 -7 13 -5 2 9 -8 9 -12 22 -9 29 2 7 0 23
-4 35 -5 13 -4 23 2 25 6 2 1 14 -10 27 -11 13 -18 27 -15 32 3 5 -3 6 -13 2
-16 -6 -16 -5 -4 10 12 15 12 17 -2 12 -8 -4 -18 -1 -23 6 -4 8 -3 10 4 5 18
-11 14 0 -5 15 -11 10 -14 10 -9 2 4 -7 4 -13 1 -13 -10 0 -35 27 -30 32 3 3
-2 5 -10 5 -8 0 -12 -4 -9 -9 3 -4 -2 -5 -10 -2 -9 3 -16 10 -16 14 0 5 -9 7
-20 5 -11 -2 -20 0 -20 6 0 5 -5 9 -11 9 -5 0 -8 -4 -4 -10 3 -5 -7 -3 -21 5
-15 8 -31 12 -36 9 -12 -8 -108 59 -108 76 0 8 -5 22 -11 30 -8 12 -9 9 -4
-10 l7 -25 -17 23 c-9 13 -23 21 -30 18 -7 -2 -16 -2 -19 1 -3 3 -38 5 -77 5
-46 0 -80 5 -94 14 -12 8 -25 11 -28 7 -4 -3 -7 -1 -7 6 0 7 -3 10 -7 8 -5 -3
-30 -1 -56 3 -27 4 -50 3 -53 -2 -3 -5 -13 -7 -21 -4 -19 7 -45 -12 -37 -26 4
-6 -3 -5 -14 1 -18 10 -20 8 -17 -8 2 -13 -3 -22 -16 -26 -11 -4 -17 -10 -14
-15 3 -4 -4 -6 -15 -3 -11 3 -20 0 -20 -6 0 -7 -14 -11 -35 -9 -19 1 -35 6
-35 10 0 4 -5 8 -11 8 -5 0 -7 -6 -3 -12 5 -9 2 -9 -9 1 -9 7 -17 21 -18 30 0
10 -2 11 -6 4 -2 -7 -9 -13 -14 -13 -4 0 -6 7 -3 15 5 11 2 13 -12 8 -12 -4
-15 -3 -10 5 4 7 2 12 -3 12 -6 0 -11 7 -11 16 0 8 -4 12 -10 9 -5 -3 -10 -1
-10 5 0 6 -4 8 -10 5 -5 -3 -10 -1 -10 4 0 6 6 11 13 11 8 0 7 3 -3 9 -8 6
-18 7 -24 4 -5 -3 -6 -1 -3 4 4 6 -3 24 -15 39 -18 23 -19 26 -4 14 18 -14 19
-14 8 7 -7 12 -17 23 -22 25 -6 2 -12 13 -13 25 0 12 -5 19 -9 17 -4 -3 -8 2
-8 10 0 9 -5 16 -11 16 -5 0 -7 5 -4 10 4 6 3 10 -2 9 -19 -3 -34 2 -28 10 3
5 -4 12 -15 16 -11 3 -20 11 -20 16 0 6 -4 7 -10 4 -5 -3 -10 -1 -10 5 0 6 -6
8 -12 4 -7 -4 -10 -4 -6 0 3 4 2 21 -2 37 -5 18 -5 27 1 24 8 -6 13 9 10 29
-1 5 6 6 15 2 15 -6 15 -4 3 11 -7 10 -9 14 -4 10 14 -12 34 54 23 76 -5 9 -6
23 -2 29 5 7 3 8 -6 3 -7 -4 -15 -3 -19 3 -6 10 -25 15 -49 13 -7 0 -10 -6 -6
-12 4 -7 -2 -6 -17 2 -22 11 -23 11 -10 -4 12 -15 11 -17 -3 -17 -10 0 -15 -4
-11 -9 3 -5 -4 -12 -15 -16 -11 -4 -18 -10 -15 -15 3 -4 2 -16 -1 -25 -5 -13
-8 -14 -15 -3 -6 8 -9 9 -9 1 0 -6 -13 -16 -30 -22 -16 -5 -30 -6 -30 -2 0 4
-13 7 -30 6 -16 -1 -35 2 -42 6 -7 5 -9 9 -5 9 8 0 -4 16 -43 57 -14 14 -19
22 -12 19 6 -4 12 -3 12 3 0 5 -7 14 -16 19 -10 6 -17 26 -19 58 -2 27 -4 54
-5 59 -2 6 -1 13 0 18 4 17 3 75 -3 90 -4 10 -2 17 4 17 6 0 7 5 4 10 -3 6 1
17 10 26 9 9 14 23 11 30 -3 8 -1 14 5 14 6 0 7 6 3 13 -5 7 -2 7 10 -2 15
-12 17 -12 14 0 -2 8 3 13 10 11 8 -1 11 2 8 7 -10 16 15 25 74 28 30 1 57 3
60 4 3 0 17 0 33 -1 15 -1 27 4 27 10 0 9 3 10 13 1 11 -8 18 -7 30 7 13 15
33 19 87 19 47 1 70 -3 70 -10 0 -7 5 -5 10 3 5 8 10 11 10 5 0 -5 18 -21 40
-35 24 -14 40 -32 40 -43 0 -10 5 -15 10 -12 6 3 10 3 11 -2 3 -30 9 -48 19
-51 7 -3 7 -8 1 -15 -7 -9 1 -12 30 -12 21 0 39 4 39 8 0 5 7 15 15 23 10 10
12 22 6 37 -5 12 -5 34 -1 48 4 15 5 31 1 38 -10 16 -1 81 11 81 7 0 7 4 0 13
-7 8 -6 16 3 24 7 6 15 10 18 7 3 -3 4 3 4 13 -1 10 4 17 11 15 7 -1 15 5 18
13 4 8 12 15 20 15 8 0 14 8 14 18 0 14 2 15 10 2 6 -10 10 -11 10 -2 0 22 2
27 12 39 5 6 17 9 25 6 11 -4 14 -2 9 5 -4 8 3 16 18 22 14 5 26 12 26 15 0 4
-6 3 -12 0 -7 -4 -6 -1 2 7 8 7 16 20 17 28 1 8 4 25 7 37 2 13 1 25 -4 28 -6
3 -5 16 0 30 5 14 7 25 3 25 -4 0 2 7 13 16 10 8 13 13 7 9 -8 -4 -11 -1 -7 9
3 9 9 15 12 14 4 0 14 0 22 1 13 1 13 2 0 11 -13 9 -13 10 0 11 8 1 19 1 24 0
5 -1 3 5 -4 14 -11 13 -10 14 5 9 15 -6 17 -3 13 14 -4 15 0 27 13 36 11 7 21
23 22 35 1 11 7 21 13 21 7 0 15 7 18 16 4 10 14 14 26 11 11 -3 18 -1 15 3
-6 10 29 32 37 24 3 -3 8 2 12 11 4 11 2 14 -7 9 -6 -4 -3 3 8 16 11 13 15 20
9 17 -13 -7 -27 19 -19 33 3 5 1 11 -4 15 -6 3 -1 15 10 26 11 11 23 18 26 15
3 -3 14 -1 24 4 12 7 20 7 24 0 4 -7 11 -7 18 -2 7 5 20 8 30 7 10 -2 14 1 11
7 -5 7 2 9 20 6 14 -3 26 -1 26 5 0 5 6 4 14 -2 11 -9 17 -8 29 4 10 10 18 12
22 5 5 -7 11 -8 19 -1 19 16 64 21 70 8 2 -7 5 -4 5 5 1 11 6 15 15 12 8 -3
17 -1 21 5 4 8 12 8 25 1 15 -8 18 -7 15 2 -3 8 5 14 22 15 15 0 29 5 31 11 4
12 76 6 80 -7z m1680 -583 c2 -4 7 -6 12 -3 5 3 14 -1 22 -8 20 -21 86 -50 96
-43 5 3 17 -3 27 -14 10 -11 23 -20 29 -20 6 0 17 -14 24 -30 8 -17 18 -27 24
-24 7 4 8 2 4 -4 -7 -12 36 -102 50 -105 5 -1 8 -5 7 -8 -1 -3 9 -4 23 -1 14
2 22 7 20 10 -3 3 -1 11 5 18 13 15 -16 104 -34 104 -6 0 -8 3 -5 6 4 3 1 20
-6 37 -7 18 -12 38 -10 45 1 6 2 24 3 38 1 22 4 24 15 15 9 -8 16 -8 20 -2 9
14 36 2 36 -16 0 -8 5 -11 12 -7 7 4 8 3 4 -4 -4 -6 2 -19 14 -29 11 -10 20
-23 20 -30 0 -6 7 -19 16 -27 8 -9 12 -16 8 -16 -3 0 -1 -7 6 -15 7 -8 9 -23
6 -32 -4 -10 -4 -14 0 -11 11 12 62 -55 56 -74 -1 -5 3 -8 9 -8 5 0 7 -5 4
-10 -3 -6 0 -13 9 -16 8 -3 12 -12 9 -20 -3 -7 2 -17 12 -20 9 -4 14 -13 11
-20 -3 -8 0 -14 5 -14 6 0 9 -9 6 -20 -3 -11 -2 -18 2 -16 4 3 13 -4 20 -16
10 -16 10 -19 0 -12 -7 4 -3 -7 10 -24 14 -20 18 -32 10 -32 -7 0 -4 -6 6 -14
11 -8 20 -26 21 -42 0 -15 6 -30 12 -32 6 -2 9 -9 6 -17 -3 -7 0 -24 7 -37 7
-13 12 -27 11 -32 -2 -4 2 -14 8 -20 5 -7 12 -28 14 -47 3 -19 6 -35 7 -36 5
-8 23 -97 21 -105 -1 -5 2 -8 6 -8 4 0 8 -17 9 -37 0 -21 6 -39 11 -41 6 -2 9
-9 6 -17 -3 -7 0 -23 6 -36 7 -12 14 -65 15 -118 4 -96 6 -117 16 -136 4 -9 4
-370 -1 -370 -5 0 -12 -46 -15 -93 -1 -29 -5 -56 -8 -59 -4 -3 -2 -14 4 -24 7
-14 7 -19 -3 -17 -8 2 -13 -13 -14 -49 -1 -29 -3 -56 -4 -60 -2 -5 -4 -12 -5
-18 -2 -5 -4 -12 -5 -15 -1 -3 -3 -12 -5 -20 -2 -8 -7 -26 -10 -40 -4 -14 -8
-34 -10 -45 -2 -11 -4 -21 -5 -22 -2 -2 -4 -7 -5 -13 -1 -5 -3 -11 -5 -12 -1
-3 -6 -21 -13 -50 -1 -7 -7 -20 -12 -28 -5 -8 -10 -22 -10 -30 0 -8 -6 -25
-13 -36 -6 -12 -9 -24 -5 -27 3 -3 -2 -14 -12 -23 -13 -14 -14 -19 -3 -25 10
-7 10 -9 0 -9 -6 0 -11 -3 -10 -7 1 -5 -3 -18 -10 -29 -6 -12 -9 -24 -5 -27 8
-9 -23 -37 -33 -29 -5 4 -3 -1 4 -10 11 -13 10 -18 -2 -25 -8 -4 -15 -12 -16
-18 -3 -32 -15 -63 -33 -89 -12 -16 -15 -26 -9 -22 7 4 1 -9 -13 -30 -14 -20
-25 -41 -25 -46 0 -5 -5 -6 -12 -2 -6 4 -8 3 -4 -4 3 -6 -1 -18 -10 -26 -8 -9
-12 -16 -8 -16 4 0 -1 -9 -10 -19 -13 -15 -14 -20 -4 -24 8 -4 7 -6 -4 -6 -10
-1 -18 -6 -18 -12 0 -5 -5 -7 -12 -3 -6 4 -8 3 -5 -3 6 -10 -19 -73 -29 -73
-3 0 -2 5 2 12 5 7 3 8 -5 3 -7 -4 -10 -16 -8 -27 3 -11 3 -17 0 -14 -3 3 -11
-1 -17 -9 -19 -27 -96 -29 -79 -2 4 6 0 8 -11 4 -10 -4 -15 -3 -11 3 3 6 -1
10 -9 10 -10 0 -13 6 -9 15 3 10 1 15 -7 13 -32 -8 -15 70 23 104 12 11 15 17
7 13 -8 -4 -1 6 15 22 17 15 24 24 15 18 -8 -5 -4 3 9 18 14 15 21 27 17 27
-5 0 2 9 15 21 13 11 18 17 11 14 -11 -6 -11 -3 -1 13 7 12 17 18 21 16 8 -5
12 9 9 38 -2 12 3 16 13 12 11 -4 14 0 11 16 -2 12 2 23 10 26 7 3 12 14 10
24 -2 13 1 17 10 14 10 -4 13 0 10 14 -2 12 3 23 13 27 14 5 14 7 2 15 -8 6
-10 10 -4 10 9 0 36 45 36 60 0 3 4 11 10 18 6 6 7 12 3 12 -4 0 -2 7 5 15 6
8 9 19 6 24 -4 5 0 14 9 18 8 5 16 21 17 36 1 15 6 27 11 27 5 0 7 7 4 15 -4
8 -2 17 4 20 5 4 7 11 4 16 -4 5 -1 9 6 9 7 0 9 3 6 7 -4 3 -2 12 4 20 6 7 8
13 4 13 -4 0 -2 7 5 15 7 8 9 15 5 15 -4 0 -2 7 5 15 7 9 10 18 7 22 -4 3 0
15 8 25 7 11 11 27 8 34 -3 8 0 14 7 14 6 0 10 8 9 18 -1 9 -1 20 0 25 0 4 0
8 -1 10 -1 1 5 13 12 27 17 30 20 47 25 125 1 33 4 62 6 65 1 3 3 10 4 15 2 6
4 12 5 15 7 13 5 232 -2 236 -4 3 -5 11 -1 19 3 8 0 15 -6 15 -9 0 -9 5 -1 20
6 11 8 20 4 20 -3 0 -2 6 3 13 8 10 11 252 4 252 -2 0 -4 7 -6 15 -2 8 -6 29
-10 45 -9 44 -13 60 -15 60 -1 0 -4 16 -5 35 -3 33 -11 72 -15 78 -2 1 -3 5
-5 10 -1 4 -5 14 -8 22 -4 8 -8 30 -10 48 -2 19 -8 37 -13 40 -5 4 -9 16 -8
27 0 11 -4 26 -10 33 -5 8 -12 24 -13 35 -2 12 -11 26 -21 32 -21 12 -63 14
-55 2 3 -4 -3 -17 -12 -27 -9 -10 -14 -24 -10 -30 3 -6 1 -9 -7 -8 -7 2 -12
-2 -11 -9 2 -8 -4 -10 -14 -6 -11 4 -14 3 -9 -5 5 -8 -1 -12 -16 -13 -83 -4
-104 -3 -116 9 -8 7 -18 9 -24 6 -7 -5 -8 -2 -3 6 6 10 4 12 -10 6 -15 -5 -16
-4 -5 9 11 13 10 15 -2 10 -9 -4 -19 4 -28 19 -7 14 -18 24 -24 23 -6 -1 -10
4 -8 10 1 7 -8 23 -20 35 -24 24 -94 34 -115 16 -7 -5 -16 -7 -22 -4 -5 3 -11
3 -13 -2 -6 -14 -95 -61 -103 -54 -5 4 -5 2 -2 -4 4 -7 -5 -20 -19 -29 -15 -9
-23 -12 -19 -5 5 8 1 8 -13 -1 -12 -7 -18 -17 -16 -21 3 -4 -1 -8 -9 -8 -17 0
-87 -66 -87 -82 0 -5 -4 -7 -9 -4 -14 9 -24 -24 -27 -93 -2 -36 -10 -74 -19
-87 -8 -13 -13 -24 -10 -24 3 0 0 -6 -7 -14 -7 -8 -16 -12 -20 -9 -5 2 -8 -3
-8 -11 0 -9 -11 -23 -25 -32 -19 -12 -23 -20 -15 -29 8 -9 6 -14 -4 -18 -17
-7 -15 -156 4 -202 15 -37 19 -58 25 -113 3 -24 10 -53 16 -63 5 -10 7 -19 3
-19 -3 0 -2 -6 3 -12 11 -14 27 -68 24 -81 -1 -5 3 -6 9 -2 9 5 12 -1 9 -22 0
-3 6 -10 15 -15 9 -5 13 -14 10 -20 -4 -7 -2 -8 5 -4 7 4 15 -2 20 -16 6 -13
10 -19 10 -15 1 5 8 1 17 -7 8 -9 12 -21 8 -28 -5 -8 -2 -9 10 -5 12 5 19 0
26 -16 5 -12 9 -19 9 -15 1 4 10 0 20 -9 11 -9 17 -21 14 -27 -3 -6 -3 -8 1
-4 4 3 16 -1 26 -10 11 -8 25 -17 32 -18 7 -2 34 -9 59 -17 25 -8 52 -11 60
-7 8 4 30 10 50 13 20 2 42 8 48 11 6 4 11 1 11 -6 0 -9 3 -10 8 -2 10 16 72
12 72 -5 0 -10 3 -11 13 -3 9 8 16 7 23 -6 6 -9 11 -21 12 -25 0 -5 9 -16 19
-25 10 -9 19 -30 20 -47 3 -50 11 -106 16 -111 3 -3 2 -18 -3 -33 -4 -15 -3
-35 2 -44 6 -11 5 -17 -1 -17 -6 0 -6 -11 -1 -30 5 -16 6 -30 2 -30 -4 0 -8
-21 -9 -48 -2 -66 -10 -129 -17 -140 -3 -6 0 -13 6 -15 9 -4 8 -6 -2 -6 -11
-1 -16 -11 -15 -33 0 -18 -8 -44 -18 -58 -9 -14 -19 -35 -21 -47 -3 -12 -10
-31 -16 -42 -6 -12 -8 -21 -5 -21 4 0 -1 -7 -10 -16 -9 -10 -15 -25 -12 -34 5
-18 -26 -53 -37 -43 -3 3 -4 -3 -2 -14 3 -14 -5 -28 -25 -42 -16 -12 -29 -17
-29 -11 0 6 -4 9 -9 5 -6 -3 -14 3 -20 12 -6 10 -11 14 -11 9 0 -15 -81 74
-91 101 -5 15 -14 21 -21 17 -7 -4 -8 -3 -4 4 4 7 2 12 -4 12 -7 0 -9 7 -6 15
3 10 1 15 -7 13 -15 -3 -77 55 -77 72 0 6 -4 9 -9 5 -6 -3 -15 4 -21 15 -6 11
-8 20 -4 20 4 0 -2 8 -14 18 -12 10 -26 31 -32 46 -5 15 -14 24 -20 21 -6 -4
-7 1 -3 11 4 11 2 15 -4 11 -9 -6 -21 15 -27 45 0 4 -9 17 -19 28 -10 12 -23
32 -29 46 -6 13 -15 24 -19 24 -5 0 -6 7 -3 15 4 8 2 15 -3 15 -9 0 -34 60
-30 71 1 4 -7 16 -17 28 -14 16 -16 21 -5 21 9 0 10 3 3 8 -11 7 -61 119 -69
154 -2 9 -11 28 -20 42 -9 14 -16 27 -16 30 3 19 0 26 -9 21 -6 -4 -9 -3 -8 2
4 15 -13 53 -24 53 -6 0 -8 3 -5 6 3 4 1 16 -5 28 -7 11 -13 23 -13 26 -4 17
-29 60 -36 60 -4 0 -11 9 -14 20 -3 11 -13 26 -20 34 -8 8 -16 20 -17 27 -2 8
-15 26 -30 40 -15 15 -24 29 -21 33 4 4 -6 18 -21 31 -16 14 -25 25 -20 26 5
0 -1 4 -14 10 -13 5 -20 13 -17 19 3 5 0 10 -8 10 -17 0 -16 0 -21 125 -1 55
-7 108 -11 119 -4 10 -8 36 -9 57 0 22 -4 39 -8 39 -4 0 -5 9 -3 20 2 11 0 22
-5 25 -5 3 -7 15 -5 26 2 12 -1 33 -9 48 -7 14 -12 43 -11 64 0 20 -2 37 -5
37 -3 0 -11 24 -18 53 -19 83 -21 90 -29 96 -5 3 -8 12 -9 19 -3 38 -5 43 -13
38 -5 -4 -7 2 -4 13 3 10 -3 33 -11 50 -9 17 -14 31 -10 31 4 0 2 6 -4 13 -6
7 -13 24 -15 38 -3 15 -14 44 -25 66 -19 36 -19 40 -4 51 11 9 12 10 2 6 -13
-6 -13 -5 0 10 9 9 31 18 50 21 19 3 42 7 50 8 8 2 35 13 60 24 25 12 57 25
72 28 16 4 26 11 23 15 -3 5 4 6 15 3 11 -3 20 0 20 6 0 6 9 11 20 11 11 0 20
6 20 14 0 9 7 12 19 9 11 -3 21 2 25 12 3 9 11 13 17 10 5 -4 19 1 30 11 10 9
19 13 19 8 0 -5 4 -3 8 3 4 7 31 14 60 16 28 2 49 0 46 -5 -3 -4 2 -8 10 -8
14 0 20 -12 17 -32 0 -5 3 -8 8 -8 5 0 8 -8 6 -17 -2 -10 -4 -26 -4 -36 -1
-11 -5 -15 -13 -11 -8 5 -9 2 -5 -10 4 -10 3 -15 -3 -11 -6 3 -10 1 -10 -4 0
-6 -6 -11 -14 -11 -8 0 -18 -5 -22 -12 -5 -7 -3 -8 6 -3 7 4 2 -6 -10 -23 -22
-30 -24 -44 -17 -126 1 -13 5 -22 8 -20 6 4 21 -21 23 -38 1 -4 11 -15 24 -23
12 -9 22 -23 22 -31 0 -8 4 -13 9 -10 5 3 14 0 20 -8 17 -20 133 -12 161 11
42 35 53 72 55 188 2 60 4 112 5 115 1 3 3 12 4 20 0 8 6 14 13 13 7 -2 10 3
8 10 -6 16 21 51 34 43 5 -4 12 -2 15 3 3 5 20 8 37 6 36 -3 94 -49 83 -66 -4
-7 -3 -9 3 -6 6 4 21 -2 33 -13 13 -11 29 -20 37 -20 7 0 13 -5 13 -11 0 -6 6
-9 12 -7 7 3 18 -1 25 -8 7 -7 21 -11 30 -9 10 2 22 4 26 4 4 1 3 9 -2 20 -6
10 -7 21 -4 25 3 3 2 6 -4 6 -15 0 -54 36 -46 44 3 3 0 6 -9 6 -8 0 -24 10
-36 23 -27 29 -52 49 -52 42 0 -3 -9 3 -21 14 -13 12 -18 24 -13 32 5 9 2 10
-10 6 -13 -5 -19 -1 -23 14 -3 11 -11 18 -18 16 -8 -4 -11 6 -11 28 1 32 3 33
31 28 16 -4 32 -10 33 -15z m-748 -1574 c0 -9 5 -12 12 -8 8 5 9 0 5 -15 -3
-13 -3 -20 0 -17 9 8 34 -15 27 -25 -3 -5 0 -9 7 -9 7 0 9 -3 6 -7 -4 -3 2
-12 13 -20 10 -7 17 -19 14 -27 -3 -7 2 -19 10 -26 9 -7 13 -16 10 -21 -3 -5
0 -9 6 -9 7 0 10 -6 7 -14 -3 -8 1 -17 10 -20 8 -4 13 -13 10 -20 -3 -8 0 -16
6 -19 7 -2 21 -29 31 -58 10 -30 28 -69 39 -88 12 -19 15 -31 9 -27 -7 4 3
-22 22 -58 19 -36 32 -66 29 -66 -3 0 2 -9 11 -19 10 -11 15 -25 11 -30 -3 -6
-1 -11 5 -11 6 0 9 -4 5 -9 -3 -5 -1 -12 5 -16 6 -4 8 -11 5 -16 -4 -5 1 -9
10 -9 9 0 13 -4 10 -10 -3 -5 -1 -10 5 -10 6 0 8 -4 5 -10 -3 -5 -1 -10 5 -10
7 0 10 -6 8 -12 -3 -7 4 -21 13 -32 10 -10 16 -23 13 -28 -3 -4 0 -8 5 -8 6 0
11 -8 11 -17 0 -12 3 -14 8 -6 4 7 14 -3 26 -28 11 -21 23 -39 28 -39 5 0 6
-4 3 -10 -3 -5 1 -10 10 -10 9 0 13 -4 10 -10 -3 -5 3 -17 14 -26 11 -10 17
-24 13 -32 -3 -10 -1 -13 7 -8 7 5 26 -7 47 -28 20 -20 32 -36 28 -36 -4 0 1
-6 11 -14 19 -14 19 -15 -9 -27 -24 -11 -30 -11 -40 2 -6 9 -17 14 -23 12 -7
-3 -13 0 -13 6 0 6 -3 10 -7 9 -5 0 -26 7 -48 18 -22 10 -44 19 -50 19 -5 1
-30 12 -55 25 -51 27 -45 25 -87 35 -18 4 -33 12 -33 18 0 6 -3 7 -6 4 -4 -3
-16 -1 -28 5 -11 7 -24 11 -28 10 -5 -1 -8 3 -8 9 0 5 -4 8 -9 5 -4 -3 -26 4
-47 14 -21 11 -44 18 -50 16 -6 -2 -17 4 -24 14 -8 11 -17 17 -22 14 -4 -3
-19 3 -33 12 -20 13 -25 13 -25 3 -1 -10 -4 -9 -14 3 -7 10 -16 15 -19 11 -4
-3 -7 -1 -7 6 0 7 -5 9 -11 6 -6 -4 -13 2 -16 14 -3 11 -9 19 -12 16 -4 -2 -8
2 -8 10 0 8 3 15 7 15 4 0 7 6 8 13 8 81 14 121 20 131 4 6 8 28 8 50 1 21 6
41 11 45 4 3 8 31 8 61 -1 30 3 61 9 68 5 8 10 93 10 195 1 155 3 182 16 182
8 1 14 7 12 14 -1 7 2 10 8 6 5 -3 10 -13 10 -21z m-1992 -239 c-3 -3 -9 2
-12 12 -6 14 -5 15 5 6 7 -7 10 -15 7 -18z m-362 -685 c2 -22 6 -45 9 -50 4
-6 8 -23 11 -38 3 -15 7 -34 11 -42 3 -8 7 -19 8 -25 0 -5 4 -17 8 -25 3 -8
13 -41 22 -72 9 -32 19 -58 23 -58 4 0 8 -12 9 -27 0 -15 6 -29 12 -31 6 -2 9
-7 6 -12 -3 -5 1 -14 8 -22 7 -7 12 -23 11 -36 -1 -13 4 -26 11 -28 6 -3 12
-10 12 -17 1 -26 9 -42 25 -55 9 -7 15 -18 12 -26 -3 -7 2 -19 10 -26 9 -7 13
-16 10 -21 -3 -5 0 -9 6 -9 7 0 10 -5 8 -12 -2 -6 4 -20 14 -30 10 -10 16 -23
13 -28 -4 -6 -1 -10 4 -10 6 0 11 -5 11 -12 0 -6 6 -19 14 -27 8 -9 16 -23 18
-31 2 -8 13 -24 25 -37 12 -12 24 -32 28 -43 3 -11 11 -20 16 -20 5 0 9 -7 9
-16 0 -9 5 -12 12 -8 7 4 8 3 4 -4 -4 -6 2 -19 13 -29 11 -9 18 -20 16 -23 -3
-4 13 -26 35 -49 41 -43 50 -58 28 -45 -7 4 9 -13 36 -38 32 -30 46 -50 41
-59 -6 -9 -3 -11 8 -6 22 8 22 -6 -1 -26 -16 -15 -23 -15 -74 -1 -31 8 -61 13
-65 12 -4 -1 -18 3 -30 10 -13 7 -23 10 -23 6 0 -3 -7 -1 -15 6 -10 8 -15 9
-15 2 0 -7 -13 -5 -32 5 -18 9 -45 23 -60 30 -18 9 -28 10 -28 3 0 -6 -11 -4
-25 6 -14 9 -25 13 -25 10 0 -4 -11 1 -25 10 -13 9 -30 14 -37 12 -7 -3 -21 4
-30 15 -10 11 -18 15 -18 8 0 -8 -5 -7 -16 3 -8 9 -20 14 -25 11 -5 -4 -9 -1
-9 4 0 6 -6 11 -12 11 -7 0 -26 7 -42 15 -15 8 -32 13 -36 10 -5 -3 -16 5 -24
17 -9 12 -16 19 -16 15 0 -9 -59 21 -78 39 -7 8 -20 14 -28 14 -8 0 -14 5 -14
11 0 5 -4 7 -10 4 -5 -3 -10 -1 -10 4 0 6 -6 11 -13 11 -7 0 -19 9 -27 19 -7
11 -17 18 -21 15 -4 -2 -21 8 -38 22 -17 14 -31 23 -31 19 0 -4 -12 4 -26 18
-15 15 -30 24 -35 21 -5 -3 -9 2 -9 11 0 9 -5 13 -10 10 -6 -3 -14 4 -19 17
-6 13 -10 19 -10 14 -1 -5 -13 1 -27 15 -14 13 -28 22 -31 19 -2 -3 -11 6 -18
20 -8 14 -14 21 -15 16 0 -5 -7 -3 -15 4 -8 7 -13 16 -10 20 3 5 -4 11 -15 15
-11 3 -20 11 -20 16 0 5 -10 14 -22 19 -13 5 -17 9 -10 9 6 1 12 5 12 11 0 5
-7 7 -15 4 -9 -4 -15 0 -15 10 0 9 -4 16 -10 16 -11 0 -60 47 -63 62 -1 6 -15
24 -31 40 -16 15 -25 28 -20 28 5 0 1 5 -9 11 -9 6 -15 14 -12 20 4 5 1 9 -4
9 -19 0 -8 54 15 76 13 12 25 20 27 18 2 -3 10 2 17 11 7 8 19 15 27 15 8 0
11 5 8 10 -6 9 8 14 28 11 4 0 7 3 7 9 0 5 11 10 25 10 14 0 28 7 31 15 4 8
10 12 15 10 5 -3 22 1 39 10 16 8 30 13 30 10 0 -3 10 0 23 7 12 7 25 11 30
10 4 -1 7 2 7 7 0 5 15 12 33 16 35 8 44 11 52 15 3 1 9 3 14 4 5 0 13 4 17 9
4 4 17 7 29 7 13 0 28 6 34 14 6 7 23 12 38 10 15 -1 32 1 38 6 6 5 22 10 35
12 14 2 32 8 40 13 8 5 20 10 25 10 6 1 17 4 25 8 28 11 115 35 119 31 2 -2 5
-22 7 -44z m382 -725 c-3 -3 -9 2 -12 12 -6 14 -5 15 5 6 7 -7 10 -15 7 -18z"/>
<path d="M5100 6819 c0 -6 -4 -7 -10 -4 -5 3 -18 1 -27 -4 -13 -8 -14 -10 -3
-11 10 0 11 -3 3 -11 -13 -13 5 -82 27 -101 12 -11 12 -10 0 5 -12 17 -12 17
13 6 15 -7 24 -16 21 -20 -4 -7 15 -21 41 -31 6 -1 9 -6 8 -10 -2 -5 2 -8 7
-8 6 0 10 -6 10 -14 0 -8 5 -16 10 -18 6 -2 12 -13 13 -26 0 -12 6 -22 11 -22
5 0 7 -3 3 -6 -3 -3 3 -15 13 -27 11 -11 17 -23 15 -27 -5 -8 10 -16 57 -30
17 -5 30 -5 34 1 3 6 12 8 20 5 8 -3 14 -1 14 5 0 6 6 7 13 3 7 -5 6 0 -3 11
-8 10 -10 16 -4 12 22 -13 24 25 2 66 -19 39 -19 41 -2 27 18 -14 18 -14 5 3
-7 9 -20 17 -28 17 -8 0 -12 4 -8 9 3 5 0 13 -6 17 -8 5 -9 3 -4 -6 5 -8 3
-11 -6 -8 -8 3 -13 11 -11 17 1 6 -4 10 -10 9 -7 -2 -12 2 -11 9 2 8 -4 10
-14 6 -12 -5 -14 -3 -8 7 6 10 4 12 -8 7 -10 -4 -16 -2 -14 6 1 7 -4 11 -11 9
-8 -1 -11 2 -8 7 3 5 -1 12 -10 15 -10 4 -14 12 -10 22 5 14 4 15 -8 5 -11 -9
-15 -8 -20 4 -4 11 -2 14 6 9 7 -4 8 -3 4 4 -4 6 -14 8 -24 5 -9 -3 -14 -3
-10 2 13 14 -13 47 -33 42 -10 -3 -17 -2 -14 3 3 4 -2 10 -10 14 -8 3 -15 1
-15 -5z"/>
<path d="M5030 6635 c-15 -18 -19 -84 -6 -92 5 -4 6 0 1 8 -5 8 -4 11 1 6 5
-5 9 -16 9 -25 0 -9 6 -16 13 -14 8 1 11 -2 7 -8 -3 -5 -1 -18 4 -29 10 -19
29 -20 71 -4 8 4 19 5 23 4 5 -1 6 3 2 9 -3 6 -12 8 -18 5 -7 -3 -2 2 10 11
19 14 21 19 11 38 -6 11 -11 22 -10 24 6 8 0 22 -7 18 -8 -6 -25 30 -22 47 1
5 -3 6 -9 2 -6 -3 -8 -11 -5 -16 4 -5 1 -9 -4 -9 -6 0 -11 10 -12 23 0 12 -3
16 -6 10 -3 -9 -10 -10 -23 -3 -13 7 -21 6 -30 -5z m48 -160 c-3 -3 -9 2 -12
12 -6 14 -5 15 5 6 7 -7 10 -15 7 -18z"/>
<path d="M4039 6604 c-7 -9 -14 -23 -15 -31 -1 -8 -10 -20 -20 -27 -11 -8 -14
-18 -9 -26 5 -9 4 -11 -3 -6 -8 4 -16 -3 -22 -18 -5 -14 -12 -26 -15 -26 -4 0
-3 6 1 13 4 6 3 8 -1 4 -13 -11 -15 -38 -3 -31 6 4 3 -5 -6 -19 -17 -25 -29
-70 -27 -97 1 -8 1 -24 1 -35 -1 -11 -1 -26 0 -32 3 -52 5 -61 14 -56 5 4 7
-1 3 -10 -3 -9 -2 -19 3 -22 6 -4 10 -15 10 -25 0 -10 8 -24 18 -29 13 -8 14
-11 2 -11 -12 0 -11 -3 3 -11 9 -5 17 -17 17 -24 0 -17 18 -16 38 3 8 7 17 10
21 7 4 -2 21 10 37 28 28 31 28 31 2 8 -16 -14 -30 -23 -32 -20 -5 5 52 58 57
52 6 -5 25 19 29 37 2 8 10 20 19 27 10 8 15 21 12 36 -3 14 -1 27 4 30 13 8
-2 198 -16 206 -7 5 -11 14 -9 22 2 8 -3 13 -11 11 -10 -2 -12 5 -9 23 3 14 1
28 -5 32 -6 4 -7 1 -2 -7 5 -9 4 -11 -3 -6 -7 4 -12 13 -12 20 0 22 -36 25
-49 5 -6 -11 -16 -19 -22 -19 -6 0 -3 7 5 16 16 15 20 24 12 24 -2 0 -10 -7
-17 -16z"/>
<path d="M3375 6271 c-3 -5 -2 -12 3 -15 5 -3 9 1 9 9 0 17 -3 19 -12 6z"/>
<path d="M3070 6006 c0 -2 8 -10 18 -17 15 -13 16 -12 3 4 -13 16 -21 21 -21
13z"/>
<path d="M4443 5813 c3 -13 2 -25 -2 -27 -6 -4 -6 -37 2 -123 2 -18 7 -36 12
-40 4 -4 5 -3 1 4 -3 6 -2 14 3 17 5 4 8 -5 7 -18 -2 -19 1 -23 15 -21 10 2
18 -1 16 -8 -1 -7 4 -11 12 -9 8 2 11 -3 8 -12 -4 -10 -1 -13 9 -9 7 3 14 0
14 -6 0 -7 8 -7 26 -1 14 6 23 6 20 1 -3 -4 6 -6 20 -3 31 6 48 35 35 61 -6
10 -7 21 -4 25 3 3 1 6 -7 6 -10 0 -10 3 1 18 7 9 10 14 5 10 -5 -4 -15 -1
-22 7 -17 17 -18 29 -1 19 9 -6 8 -3 -1 8 -8 10 -20 14 -30 11 -15 -6 -16 -5
-2 12 10 13 11 16 2 11 -14 -8 -56 27 -45 38 3 3 -4 4 -15 1 -12 -2 -25 1 -28
7 -5 7 -2 8 7 3 12 -7 12 -6 1 7 -8 9 -20 14 -29 11 -8 -3 -19 0 -25 8 -7 10
-8 8 -5 -8z"/>
<path d="M3626 5495 c-15 -8 -33 -12 -41 -8 -9 3 -15 -1 -15 -11 0 -9 -5 -16
-11 -16 -5 0 -7 5 -3 12 4 7 3 8 -5 4 -6 -4 -9 -11 -6 -16 3 -4 -3 -14 -12
-21 -14 -12 -16 -12 -8 0 6 10 4 12 -4 7 -7 -5 -10 -14 -7 -22 3 -8 0 -14 -7
-13 -33 4 -41 -1 -21 -16 13 -11 14 -14 4 -13 -8 2 -14 -3 -12 -11 1 -7 -3
-19 -9 -27 -16 -20 -5 -27 33 -25 32 2 39 2 83 -1 35 -2 46 2 39 13 -4 7 2 6
17 -2 22 -11 23 -11 10 4 -12 15 -11 17 3 17 9 0 16 5 16 11 0 5 4 8 9 5 5 -3
11 4 14 15 4 14 10 18 18 13 9 -5 10 -2 6 10 -5 14 -3 17 8 12 8 -3 15 -1 15
4 0 6 -5 10 -10 10 -7 0 -7 6 -1 19 8 14 7 20 -5 25 -10 4 -13 1 -9 -7 4 -6 0
-5 -7 3 -28 32 -54 39 -82 25z"/>
<path d="M4290 5358 c0 -5 -11 -8 -25 -8 -14 0 -25 -5 -25 -11 0 -6 -7 -8 -15
-5 -9 3 -18 -1 -21 -9 -4 -8 -11 -12 -16 -9 -6 4 -6 -2 1 -14 9 -17 8 -20 -7
-17 -24 4 -37 -6 -21 -16 11 -7 10 -9 -3 -9 -10 0 -18 -7 -18 -15 0 -8 -8 -15
-17 -15 -15 0 -16 -2 -3 -10 8 -5 15 -17 15 -27 0 -11 9 -19 23 -21 12 -2 22
-7 22 -10 0 -9 64 -7 79 2 5 4 12 3 15 -2 2 -4 21 -6 40 -4 20 2 34 7 31 11
-2 4 6 7 18 7 12 -1 21 4 20 10 -1 7 5 11 14 10 9 0 23 10 30 24 7 14 13 21
13 16 0 -5 6 -3 13 3 8 6 18 7 22 3 5 -4 5 -1 1 6 -4 7 -13 10 -19 6 -7 -3 -4
1 5 9 13 10 15 16 6 25 -7 7 -9 12 -4 12 4 0 0 7 -8 16 -9 8 -20 13 -26 9 -6
-3 -7 1 -4 10 4 9 3 15 -2 14 -20 -3 -45 2 -41 9 3 4 -17 7 -44 7 -27 0 -49
-3 -49 -7z"/>
<path d="M816 5643 c-3 -8 -9 -12 -13 -10 -5 3 -14 -1 -21 -9 -7 -8 -10 -14
-7 -14 3 0 -3 -10 -15 -22 -11 -12 -20 -32 -20 -45 0 -13 -4 -23 -10 -23 -5 0
-10 -5 -10 -12 0 -18 -51 -118 -61 -118 -5 0 -6 -7 -3 -15 4 -8 1 -15 -6 -15
-6 0 -8 -4 -5 -10 3 -5 2 -10 -4 -10 -6 0 -8 -7 -5 -15 4 -8 2 -15 -4 -15 -14
0 -22 -38 -8 -44 7 -3 7 -5 -2 -5 -11 -1 -26 -28 -38 -66 -19 -61 -40 -111
-48 -117 -7 -5 -7 -8 2 -8 10 0 10 -4 0 -22 -7 -13 -13 -26 -14 -30 -1 -5 -3
-11 -4 -15 -1 -5 -2 -11 -1 -15 0 -5 -4 -8 -10 -8 -5 0 -7 -4 -4 -10 3 -5 0
-20 -6 -32 -7 -13 -13 -37 -15 -55 -1 -17 -5 -37 -10 -45 -5 -7 -9 -20 -9 -28
-1 -8 -7 -32 -14 -53 -7 -21 -10 -41 -7 -44 3 -4 0 -13 -6 -21 -7 -7 -13 -24
-15 -35 -2 -12 -6 -29 -9 -37 -4 -8 -7 -28 -8 -45 -1 -16 -5 -35 -9 -42 -4 -7
-10 -38 -13 -70 -2 -31 -8 -60 -12 -63 -4 -3 -7 -42 -8 -87 0 -45 -5 -88 -11
-95 -14 -19 -8 -633 7 -633 1 0 4 -36 6 -80 6 -104 7 -115 15 -115 4 0 6 -15
5 -33 -2 -19 2 -44 7 -58 5 -13 11 -41 12 -63 2 -21 7 -41 11 -45 5 -3 9 -19
9 -36 0 -16 4 -36 9 -44 9 -12 13 -28 19 -83 0 -10 5 -18 10 -18 5 0 7 -6 4
-14 -3 -7 1 -25 8 -40 8 -14 12 -26 10 -26 -2 0 3 -19 11 -42 9 -24 17 -47 18
-53 1 -5 5 -15 9 -22 4 -6 8 -23 9 -37 1 -14 6 -26 10 -26 4 0 8 -8 8 -18 0
-10 5 -23 12 -30 7 -7 8 -12 3 -12 -5 0 0 -7 11 -15 10 -8 13 -15 7 -15 -9 0
-6 -11 7 -35 11 -19 16 -35 12 -35 -4 0 0 -6 8 -13 8 -7 16 -21 18 -32 5 -34
7 -43 21 -59 7 -9 10 -16 6 -16 -5 0 0 -9 10 -20 10 -11 15 -20 11 -20 -4 0 0
-7 9 -16 9 -10 14 -25 12 -36 -3 -10 -2 -16 3 -13 8 5 17 -10 18 -29 0 -5 4
-12 9 -15 17 -13 55 -100 47 -112 -4 -7 -3 -10 3 -6 10 7 28 -20 25 -36 -1 -4
3 -7 8 -7 6 0 10 -6 10 -14 0 -8 7 -21 15 -30 8 -8 19 -26 25 -41 5 -14 14
-23 20 -20 6 4 7 -1 3 -11 -4 -11 -2 -15 4 -11 9 6 27 -26 24 -44 0 -4 15 -23
34 -43 19 -20 34 -40 35 -44 0 -4 8 -16 17 -27 10 -11 17 -23 16 -26 -1 -3 13
-23 32 -44 19 -21 35 -41 35 -46 0 -5 19 -28 42 -50 24 -23 42 -47 40 -55 -1
-7 7 -19 18 -27 11 -7 17 -17 13 -20 -3 -4 2 -7 11 -7 13 0 16 -5 12 -16 -5
-12 -2 -15 9 -10 10 4 19 -2 25 -17 5 -12 9 -19 9 -15 1 4 10 0 20 -9 11 -9
17 -23 13 -31 -4 -10 -1 -13 7 -8 13 8 55 -27 45 -37 -3 -3 4 -8 16 -12 14 -4
19 -12 16 -22 -5 -11 -2 -13 9 -9 10 4 19 -2 25 -17 5 -12 9 -18 9 -14 1 4 10
-1 22 -12 13 -12 18 -24 13 -32 -5 -9 -2 -10 10 -6 12 5 19 0 26 -16 5 -12 9
-19 9 -15 1 4 10 0 20 -9 11 -9 18 -20 15 -25 -3 -4 0 -8 7 -8 15 0 59 -47 51
-54 -3 -3 2 -6 11 -6 9 0 17 -7 17 -16 0 -8 5 -12 10 -9 6 3 13 0 16 -8 3 -9
19 -21 35 -27 16 -7 29 -19 29 -27 0 -9 6 -13 15 -9 9 3 15 0 15 -9 0 -9 9
-15 21 -15 15 0 19 -4 15 -16 -5 -12 -2 -15 9 -10 9 3 18 -1 21 -8 3 -8 19
-20 35 -26 16 -7 29 -19 29 -27 0 -8 5 -11 10 -8 6 3 13 -1 16 -9 3 -9 12 -16
20 -16 8 0 22 -9 31 -19 9 -11 20 -18 25 -15 4 3 11 -2 14 -10 3 -9 10 -14 14
-11 5 3 15 -3 22 -13 7 -11 16 -19 20 -18 4 0 20 -8 34 -19 15 -11 28 -18 29
-15 2 3 13 -4 25 -15 12 -11 25 -20 29 -20 3 0 5 -3 4 -7 -2 -5 0 -8 5 -7 15
2 52 -14 52 -23 0 -5 4 -7 8 -4 5 3 20 -2 33 -12 13 -9 30 -17 38 -19 8 -1 17
-7 21 -13 4 -7 10 -12 13 -12 21 0 46 -12 51 -25 3 -8 11 -11 16 -8 6 4 18 1
26 -6 9 -7 23 -14 31 -15 8 -2 23 -10 33 -19 10 -9 23 -14 29 -11 5 4 16 -2
23 -11 12 -17 30 -24 68 -27 8 0 23 -8 33 -16 10 -8 21 -15 25 -15 7 -1 77
-23 102 -32 8 -4 18 -5 23 -5 4 1 7 -3 7 -8 0 -5 3 -9 8 -8 13 3 77 -14 90
-24 6 -6 12 -7 12 -3 0 4 7 2 15 -5 8 -7 24 -10 35 -7 11 3 18 1 14 -4 -3 -5
6 -9 19 -9 13 0 27 -3 31 -7 7 -7 23 -11 61 -16 11 -1 23 -5 26 -9 3 -5 27
-11 54 -14 28 -3 56 -10 63 -16 7 -6 15 -8 19 -5 3 3 17 0 32 -7 14 -7 44 -12
66 -11 22 1 42 -2 45 -7 3 -4 32 -9 63 -10 31 -2 57 -5 57 -9 0 -10 9 -10 444
-12 276 -2 423 1 430 8 6 5 25 10 41 9 17 0 39 4 50 10 11 5 40 10 65 10 25 1
50 4 56 8 6 4 26 9 44 10 18 1 34 8 37 14 2 6 16 10 30 8 14 -1 37 2 52 8 14
6 35 11 46 12 11 1 25 4 30 8 6 3 27 9 48 12 21 3 47 11 58 16 10 6 19 8 19 4
0 -3 6 -1 13 5 8 6 22 12 33 14 10 1 25 6 32 11 7 4 16 5 19 2 3 -3 11 -2 17
3 6 4 34 16 63 25 28 10 56 23 63 31 6 7 19 11 29 8 10 -2 25 3 35 12 11 11
16 12 16 4 0 -8 6 -5 13 5 8 10 25 18 40 18 14 0 28 7 31 14 3 8 11 11 19 8 8
-3 20 2 27 10 7 9 16 13 21 10 5 -3 9 0 9 6 0 7 7 10 15 6 8 -3 15 -1 15 4 0
5 20 18 45 29 25 11 45 24 45 30 0 5 9 7 20 4 11 -3 20 0 20 6 0 6 9 11 20 11
11 0 20 7 20 15 0 8 6 12 14 9 7 -3 26 6 41 20 15 14 31 23 36 20 5 -3 9 0 9
5 0 6 9 11 20 11 11 0 20 5 20 11 0 6 5 9 12 7 7 -3 23 7 35 20 13 14 23 21
23 17 0 -5 11 2 24 14 13 12 28 21 33 19 5 -2 21 9 35 24 14 15 28 25 31 21 4
-3 7 0 7 7 0 7 3 10 6 7 4 -4 14 1 23 11 9 9 22 18 29 20 7 1 29 18 48 37 19
19 38 35 43 35 4 0 29 20 54 44 26 24 47 42 47 39 0 -3 6 0 13 6 8 6 17 7 21
3 4 -4 6 -2 5 3 -2 6 21 35 51 65 30 30 54 58 53 62 -2 4 4 5 12 2 8 -4 15 -2
15 2 0 16 47 64 55 56 5 -4 5 1 2 10 -4 12 -2 15 9 11 7 -3 14 0 14 5 0 14
207 221 214 214 4 -3 6 0 6 6 0 7 13 25 30 40 16 15 31 33 32 41 2 8 15 27 31
43 15 16 27 33 27 39 0 6 13 22 29 37 16 15 31 34 33 41 2 8 13 24 25 36 12
12 23 27 25 35 2 8 14 24 27 37 13 13 20 23 16 23 -5 0 0 7 11 16 10 8 12 13
4 9 -8 -4 -4 4 10 17 14 13 26 31 28 39 2 8 10 19 18 25 7 6 14 19 14 28 0 9
5 16 11 16 5 0 7 4 4 10 -3 6 -1 10 4 10 6 0 10 3 9 8 -4 12 43 82 54 82 6 0
8 3 5 6 -3 4 -1 16 5 28 7 11 13 23 13 26 0 3 22 47 48 99 26 51 47 101 47
110 0 10 6 23 13 29 6 7 12 16 13 20 0 4 8 24 17 44 10 21 17 44 17 53 0 8 5
15 10 15 6 0 10 8 10 18 0 10 3 22 7 26 4 3 8 16 10 28 2 12 8 27 14 35 6 7 9
20 5 28 -3 8 -2 15 3 15 4 0 13 11 19 25 7 16 8 25 2 25 -6 0 -3 11 6 25 9 14
13 25 9 25 -4 0 -2 6 4 13 6 8 8 17 4 20 -3 4 0 13 7 22 7 8 9 15 6 15 -4 0
-2 8 3 18 6 11 13 41 17 68 3 27 9 51 13 54 3 3 6 19 6 35 0 17 4 36 10 44 5
8 11 26 11 40 1 14 5 40 9 56 4 17 8 44 10 60 2 17 4 31 5 33 1 1 4 7 5 12 1
6 4 11 5 13 1 1 4 32 5 68 1 37 6 72 10 79 6 9 4 11 -6 4 -11 -6 -11 -3 1 16
14 21 16 77 15 383 0 216 -5 361 -10 365 -6 4 -10 25 -10 47 1 22 -4 49 -9 60
-5 11 -10 41 -11 67 -1 25 -7 53 -14 62 -9 11 -10 16 -2 16 9 0 9 5 1 20 -6
11 -8 20 -4 20 4 0 -1 9 -11 20 -11 12 -13 20 -6 20 7 0 9 5 4 13 -4 6 -8 18
-10 26 -1 8 -7 17 -13 21 -9 6 -9 9 -1 14 6 4 8 13 4 19 -4 7 -8 25 -9 40 -2
16 -8 35 -14 43 -7 8 -9 14 -5 14 4 0 0 11 -9 25 -10 16 -12 25 -5 25 7 0 5 9
-5 25 -9 14 -14 30 -11 35 3 6 1 10 -6 10 -7 0 -9 3 -6 7 4 3 3 11 -2 17 -6 7
-12 24 -15 40 -3 16 -14 46 -24 67 -11 22 -15 42 -10 47 5 5 2 14 -7 22 -8 7
-15 19 -15 27 0 7 -7 30 -17 51 -9 20 -15 40 -15 45 1 4 -2 7 -6 7 -5 0 -9 6
-10 13 -3 38 -8 53 -20 60 -7 5 -10 12 -7 18 4 5 1 9 -5 9 -6 0 -8 5 -5 10 3
6 2 10 -3 10 -8 0 -20 28 -20 47 0 3 -5 9 -12 13 -6 4 -12 14 -14 22 -1 9 -8
23 -15 32 -7 8 -10 20 -6 26 3 5 -1 13 -9 16 -9 3 -16 12 -16 20 0 14 -45 64
-58 64 -9 0 -62 -48 -62 -56 0 -3 10 -15 23 -26 12 -11 16 -17 10 -13 -7 3
-13 1 -13 -5 0 -6 7 -13 16 -17 8 -3 13 -12 10 -19 -3 -7 1 -17 9 -21 7 -5 16
-21 19 -36 3 -16 11 -36 18 -45 11 -13 11 -15 -2 -8 -9 4 -8 1 3 -7 9 -8 17
-20 17 -27 0 -7 8 -19 18 -27 9 -8 11 -12 5 -8 -7 3 -13 2 -13 -3 0 -6 6 -12
14 -15 7 -3 16 -15 19 -27 5 -18 3 -20 -11 -9 -9 7 -5 0 11 -15 27 -27 36 -43
17 -31 -17 11 -11 -13 8 -27 9 -7 17 -19 18 -25 3 -40 5 -44 17 -37 8 5 8 2
-2 -9 -11 -13 -11 -17 -1 -17 8 0 10 -3 7 -7 -4 -3 1 -15 10 -26 10 -11 12
-17 6 -13 -9 5 -11 2 -7 -8 3 -9 9 -16 13 -16 4 0 7 -14 6 -31 -1 -17 3 -33
10 -35 6 -3 12 -10 13 -17 2 -31 13 -61 24 -69 10 -6 9 -8 -2 -8 -13 0 -13 -1
0 -10 8 -5 11 -10 6 -10 -5 0 -2 -8 5 -17 9 -11 10 -14 2 -9 -9 5 -11 2 -7 -8
3 -9 9 -14 14 -11 4 2 5 -6 3 -19 -3 -13 0 -27 6 -30 5 -4 8 -13 4 -22 -3 -8
1 -22 8 -32 8 -9 14 -32 14 -49 0 -18 3 -33 8 -33 5 0 7 -7 3 -15 -3 -8 -1
-15 3 -15 5 0 12 -7 15 -16 4 -10 2 -13 -7 -8 -8 6 -8 3 1 -8 8 -9 13 -25 12
-35 -4 -32 0 -44 10 -38 5 3 7 0 4 -9 -3 -8 -1 -30 4 -50 7 -25 7 -36 0 -36
-6 0 -3 -10 8 -22 10 -12 13 -18 7 -14 -7 4 -13 2 -13 -3 0 -6 5 -11 12 -11 6
0 9 -2 6 -6 -3 -3 -2 -21 2 -40 4 -18 5 -34 1 -34 -3 0 -6 -14 -7 -30 -1 -17
2 -30 6 -30 4 0 10 -9 13 -20 3 -12 1 -18 -5 -14 -6 4 -5 -2 1 -14 6 -12 11
-34 11 -49 -1 -15 0 -53 0 -83 1 -30 1 -59 0 -65 -4 -23 1 -178 5 -186 3 -4 2
-10 -2 -12 -5 -3 -8 -20 -8 -39 1 -18 -3 -35 -7 -39 -11 -7 -16 -89 -6 -89 5
0 4 -8 -1 -18 -5 -10 -6 -24 -2 -31 9 -15 3 -51 -9 -51 -4 0 -5 -11 -3 -24 3
-13 0 -27 -6 -30 -8 -5 -8 -13 -1 -27 8 -14 7 -19 -1 -19 -7 0 -10 -3 -7 -6 4
-3 2 -20 -3 -37 -17 -53 -18 -67 -9 -67 6 0 6 -9 1 -23 -20 -49 -24 -64 -24
-99 -1 -21 -5 -38 -9 -38 -4 0 -8 -7 -8 -15 0 -8 -4 -15 -9 -15 -5 0 -7 -9 -4
-20 3 -11 0 -26 -6 -34 -9 -11 -9 -16 0 -22 9 -5 7 -11 -6 -21 -11 -7 -14 -13
-9 -13 6 0 11 -6 11 -14 0 -8 -6 -12 -14 -9 -9 4 -11 0 -7 -11 3 -9 1 -16 -5
-16 -6 0 -8 -7 -4 -16 3 -9 0 -20 -8 -25 -8 -5 -9 -9 -2 -9 6 0 9 -9 6 -20 -3
-11 -9 -18 -12 -15 -4 2 -8 -2 -8 -10 0 -8 4 -12 8 -9 5 3 2 -8 -6 -23 -18
-35 -29 -66 -27 -75 1 -5 -3 -8 -9 -8 -5 0 -7 -5 -3 -11 3 -6 0 -15 -7 -20
-13 -7 -17 -21 -22 -71 -1 -10 -7 -18 -14 -18 -9 0 -12 -9 -9 -25 3 -14 1 -23
-4 -20 -10 6 -22 -23 -14 -36 3 -5 0 -9 -5 -9 -6 0 -11 -7 -11 -16 0 -9 -5
-12 -12 -8 -8 5 -7 0 2 -11 9 -11 10 -16 2 -11 -8 5 -14 -2 -18 -23 -4 -19
-13 -31 -23 -31 -14 0 -14 -2 -1 -10 11 -7 11 -10 2 -10 -7 0 -10 -5 -7 -10 3
-5 1 -10 -4 -10 -6 0 -11 -9 -11 -19 0 -11 -9 -23 -21 -26 -16 -5 -18 -10 -8
-21 9 -11 9 -14 0 -14 -7 0 -9 -4 -6 -10 3 -5 2 -10 -3 -10 -12 0 -38 -60 -34
-79 2 -7 -1 -10 -7 -6 -6 3 -11 -1 -11 -10 0 -9 -4 -14 -9 -10 -6 3 -8 -4 -6
-15 2 -11 0 -18 -4 -15 -5 2 -11 -5 -14 -16 -4 -14 -10 -18 -19 -13 -10 6 -10
5 0 -9 12 -14 11 -16 -8 -12 -17 3 -19 1 -11 -8 7 -10 5 -17 -9 -27 -16 -11
-17 -17 -7 -29 9 -12 9 -13 -1 -7 -8 5 -15 -2 -22 -18 -5 -14 -12 -26 -15 -26
-4 0 -3 5 1 12 5 7 3 8 -5 4 -7 -5 -10 -14 -7 -22 3 -8 1 -14 -4 -14 -5 0 -6
-7 -3 -17 4 -11 3 -14 -5 -9 -7 4 -12 2 -12 -4 0 -6 -4 -9 -9 -5 -5 3 -12 1
-16 -5 -3 -5 -1 -10 5 -10 6 0 8 -5 5 -11 -4 -6 -13 -8 -21 -5 -9 3 -11 0 -7
-11 4 -10 2 -14 -4 -10 -6 4 -10 -1 -9 -11 0 -9 -5 -16 -12 -14 -6 1 -11 -4
-10 -10 2 -7 -3 -12 -11 -10 -8 2 -11 -3 -8 -13 4 -8 2 -15 -3 -15 -6 0 -9 -6
-8 -12 2 -7 -5 -12 -15 -12 -15 2 -16 -1 -5 -14 7 -9 9 -13 3 -10 -12 7 -37
-17 -28 -26 4 -3 -1 -6 -11 -6 -9 0 -15 -4 -11 -9 3 -6 -3 -15 -14 -21 -11 -5
-27 -26 -36 -44 -12 -26 -22 -34 -37 -31 -16 4 -18 2 -8 -10 10 -12 9 -15 -4
-15 -9 0 -16 -7 -16 -16 0 -8 -5 -12 -10 -9 -6 4 -7 11 -4 17 4 6 2 8 -4 4 -6
-3 -9 -15 -7 -25 2 -13 -8 -24 -33 -38 -22 -11 -37 -27 -37 -37 0 -10 -10 -23
-23 -30 -12 -7 -19 -15 -15 -20 4 -4 -1 -4 -10 0 -12 4 -17 2 -15 -7 2 -8 -3
-13 -11 -11 -9 2 -11 -3 -7 -13 4 -10 -3 -19 -19 -27 -13 -6 -22 -15 -19 -19
3 -5 -3 -6 -12 -2 -13 5 -16 3 -11 -9 8 -21 -3 -31 -19 -17 -10 8 -12 6 -9
-11 3 -16 0 -20 -10 -16 -8 3 -17 1 -20 -4 -3 -4 1 -11 7 -13 10 -4 10 -6 1
-6 -7 -1 -16 -1 -19 0 -3 0 -14 -10 -25 -22 -13 -15 -19 -18 -20 -8 0 8 -5 1
-11 -15 -8 -21 -13 -25 -19 -15 -7 11 -9 10 -9 -4 0 -10 -4 -16 -8 -13 -5 3
-23 -10 -40 -30 -17 -19 -35 -35 -39 -34 -4 0 -8 -6 -8 -12 -1 -7 -6 -12 -13
-10 -7 1 -12 -2 -12 -8 0 -5 -7 -7 -15 -4 -9 4 -18 -2 -24 -17 -5 -13 -10 -18
-10 -11 -1 7 -6 10 -11 7 -6 -4 -8 -11 -5 -16 4 -5 1 -9 -5 -9 -6 0 -8 -5 -4
-12 5 -8 2 -9 -9 -5 -10 3 -17 2 -17 -3 0 -5 -7 -7 -15 -4 -10 4 -13 0 -10
-15 3 -18 1 -20 -16 -11 -19 10 -25 3 -20 -24 1 -5 -5 -3 -14 4 -14 11 -16 11
-13 -1 2 -8 -4 -13 -14 -13 -16 2 -22 -8 -19 -28 0 -4 -11 -5 -24 -2 -18 3
-25 0 -25 -11 0 -8 -5 -15 -11 -15 -5 0 -7 6 -3 13 4 7 3 9 -2 4 -5 -5 -9 -14
-9 -20 0 -7 -15 -16 -32 -22 -18 -5 -33 -13 -33 -17 0 -4 -9 -8 -20 -8 -11 0
-20 -7 -20 -16 0 -8 -4 -12 -10 -9 -5 3 -10 2 -10 -4 0 -6 -7 -7 -17 -4 -11 4
-14 3 -9 -5 4 -7 1 -12 -9 -12 -10 0 -13 -5 -9 -13 6 -9 4 -9 -8 1 -13 10 -17
10 -21 -2 -4 -9 -15 -13 -26 -11 -12 2 -20 -1 -18 -8 1 -7 -6 -11 -15 -11 -10
1 -15 -3 -11 -9 4 -6 -2 -8 -15 -5 -16 5 -19 2 -14 -11 5 -14 4 -14 -12 -2
-12 10 -16 11 -14 2 2 -7 -14 -18 -34 -25 -21 -8 -38 -11 -38 -8 0 4 -7 -3
-15 -15 -9 -13 -22 -20 -30 -17 -8 4 -15 1 -15 -6 0 -7 -8 -10 -20 -7 -11 3
-20 1 -20 -5 0 -5 -10 -8 -23 -6 -13 1 -32 -7 -46 -21 -19 -19 -25 -21 -32
-10 -6 10 -9 10 -9 2 0 -11 -75 -39 -92 -35 -5 1 -8 -3 -8 -9 0 -5 -4 -7 -10
-4 -5 3 -19 1 -31 -5 -20 -11 -115 -22 -105 -12 9 9 -14 42 -29 42 -8 0 -15 6
-15 14 0 7 -10 20 -22 28 -13 9 -23 27 -25 49 -4 47 -4 50 0 86 2 18 -1 34 -6
36 -5 1 -3 10 6 19 12 12 13 18 4 28 -9 10 -9 11 1 6 11 -7 17 16 15 62 -1 7
5 11 11 9 9 -4 11 2 8 19 -2 13 0 24 6 24 6 0 8 9 5 20 -3 12 0 20 7 20 7 0
10 8 7 19 -2 11 3 28 12 38 9 10 15 28 13 40 -2 13 2 23 8 23 7 0 10 8 7 19
-3 11 3 28 15 40 12 14 14 21 6 21 -9 0 -9 3 2 10 8 5 12 10 8 10 -11 0 20
103 34 111 9 6 10 9 1 9 -8 0 -3 19 13 56 13 30 22 60 18 65 -3 5 0 16 6 24 7
8 12 38 11 67 0 68 -5 91 -19 96 -7 2 -12 8 -12 13 0 4 8 6 18 3 13 -5 14 -4
3 4 -8 6 -21 8 -29 4 -9 -3 -13 -1 -9 5 4 5 -1 19 -9 29 -9 10 -13 13 -9 7 10
-21 -9 -15 -23 7 -7 11 -18 20 -26 20 -7 0 -19 7 -26 15 -6 8 -15 14 -18 13
-21 -2 -42 3 -38 10 4 7 -13 12 -56 15 -10 1 -18 5 -18 10 0 4 -4 5 -10 2 -5
-3 -10 -1 -10 5 0 6 -4 8 -10 5 -5 -3 -10 -2 -10 4 0 6 -7 8 -15 4 -9 -3 -22
2 -30 13 -10 13 -14 15 -15 5 0 -10 -3 -11 -13 -3 -7 6 -36 12 -64 14 -28 2
-49 6 -46 11 5 8 6 8 -55 10 -23 1 -42 -1 -42 -5 0 -4 -13 -3 -30 2 -19 5 -30
5 -30 -1 0 -6 -5 -7 -11 -4 -16 11 -69 12 -69 3 0 -5 -9 -4 -19 2 -14 7 -22 7
-26 -1 -4 -6 -13 -8 -21 -5 -8 3 -14 1 -14 -5 0 -6 -4 -8 -9 -4 -5 3 -13 0
-16 -6 -4 -5 -13 -8 -21 -5 -7 3 -20 -5 -29 -17 -9 -13 -15 -16 -15 -7 0 11
-3 11 -12 -2 -18 -22 -58 -33 -58 -16 0 10 -3 9 -10 -2 -8 -13 -10 -12 -10 3
0 9 -4 17 -8 17 -5 0 -9 7 -9 15 0 8 4 12 9 9 4 -3 8 0 8 6 0 6 6 8 13 4 6 -4
9 -4 5 0 -3 4 -1 21 7 38 13 31 9 72 -5 63 -5 -3 -6 3 -3 14 3 10 -1 22 -8 26
-8 5 -10 4 -5 -3 4 -7 2 -12 -5 -12 -7 0 -9 8 -6 21 5 17 3 18 -11 7 -14 -11
-15 -10 -9 5 4 10 3 16 -1 14 -10 -7 -32 19 -24 29 4 5 -1 2 -11 -6 -16 -11
-18 -11 -15 1 2 8 7 17 12 20 5 4 -1 10 -13 14 -14 4 -20 12 -17 21 3 8 2 14
-3 14 -4 0 -8 7 -8 15 0 8 4 15 9 15 4 0 8 5 8 11 0 5 -6 7 -12 3 -9 -5 -8 -2
1 9 10 13 17 15 27 6 10 -8 14 -8 14 0 0 6 5 11 11 11 5 0 7 -5 4 -11 -4 -6 2
-19 14 -30 13 -12 18 -25 14 -37 -6 -14 -4 -15 9 -4 13 10 18 10 24 1 5 -8 3
-9 -6 -4 -9 5 -11 4 -6 -3 4 -7 15 -12 24 -13 11 0 12 -3 5 -6 -7 -2 -13 -9
-13 -14 0 -6 4 -7 10 -4 5 3 18 1 27 -4 10 -6 14 -11 8 -11 -5 0 -1 -6 10 -14
11 -7 22 -13 25 -13 3 0 15 -5 26 -11 12 -6 25 -8 29 -4 4 4 17 7 28 7 15 0
22 6 22 20 1 11 6 19 11 18 6 -1 11 4 11 12 0 8 -5 12 -10 8 -5 -3 -1 6 8 21
10 15 13 26 6 26 -5 0 -8 7 -5 15 6 14 -11 20 -38 16 -5 0 -8 4 -8 10 0 8 -6
7 -17 -2 -11 -10 -14 -10 -9 -1 4 7 2 12 -4 12 -6 0 -8 4 -5 10 4 6 -1 7 -11
3 -12 -4 -15 -3 -10 5 5 8 0 12 -12 12 -11 0 -23 7 -26 16 -3 8 -11 12 -17 8
-8 -5 -9 -3 -5 5 6 9 13 8 29 -6 l22 -18 -19 23 c-11 12 -25 21 -32 18 -9 -3
-11 1 -7 11 5 13 2 15 -11 10 -9 -4 -15 -3 -11 2 3 6 -3 15 -12 21 -17 11 -17
11 0 6 16 -5 16 -4 1 19 -9 14 -20 25 -24 25 -5 0 -6 9 -3 20 3 11 1 20 -5 20
-5 0 -13 7 -16 16 -3 8 -2 12 4 9 6 -3 10 -2 10 3 0 6 -6 12 -14 15 -7 3 -12
17 -11 34 1 15 -4 38 -12 50 -8 15 -10 23 -3 23 6 0 8 5 5 11 -4 5 -9 25 -12
42 -3 18 -9 37 -14 43 -5 6 -6 14 -2 17 3 4 -2 9 -11 13 -9 3 -14 10 -11 14 3
5 1 11 -5 15 -6 4 -8 11 -5 16 4 5 1 9 -4 9 -6 0 -11 4 -11 10 0 5 -13 23 -30
38 -16 16 -26 33 -22 37 4 5 -1 5 -11 2 -10 -4 -16 -3 -14 1 3 4 -1 13 -9 20
-8 7 -14 10 -14 6 0 -3 -7 -1 -15 6 -18 15 -67 21 -58 7 4 -6 -2 -8 -16 -4
-17 4 -20 3 -12 -7 8 -10 5 -18 -14 -32 -18 -13 -21 -21 -13 -31 6 -7 6 -13 2
-13 -5 0 -15 -9 -22 -21 -8 -12 -9 -18 -3 -15 7 4 8 1 5 -8 -3 -9 -10 -16 -15
-16 -4 0 -6 -7 -3 -15 4 -8 1 -15 -6 -15 -7 0 -10 -6 -7 -14 3 -7 1 -18 -3
-22 -5 -5 -10 -24 -12 -42 -1 -17 -5 -32 -9 -32 -3 0 -5 -72 -5 -160 1 -88 -1
-160 -4 -160 -3 0 -6 -8 -7 -17 -3 -48 -57 -168 -84 -187 -14 -9 -17 -16 -9
-21 8 -5 5 -11 -7 -21 -10 -7 -14 -14 -10 -14 4 0 2 -10 -5 -23 -6 -12 -13
-33 -14 -48 -1 -14 -5 -43 -9 -65 -12 -71 -12 -105 0 -117 6 -7 10 -17 8 -23
-2 -6 3 -17 12 -24 8 -7 15 -18 15 -24 0 -7 11 -23 25 -36 13 -12 22 -27 18
-33 -3 -6 -2 -7 4 -4 12 8 56 -36 46 -46 -3 -4 -1 -7 6 -7 7 0 25 -13 41 -30
15 -16 30 -27 33 -23 4 3 13 0 22 -7 8 -7 15 -9 15 -6 0 4 10 1 22 -5 13 -7
75 -13 148 -15 151 -3 143 -2 135 -14 -5 -8 7 -14 18 -9 1 1 27 -12 57 -28 50
-26 63 -29 145 -28 50 1 99 6 110 12 11 6 28 9 37 8 9 -2 22 3 29 11 6 8 16
11 21 8 6 -4 14 -1 18 5 4 7 14 13 22 15 8 1 23 10 33 19 10 10 24 16 32 13 8
-3 11 -1 8 4 -7 12 35 31 49 22 5 -3 6 0 2 6 -6 10 16 29 37 31 4 0 24 8 45
17 20 9 42 17 47 18 6 1 16 5 23 9 7 5 20 6 31 2 14 -4 17 -12 13 -33 -6 -31
-31 -54 -50 -47 -7 3 -11 1 -9 -3 4 -8 -29 -42 -36 -36 -2 2 -10 -2 -17 -11
-7 -8 -19 -15 -28 -15 -8 0 -13 -3 -10 -6 10 -9 -32 -45 -44 -38 -6 4 -8 3 -5
-3 4 -6 -4 -23 -18 -39 -13 -15 -22 -31 -19 -35 2 -4 -3 -10 -12 -13 -9 -4
-14 -9 -11 -13 4 -3 1 -13 -5 -21 -14 -17 -20 -171 -7 -187 4 -6 10 -22 13
-37 5 -28 26 -69 41 -80 6 -5 5 -8 -4 -8 -9 0 -10 -4 -4 -12 6 -8 9 -79 8
-163 -2 -129 -5 -155 -22 -187 -20 -36 -22 -65 -8 -100 4 -11 3 -18 -4 -18 -6
0 -10 -3 -10 -7 5 -28 -9 -34 -88 -36 -18 -1 -33 -4 -33 -7 0 -11 -8 -11 -445
-14 -254 -1 -425 1 -432 7 -9 6 -13 5 -13 -4 0 -11 -2 -12 -9 -1 -4 7 -28 15
-52 17 -24 2 -55 7 -69 10 -14 4 -42 8 -62 9 -21 0 -38 4 -38 8 0 5 -3 7 -7 7
-5 -1 -10 -1 -13 0 -3 2 -20 4 -39 7 -19 2 -39 8 -45 13 -6 5 -22 7 -36 6 -14
-1 -29 0 -35 4 -5 3 -12 6 -15 7 -3 0 -25 7 -50 14 -25 7 -47 14 -50 15 -3 0
-15 6 -28 13 -12 7 -27 10 -32 7 -6 -3 -10 -1 -10 5 0 8 -6 8 -20 0 -13 -7
-20 -7 -20 -1 0 13 -34 31 -68 37 -15 3 -32 10 -39 16 -7 6 -13 8 -13 4 0 -4
-13 0 -30 9 -16 9 -30 13 -30 9 0 -4 -6 -2 -12 4 -7 6 -15 10 -18 10 -3 -1
-24 9 -47 21 -23 11 -49 21 -58 21 -8 0 -15 5 -15 12 0 6 -3 8 -6 5 -12 -11
-43 13 -38 28 4 8 1 15 -5 15 -8 0 -8 5 0 18 10 16 27 18 144 17 73 0 131 -3
128 -7 -4 -7 28 -13 50 -9 4 0 7 -3 7 -7 0 -4 8 -8 18 -9 64 -6 93 -11 104
-19 7 -5 27 -9 43 -9 17 0 33 -4 37 -9 3 -5 91 -10 195 -11 112 0 196 -5 208
-12 11 -6 30 -9 42 -7 22 4 105 44 91 44 -4 0 17 25 47 55 30 30 60 55 67 55
6 0 8 3 5 6 -10 10 34 45 46 37 5 -3 7 -1 3 5 -3 6 4 22 16 35 13 14 32 42 43
64 11 21 26 44 32 51 7 7 13 20 13 28 0 8 5 14 10 14 6 0 10 9 10 19 0 11 4
22 9 25 5 3 8 22 6 41 -1 27 -11 44 -38 69 -20 18 -39 31 -42 28 -3 -4 -17 7
-30 22 -14 16 -25 26 -25 21 0 -4 -6 -2 -13 4 -8 6 -17 8 -20 4 -4 -3 -7 1 -7
10 0 10 -7 17 -15 17 -8 0 -24 10 -37 23 -13 12 -32 21 -43 19 -16 -2 -17 -1
-5 7 13 9 13 11 -2 11 -10 0 -18 4 -18 10 0 5 -3 9 -7 8 -5 -1 -18 3 -30 10
-13 7 -23 10 -23 7 0 -4 -7 1 -16 10 -9 9 -22 14 -30 11 -7 -3 -15 0 -18 7 -3
9 -8 8 -15 -3 -6 -8 -11 -12 -11 -8 0 12 -42 -33 -44 -47 -1 -7 -8 -20 -15
-29 -7 -9 -10 -16 -6 -16 4 0 2 -6 -4 -14 -13 -16 -18 -198 -7 -231 4 -11 13
-32 21 -47 8 -16 10 -28 4 -28 -6 0 -7 -5 -3 -12 11 -17 12 -108 2 -108 -4 0
-8 -7 -8 -16 0 -10 -6 -14 -15 -10 -8 3 -14 0 -12 -7 1 -7 -5 -11 -13 -9 -8 2
-22 4 -32 5 -9 1 -16 4 -16 7 0 3 -1 7 -2 10 -1 3 -3 22 -5 43 -2 26 -12 46
-34 66 -17 16 -27 31 -24 35 3 3 1 6 -5 6 -7 0 -21 8 -32 17 -11 10 -23 17
-25 15 -3 -1 -21 6 -40 17 -38 20 -126 21 -149 2 -7 -6 -16 -8 -19 -4 -4 3 -7
1 -7 -5 0 -7 -9 -12 -19 -12 -11 0 -21 -5 -23 -10 -2 -6 -13 -12 -25 -13 -12
0 -19 -5 -17 -9 3 -5 -2 -11 -10 -14 -9 -3 -13 -10 -10 -15 3 -5 -3 -6 -12 -2
-12 4 -15 3 -10 -5 5 -8 0 -12 -13 -12 -10 0 -21 -6 -23 -12 -4 -10 -49 -13
-179 -14 -96 0 -178 2 -184 5 -33 18 -143 21 -160 4 -8 -7 -18 -13 -24 -13 -6
0 -11 -7 -11 -15 0 -8 -7 -15 -16 -15 -9 0 -12 -5 -8 -12 5 -8 0 -9 -14 -6
-12 4 -22 1 -22 -4 0 -6 -6 -5 -15 2 -8 7 -15 9 -15 6 0 -4 -13 1 -30 11 -16
9 -30 21 -30 26 0 4 -4 6 -9 3 -4 -3 -19 3 -31 14 -13 11 -26 20 -30 20 -4 0
-20 11 -35 24 -16 14 -32 23 -35 21 -4 -2 -13 5 -20 16 -8 10 -20 19 -27 19
-7 0 -12 3 -10 8 1 4 -2 9 -8 10 -27 10 -45 24 -40 32 3 5 -10 14 -29 21 -19
7 -34 17 -33 23 1 6 -3 10 -10 9 -6 -2 -15 6 -18 17 -4 11 -11 18 -16 15 -5
-4 -12 1 -15 9 -3 9 -13 16 -21 16 -8 0 -11 5 -8 10 3 6 -1 10 -9 10 -9 0 -16
5 -16 12 0 6 -3 9 -6 5 -11 -10 -47 31 -38 44 5 9 2 10 -10 6 -12 -5 -19 0
-26 16 -5 12 -9 18 -9 13 -1 -5 -10 1 -21 14 -11 12 -17 26 -14 31 3 5 -2 6
-10 3 -9 -3 -16 -1 -16 6 0 6 -5 8 -12 4 -7 -4 -8 -3 -4 4 4 6 -2 17 -14 24
-11 7 -20 19 -20 27 0 8 -3 12 -6 8 -8 -8 -34 18 -34 34 0 7 -3 10 -6 6 -10
-10 -47 30 -39 43 4 7 0 10 -11 8 -11 -2 -18 2 -17 9 2 7 -1 13 -7 13 -14 0
-68 58 -75 80 -3 10 -13 21 -21 24 -8 3 -12 10 -9 16 3 5 0 10 -8 10 -14 0
-29 23 -24 36 1 3 -6 10 -16 15 -9 6 -14 15 -11 21 4 6 3 8 -3 5 -5 -3 -15 3
-23 13 -8 10 -18 16 -24 13 -6 -4 -5 0 2 9 10 13 10 17 -3 22 -9 3 -14 10 -10
15 3 5 -4 12 -15 16 -11 4 -18 11 -15 16 4 5 -1 9 -10 9 -9 0 -14 4 -10 9 3 5
-1 15 -8 23 -18 18 -42 61 -39 70 1 5 -1 7 -6 5 -4 -1 -8 3 -10 8 -2 6 -11 18
-19 28 -9 9 -14 20 -10 23 3 3 -5 17 -19 31 -13 13 -22 29 -19 34 4 5 2 9 -3
9 -13 0 -53 76 -45 84 4 3 1 6 -5 6 -7 0 -12 7 -12 15 0 8 -9 23 -20 32 -11
10 -20 23 -20 30 0 6 -5 24 -12 40 -6 15 -12 32 -12 36 -1 4 -5 11 -11 15 -10
7 -17 27 -18 49 0 7 -8 15 -18 18 -11 4 -15 12 -12 25 3 11 1 20 -4 20 -5 0
-15 20 -22 46 -7 25 -20 52 -28 60 -8 7 -10 14 -4 14 6 0 5 11 -4 28 -26 52
-38 87 -36 100 1 8 -3 20 -9 27 -7 8 -9 19 -5 25 3 5 2 10 -3 10 -5 0 -13 15
-17 33 -8 34 -8 34 -18 57 -4 8 -8 24 -10 35 -1 11 -7 27 -12 35 -5 8 -10 25
-11 38 -2 14 -6 32 -10 41 -4 9 -8 29 -10 45 -2 16 -8 34 -13 40 -4 6 -7 24
-6 39 1 15 -2 30 -7 33 -4 3 -6 10 -3 15 4 5 3 9 -2 9 -4 0 -8 28 -8 63 0 34
-3 67 -6 72 -4 6 -8 13 -8 18 -1 4 -1 8 -2 10 -1 1 -2 20 -4 42 -1 22 -4 40
-5 40 -9 0 -12 102 -11 395 1 394 0 372 10 366 4 -3 7 31 7 75 -1 43 2 79 5
79 3 0 6 6 6 13 3 44 12 97 19 108 4 7 9 31 10 54 1 22 3 41 4 43 2 1 4 7 5
12 1 6 3 11 5 13 1 1 3 16 5 32 2 17 11 49 19 73 9 24 19 60 22 80 3 20 10 43
16 49 6 7 8 19 5 28 -4 8 -1 20 6 27 19 21 46 108 33 108 -6 0 -5 4 3 9 8 5
16 19 18 32 2 12 8 28 14 36 6 7 9 19 6 28 -4 8 0 21 8 29 8 8 15 20 15 26 0
6 11 33 25 60 14 27 26 57 28 67 5 24 50 117 60 121 4 2 7 12 7 23 0 10 5 19
11 19 6 0 9 9 6 20 -3 13 0 20 9 20 8 0 15 8 16 18 6 66 5 70 -10 64 -9 -3
-13 -1 -9 5 3 5 0 10 -8 10 -8 0 -17 -7 -19 -14z m5826 -3965 c-7 -7 -12 -8
-12 -2 0 14 12 26 19 19 2 -3 -1 -11 -7 -17z m-152 -152 c0 -2 -7 -7 -16 -10
-8 -3 -12 -2 -9 4 6 10 25 14 25 6z"/>
<path d="M1880 5421 c-8 -6 -18 -7 -22 -5 -18 11 -25 -8 -18 -46 4 -22 4 -40
1 -40 -11 0 -5 -55 9 -80 8 -14 8 -20 1 -16 -7 5 -9 1 -5 -8 3 -9 10 -16 14
-16 7 0 24 -57 21 -73 -1 -5 3 -6 9 -2 5 3 10 -1 10 -9 0 -9 6 -16 13 -16 9 0
8 -3 -2 -9 -11 -7 -9 -11 8 -20 11 -7 21 -16 21 -22 0 -6 -5 -7 -12 -3 -7 4
-8 3 -4 -5 4 -6 11 -9 15 -7 4 3 13 -4 21 -14 8 -10 18 -16 24 -13 6 3 8 3 4
-2 -10 -11 10 -45 27 -45 7 0 17 -5 21 -12 5 -7 3 -8 -6 -3 -8 5 -11 4 -6 -3
4 -6 13 -9 20 -6 7 3 16 -2 19 -10 4 -9 14 -16 22 -16 9 0 14 -4 11 -8 -2 -4
11 -7 29 -7 24 0 31 3 24 12 -6 7 -6 12 0 15 13 4 21 88 9 88 -5 0 -4 8 1 18
5 10 6 24 2 31 -5 7 -5 28 -1 47 6 24 4 39 -5 48 -11 10 -11 16 -2 26 7 7 7
10 2 7 -6 -3 -17 3 -24 15 -7 11 -8 17 -2 14 7 -4 8 -1 5 8 -3 9 -10 13 -15
10 -5 -3 -9 2 -9 11 0 9 -4 13 -10 10 -5 -3 -10 4 -10 15 0 17 -4 21 -17 16
-10 -4 -14 -4 -10 0 7 7 -30 44 -45 44 -5 0 -14 12 -20 26 -11 23 -13 24 -19
7 -6 -15 -8 -15 -8 -2 -1 9 -11 20 -23 24 -13 4 -26 8 -30 10 -5 1 -13 3 -19
4 -5 0 -7 6 -4 11 8 12 4 12 -15 1z"/>
<path d="M2239 5288 c-4 -63 -3 -118 3 -118 4 0 5 -9 3 -20 -2 -11 1 -23 7
-26 7 -5 8 -2 3 6 -5 9 -4 11 4 6 9 -6 9 -11 0 -22 -7 -8 -7 -14 -1 -14 5 0
13 -7 16 -16 4 -10 2 -13 -7 -8 -9 6 -9 5 0 -7 9 -12 17 -164 13 -274 -2 -67
1 -90 25 -159 14 -42 23 -81 20 -86 -4 -6 -1 -9 7 -8 8 2 14 -8 16 -25 2 -15
8 -25 13 -22 5 4 9 1 9 -6 0 -7 8 -22 18 -33 16 -20 16 -20 -1 -7 -15 12 -17
12 -11 -3 3 -9 12 -16 20 -16 8 0 14 -5 14 -11 0 -5 4 -8 9 -5 11 7 23 -22 15
-35 -3 -5 0 -9 5 -9 6 0 11 6 12 13 0 7 3 6 7 -3 14 -30 56 -70 74 -70 10 0
18 -4 18 -10 0 -5 7 -10 15 -10 9 0 18 -7 21 -15 4 -8 10 -12 15 -9 6 3 21 -2
34 -10 19 -12 25 -13 25 -4 0 9 3 8 10 -2 5 -8 10 -11 10 -7 0 4 8 4 17 -2 9
-5 26 -5 38 -1 12 5 28 4 35 0 8 -5 22 -4 32 1 10 5 18 6 18 1 0 -14 127 0
159 18 13 6 25 9 28 6 4 -3 13 3 20 14 8 11 20 17 26 14 7 -4 9 -4 5 1 -4 4
-2 17 4 28 9 17 8 19 -6 14 -8 -3 -18 -2 -21 3 -3 4 1 10 7 13 7 3 4 5 -7 6
-56 2 -105 -2 -105 -10 0 -4 -24 -7 -52 -7 -29 0 -57 -1 -63 -2 -32 -6 -92 4
-107 17 -12 11 -18 11 -23 2 -6 -8 -10 -7 -17 5 -5 9 -16 16 -23 16 -8 0 -15
6 -15 13 0 8 -4 7 -10 -3 -8 -13 -10 -12 -10 3 0 10 -4 15 -10 12 -5 -3 -10 0
-10 7 0 9 -3 9 -10 -2 -8 -12 -10 -11 -10 6 0 14 -8 24 -21 27 -15 4 -20 11
-15 22 3 9 2 14 -3 10 -16 -9 -41 7 -41 27 0 13 -5 18 -14 15 -10 -4 -12 0 -9
14 4 14 0 19 -13 19 -15 0 -16 2 -5 9 11 7 11 10 -2 17 -9 5 -18 22 -21 38 -3
16 -11 33 -18 38 -10 6 -10 8 2 8 12 1 12 2 -2 10 -10 6 -14 18 -11 30 3 11 1
26 -4 33 -5 6 -11 32 -12 56 -1 24 -2 47 -3 50 0 3 1 9 2 14 4 17 3 75 -3 90
-3 9 -2 19 3 22 7 4 6 13 0 25 -7 13 -7 21 0 25 7 4 7 12 0 25 -7 13 -6 20 1
22 8 3 6 10 -5 21 -13 12 -14 17 -4 17 10 0 9 3 -2 10 -8 5 -11 10 -6 10 5 0
3 7 -4 15 -10 12 -10 15 1 15 8 0 5 6 -7 15 -13 10 -15 14 -5 15 9 0 6 7 -9
20 -13 11 -18 20 -12 20 6 0 9 7 6 15 -4 8 -10 12 -15 9 -5 -3 -9 2 -9 11 0
10 -5 13 -12 9 -8 -5 -9 -2 -5 10 5 14 3 17 -8 12 -8 -3 -15 -1 -15 4 0 15
-30 12 -31 -2z"/>
<path d="M2618 5003 c-1 -30 -1 -56 1 -59 2 -2 5 -20 6 -40 1 -20 8 -40 15
-44 7 -4 10 -13 6 -19 -5 -7 -1 -8 10 -4 11 4 15 2 11 -4 -4 -5 0 -19 8 -29
15 -18 15 -18 9 1 -7 20 -7 20 9 0 8 -11 13 -24 9 -30 -3 -5 3 -3 13 5 11 9
16 10 11 3 -5 -9 -1 -13 11 -14 10 -1 28 -3 40 -4 12 -1 20 1 18 6 -3 4 1 13
8 21 8 7 13 23 12 36 -1 13 2 25 7 28 4 3 3 14 -2 25 -6 10 -8 19 -4 19 3 0 0
8 -7 17 -12 14 -12 16 1 9 8 -4 7 -1 -4 8 -10 8 -15 20 -10 27 5 8 3 10 -6 4
-10 -6 -12 -4 -6 10 5 15 4 16 -8 6 -12 -10 -16 -8 -21 8 -3 12 -11 21 -16 21
-5 0 -18 9 -30 21 -12 12 -36 23 -54 24 l-33 3 -4 -55z"/>
<path d="M3180 4936 c0 -2 8 -10 18 -17 15 -13 16 -12 3 4 -13 16 -21 21 -21
13z"/>
<path d="M1882 4763 c-22 -3 -30 -8 -25 -16 4 -8 2 -8 -9 1 -13 10 -17 10 -22
-4 -4 -10 -13 -14 -26 -11 -11 3 -18 0 -17 -6 1 -5 -9 -13 -23 -17 -14 -4 -24
-12 -22 -19 1 -7 -2 -10 -8 -6 -17 11 -32 -5 -19 -21 6 -8 8 -14 4 -14 -5 0 0
-9 10 -20 10 -11 25 -20 33 -20 8 0 21 -8 29 -17 8 -10 12 -12 8 -6 -4 9 -1
11 9 7 9 -3 13 -11 9 -16 -4 -7 4 -9 20 -6 17 3 24 1 20 -5 -4 -6 0 -8 10 -4
10 3 17 2 17 -3 0 -6 9 -6 25 0 13 5 26 6 29 2 7 -11 100 -6 125 8 18 9 22 9
16 0 -6 -9 -2 -9 14 -1 11 7 21 16 21 22 0 6 5 7 10 4 6 -3 10 1 10 9 0 9 5
16 11 16 5 0 7 -4 4 -10 -12 -19 12 -10 31 12 19 22 19 22 -1 8 -19 -15 -19
-15 -2 13 10 15 13 27 7 27 -6 0 -8 5 -5 10 3 6 -1 10 -10 10 -9 0 -14 4 -10
9 3 5 0 13 -6 17 -8 5 -9 3 -4 -6 6 -10 4 -12 -9 -7 -10 4 -20 7 -22 7 -3 0
-2 5 1 10 3 6 0 10 -9 10 -8 0 -16 5 -18 11 -2 6 -18 12 -35 14 -17 1 -35 5
-40 8 -6 4 -24 2 -41 -3 -19 -5 -34 -5 -37 1 -4 5 -9 8 -13 7 -4 0 -22 -3 -40
-5z m-127 -141 c-3 -3 -11 0 -18 7 -9 10 -8 11 6 5 10 -3 15 -9 12 -12z"/>
<path d="M2573 4697 c-2 -4 -8 -5 -12 -3 -4 3 -13 1 -20 -3 -11 -7 -10 -14 4
-35 10 -14 22 -26 27 -26 6 0 4 -8 -3 -17 -7 -10 -9 -15 -5 -11 5 4 17 -2 27
-14 24 -27 24 -35 2 -17 -16 13 -17 12 -4 -3 7 -10 24 -18 37 -18 14 0 23 -5
22 -12 -2 -7 3 -12 10 -10 8 1 11 -2 8 -7 -4 -5 -2 -12 4 -16 5 -3 10 -1 10 5
0 6 5 8 10 5 6 -4 8 -11 5 -16 -4 -5 3 -9 15 -9 12 0 30 -5 41 -10 13 -8 19
-7 19 0 0 7 6 8 19 1 28 -16 37 10 27 74 -1 6 -6 16 -10 24 -6 10 -5 12 2 7 8
-5 10 -2 6 8 -3 9 -10 13 -15 10 -5 -3 -9 2 -9 11 0 10 -5 13 -12 9 -8 -5 -9
-2 -5 10 4 10 3 15 -3 11 -5 -3 -14 4 -20 15 -6 11 -17 20 -25 20 -8 0 -15 5
-15 10 0 6 -5 10 -11 10 -5 0 -7 -6 -3 -12 6 -9 3 -9 -9 0 -18 15 -106 22
-114 9z"/>
<path d="M3483 4307 c-4 -6 -1 -7 8 -2 8 4 5 -1 -6 -12 -11 -11 -23 -19 -27
-17 -3 2 -5 -4 -3 -13 1 -10 -2 -23 -7 -30 -6 -7 -5 -19 2 -33 6 -11 8 -25 5
-30 -3 -5 -1 -11 4 -14 7 -5 8 -64 0 -73 -1 -2 -2 -11 -3 -20 -1 -10 -4 -22
-7 -28 -4 -5 -5 -20 -4 -32 1 -13 -2 -23 -6 -23 -5 0 -6 -7 -2 -15 3 -9 -3
-23 -13 -31 -11 -9 -13 -12 -5 -8 10 5 12 3 5 -7 -15 -24 -16 -40 -18 -244 -2
-197 4 -245 32 -245 6 0 12 -5 12 -11 0 -5 4 -8 9 -4 14 8 43 -25 37 -42 -3
-8 -2 -11 4 -8 14 9 50 -17 50 -37 0 -9 4 -19 9 -22 5 -4 8 -17 6 -31 -2 -19
1 -23 10 -15 8 7 12 6 12 -3 1 -25 9 -43 27 -59 12 -12 14 -18 6 -18 -10 0 -9
-5 3 -18 10 -10 15 -22 12 -25 -3 -4 -2 -5 2 -2 9 7 34 -16 27 -26 -3 -5 -2
-9 3 -8 17 3 36 -1 30 -7 -8 -8 25 -44 41 -44 7 0 10 -4 7 -10 -3 -5 1 -10 10
-10 9 0 13 -4 10 -10 -3 -5 0 -7 8 -4 8 3 22 -2 30 -11 9 -8 20 -15 24 -14 4
1 10 0 13 -1 3 -1 18 -3 33 -4 23 -3 28 0 24 15 -3 11 -1 22 4 25 5 3 7 9 4
13 -2 5 6 13 18 18 28 13 41 0 44 -42 4 -49 9 -69 21 -91 6 -12 8 -24 5 -28
-3 -3 -1 -6 5 -6 7 0 12 -5 12 -11 0 -15 26 -39 34 -32 3 4 6 1 6 -5 0 -24 2
-27 23 -39 22 -11 33 -67 17 -88 -6 -9 -6 -74 1 -177 1 -21 6 -38 11 -38 5 0
6 -5 3 -11 -4 -5 0 -18 9 -28 15 -16 20 -31 30 -80 3 -17 36 -42 46 -36 5 3
11 -2 14 -11 4 -10 2 -13 -6 -8 -7 5 -8 3 -3 -5 4 -7 16 -11 26 -8 11 3 17 2
14 -3 -3 -4 2 -10 10 -14 8 -3 15 -2 15 2 0 4 18 7 40 6 35 -1 38 1 27 15 -6
8 -7 13 -2 10 11 -6 56 37 47 45 -3 3 0 6 7 6 7 0 9 5 6 10 -3 6 -1 10 5 10 6
0 8 5 5 10 -3 6 1 13 10 16 13 5 13 9 3 22 -9 11 -9 14 -1 9 13 -8 37 26 26
37 -3 3 -1 6 6 6 7 0 11 6 9 12 -3 7 5 21 16 31 12 10 15 15 8 12 -11 -6 -12
-3 -2 14 6 12 15 19 20 16 5 -3 7 4 5 15 -2 11 2 26 10 34 10 10 11 16 3 24
-9 9 -6 10 10 7 12 -2 21 1 19 7 -1 6 9 14 23 18 14 4 24 13 22 20 -2 11 0 11
11 1 8 -6 17 -8 19 -3 5 15 48 25 48 12 0 -6 5 -8 12 -4 7 4 8 3 4 -4 -4 -7
-16 -12 -27 -12 -11 0 -17 -5 -14 -10 4 -6 11 -8 16 -5 5 4 9 1 9 -4 0 -6 -5
-11 -11 -11 -5 0 -9 -8 -8 -17 1 -10 0 -20 -1 -23 -7 -18 -4 -58 5 -57 5 1 9
-4 7 -10 -1 -7 2 -13 8 -13 5 0 10 -9 10 -21 0 -11 5 -17 10 -14 6 3 10 -2 10
-11 0 -10 3 -14 7 -11 3 4 12 2 20 -4 10 -9 13 -8 13 0 0 7 4 10 9 7 15 -10
41 5 41 23 0 14 2 14 10 1 9 -13 10 -13 10 0 0 10 12 16 36 18 21 1 33 -2 29
-8 -3 -6 1 -7 10 -4 8 4 23 0 32 -7 14 -13 16 -11 11 13 -3 17 -1 25 5 21 6
-4 8 0 4 10 -3 10 -2 17 4 17 6 0 8 4 4 9 -3 5 0 13 6 17 7 4 9 3 5 -4 -3 -6
-2 -13 3 -16 5 -3 8 8 7 24 -1 17 1 30 6 30 4 0 8 5 8 11 0 5 -4 7 -10 4 -5
-3 -10 -1 -10 6 0 6 -8 18 -17 26 -10 8 -12 12 -5 8 6 -3 12 -1 12 4 0 6 -5
11 -10 11 -6 0 -10 7 -8 16 2 10 -4 19 -12 21 -13 4 -13 3 0 -6 11 -8 11 -11
2 -11 -7 0 -15 6 -18 14 -3 8 -17 13 -35 12 -16 -1 -35 4 -40 11 -6 7 -15 10
-20 7 -5 -3 -9 0 -9 6 0 6 -4 8 -10 5 -5 -3 -10 3 -10 15 0 12 -4 18 -10 15
-5 -3 -11 -3 -11 2 -6 35 -3 50 12 65 16 16 19 15 39 -2 13 -11 29 -16 38 -13
15 6 15 4 4 -9 -11 -14 -10 -16 5 -14 10 2 21 -1 24 -6 3 -5 17 -5 32 1 16 6
29 7 32 1 3 -5 13 -6 23 -3 13 5 15 3 5 -7 -9 -10 -9 -19 3 -41 8 -16 14 -31
14 -34 -1 -22 2 -25 13 -19 7 5 7 2 -2 -10 -8 -9 -10 -16 -5 -14 10 3 56 -27
50 -33 -2 -2 6 -13 17 -24 11 -11 16 -13 12 -5 -8 13 -7 13 9 0 19 -15 75 -15
90 0 15 15 14 171 -3 225 -8 28 -15 52 -15 55 -3 16 -52 70 -65 71 -11 0 -12
2 -3 6 6 2 12 9 12 14 0 4 -7 6 -15 3 -10 -4 -15 0 -15 11 0 9 -4 14 -9 11 -5
-3 -11 1 -15 9 -3 8 -14 15 -25 15 -11 0 -24 6 -28 14 -15 26 -90 35 -195 24
-10 -1 -18 -6 -18 -10 0 -4 -17 -15 -37 -24 -41 -18 -173 -26 -173 -11 0 5 -6
5 -13 -2 -10 -8 -17 -7 -25 1 -15 15 -151 18 -153 4 -1 -6 -3 -56 -4 -111 -1
-55 -3 -105 -4 -112 -1 -12 -31 -10 -51 2 -6 3 -10 0 -10 -7 0 -7 -6 -4 -12 7
-7 11 -13 58 -14 105 -3 120 -3 122 -13 116 -5 -4 -7 3 -4 14 3 11 0 26 -6 33
-6 8 -8 17 -4 20 3 4 1 7 -6 7 -7 0 -10 4 -7 9 3 5 -5 16 -19 25 -14 9 -25 23
-25 32 0 8 -4 13 -8 10 -5 -3 -19 4 -30 15 -12 11 -22 17 -22 13 0 -4 -8 0
-17 9 -19 16 -21 17 -52 17 -21 0 -71 40 -71 57 0 13 -87 103 -100 103 -6 0
-10 4 -10 10 0 5 -3 9 -7 8 -5 -1 -26 6 -48 16 -47 21 -72 28 -102 30 -13 0
-23 3 -24 6 -1 3 -2 61 -3 130 -1 69 -6 132 -11 140 -10 17 -16 36 -18 63 -1
9 -5 17 -9 17 -4 0 -8 8 -8 18 0 10 -3 22 -7 26 -7 6 -11 24 -15 59 -1 9 -5
17 -9 17 -4 0 -6 26 -4 58 2 46 8 65 28 85 13 15 30 27 36 27 7 0 10 4 6 9 -3
5 -1 12 5 16 16 10 3 96 -17 111 -35 28 -53 35 -53 23 0 -8 -5 -8 -16 2 -18
15 -112 20 -121 6z m692 -1945 c-3 -3 -11 0 -18 7 -9 10 -8 11 6 5 10 -3 15
-9 12 -12z"/>
<path d="M2238 4282 c-10 -2 -18 -8 -18 -14 0 -6 -3 -9 -6 -5 -4 3 -21 -1 -38
-10 -17 -10 -37 -16 -45 -14 -8 1 -10 -2 -5 -10 5 -9 2 -10 -9 -6 -10 3 -17 2
-17 -3 0 -5 -6 -7 -13 -4 -8 3 -14 -2 -14 -11 0 -8 5 -15 11 -15 6 0 4 -5 -4
-10 -11 -7 -11 -10 -2 -10 8 0 10 -5 6 -12 -5 -7 -2 -9 7 -6 16 6 41 -16 31
-28 -4 -4 -1 -4 5 0 13 7 57 -16 48 -25 -2 -3 5 -11 17 -18 13 -8 18 -8 13 -1
-8 13 27 -5 59 -30 12 -9 16 -10 12 -2 -4 6 -2 12 3 12 6 0 11 -5 11 -11 0 -5
5 -7 10 -4 6 3 10 1 10 -5 0 -7 6 -8 17 -1 9 5 26 6 37 1 12 -4 32 -3 46 3 14
5 33 9 43 8 9 -1 17 1 17 6 0 4 10 14 23 22 20 13 21 13 8 -2 -8 -10 -9 -17
-3 -17 6 0 14 9 17 20 4 11 11 18 16 15 5 -4 9 -2 9 4 0 6 6 8 14 5 17 -6 16
11 -2 42 -6 12 -8 25 -4 29 4 5 1 5 -5 1 -12 -7 -17 4 -14 29 1 6 -6 1 -15
-10 -14 -16 -16 -17 -11 -2 4 9 2 17 -4 17 -6 0 -8 4 -5 9 3 5 -1 12 -10 15
-10 4 -13 2 -9 -7 4 -6 -3 -1 -15 13 -12 14 -18 18 -14 10 7 -13 6 -13 -11 0
-10 8 -19 14 -19 12 -1 -2 -14 1 -29 7 -16 6 -32 9 -37 6 -5 -3 -11 -1 -15 5
-4 6 -12 7 -23 1 -9 -5 -25 -6 -36 -2 -12 4 -29 6 -38 3z"/>
<path d="M3907 4058 c-11 -10 -25 -18 -31 -18 -6 0 -4 -5 4 -10 13 -8 13 -10
1 -10 -8 0 -31 -18 -52 -40 -20 -21 -39 -37 -42 -34 -2 3 -9 -8 -15 -24 -8
-23 -7 -35 4 -50 7 -11 11 -22 7 -25 -3 -4 0 -13 6 -21 7 -8 10 -20 6 -26 -3
-5 -2 -10 3 -10 13 0 23 -52 25 -132 1 -67 6 -75 40 -69 4 0 7 -3 7 -9 0 -6 3
-9 8 -8 15 3 62 -15 62 -24 0 -6 7 -8 15 -4 8 3 15 2 15 -3 0 -5 14 -14 30
-21 17 -7 30 -16 30 -21 0 -18 33 -8 56 16 13 14 28 25 34 25 6 0 9 3 7 8 -5
9 79 92 87 85 3 -4 6 -1 6 5 0 15 67 82 74 74 3 -3 6 2 6 10 0 9 7 21 15 28 8
7 12 16 9 21 -3 5 0 9 5 9 6 0 11 8 11 18 0 14 2 15 10 2 8 -13 10 -12 10 3 0
10 7 20 15 23 8 4 13 10 10 14 -3 5 3 16 12 26 10 10 18 25 18 33 1 9 6 15 13
13 7 -1 11 1 10 5 0 5 2 16 7 26 6 13 1 23 -16 35 -13 9 -31 17 -39 18 -8 0
-25 6 -37 12 -13 7 -23 10 -23 6 0 -3 -7 -1 -15 6 -12 10 -15 10 -15 0 0 -10
-3 -10 -15 0 -9 7 -35 14 -58 15 -23 0 -48 5 -56 9 -7 5 -33 10 -57 12 -25 2
-50 7 -57 11 -24 16 -129 9 -150 -9z"/>
<path d="M5885 2881 c-3 -5 -2 -12 3 -15 5 -3 9 1 9 9 0 17 -3 19 -12 6z"/>
<path d="M5769 2773 c-13 -16 -12 -17 4 -4 16 13 21 21 13 21 -2 0 -10 -8 -17
-17z"/>
<path d="M5705 2729 c-4 -6 -5 -12 -2 -15 2 -3 7 2 10 11 7 17 1 20 -8 4z"/>
<path d="M2430 2726 c0 -2 8 -10 18 -17 15 -13 16 -12 3 4 -13 16 -21 21 -21
13z"/>
<path d="M4990 2696 c0 -2 7 -7 16 -10 8 -3 12 -2 9 4 -6 10 -25 14 -25 6z"/>
<path d="M4519 2447 c11 -15 11 -17 -2 -17 -8 0 -21 -8 -28 -17 -9 -11 -10
-14 -2 -9 9 5 11 2 7 -8 -3 -9 -10 -13 -15 -10 -8 5 -10 0 -13 -33 -1 -7 -10
-20 -21 -28 -11 -9 -13 -13 -5 -9 8 4 4 -5 -10 -20 -13 -14 -30 -24 -37 -22
-10 4 -11 1 -3 -14 9 -16 8 -18 -5 -14 -8 4 -15 1 -15 -6 0 -6 -4 -9 -8 -6 -5
3 -8 -6 -8 -19 1 -14 5 -25 9 -26 4 0 20 -4 37 -9 17 -5 32 -5 35 1 4 5 17 9
31 9 14 0 23 3 21 8 -3 4 1 13 9 20 11 10 14 10 14 0 1 -7 7 2 15 19 10 24 19
31 32 27 17 -5 17 -5 0 6 -14 9 -16 15 -6 26 6 8 9 23 6 34 -3 11 -2 20 3 20
4 0 4 19 0 43 -5 23 -9 44 -9 47 -1 3 -4 5 -8 5 -5 0 -15 4 -23 10 -13 8 -13
7 -1 -8z"/>
<path d="M4100 2446 c0 -2 7 -9 15 -16 13 -11 14 -10 9 4 -5 14 -24 23 -24 12z"/>
<path d="M6425 1490 c-3 -6 1 -7 9 -4 18 7 21 14 7 14 -6 0 -13 -4 -16 -10z"/>
<path d="M6345 1410 c-3 -6 1 -7 9 -4 18 7 21 14 7 14 -6 0 -13 -4 -16 -10z"/>
</g>
</svg>
